# Blender 5.0.0 Alpha
# www.blender.org
mtllib tree.mtl
o Cylinder
v 1.585046 0.944687 -1.541536
v 1.868587 -0.182782 -1.534099
v 1.383177 -1.198235 -1.502190
v 0.323526 -1.329885 -1.499727
v -0.360131 -1.817172 -1.357775
v -1.468261 -0.495685 -1.363147
v -1.475371 0.645611 -1.500643
v -0.043471 1.298211 4.793246
v 0.684401 1.124839 4.307814
v 1.425629 -0.132343 4.063151
v 0.819921 -1.410944 3.925935
v -0.877272 -1.123829 3.777297
v -1.376571 -0.256980 3.624841
v -1.305556 0.635878 4.099945
v 1.075171 0.900440 5.648381
v 1.414324 -1.005960 1.640541
v -0.298303 -1.558194 2.580072
v -1.162643 -1.236282 2.446540
v -0.725696 1.207406 2.392547
v -0.195390 1.997899 -1.508479
v 1.545357 0.082367 5.710427
v -1.035885 1.206664 6.093321
v -1.211921 0.543318 6.042354
v -0.988560 1.221466 4.186998
v -1.236321 -1.460652 3.103368
v -0.288046 -1.719630 3.137126
v -2.043001 2.152407 5.824538
v -2.788499 2.323205 5.911955
v 3.715938 1.216629 7.244681
v 7.702303 -1.855460 10.272671
v 8.392911 4.322165 10.050400
v 5.472993 6.339291 15.599819
v 9.053946 1.153557 15.591135
v 3.898638 1.182344 19.411877
v 3.605493 -1.610971 6.550889
v 6.002740 -0.423659 8.254910
v 6.502351 -3.950172 9.014076
v 8.278796 1.242588 9.975665
v 5.899034 2.805647 8.105457
v 5.459285 5.968575 9.545301
v 8.718838 -0.548136 12.863658
v 8.846402 2.811432 12.864607
v 7.367210 -3.295050 12.941608
v 6.985409 5.784739 12.905830
v 7.995304 -2.185953 16.318680
v 7.957754 4.074633 16.085171
v 4.215882 -1.280872 17.038992
v 6.631493 1.115499 18.145863
v 4.579668 4.241098 18.191967
v 2.760662 -4.164934 6.279265
v 6.153357 -5.424808 12.631062
v 0.560437 -9.901677 10.365053
v -4.391659 -4.943106 7.845490
v 1.608924 -7.893520 17.603619
v -5.746907 -7.963231 14.836414
v 3.745261 -1.317074 17.539997
v -2.742237 -2.412945 19.168331
v 1.968348 -7.763186 7.252894
v 6.273918 -5.975326 8.075836
v 5.018408 -9.218902 11.048903
v -0.950264 -4.483152 6.349995
v -2.396109 -8.186615 8.122347
v 0.606469 -1.411030 5.800289
v -3.474533 -2.003691 7.261420
v 6.086213 -3.753973 15.790557
v 1.304890 -10.136159 14.472265
v 4.846558 -7.701385 15.620875
v -5.830812 -6.783774 11.058029
v -3.162386 -9.974372 12.676221
v -6.450710 -2.847777 10.298803
v 3.535617 -4.758046 18.784370
v -2.369767 -8.901469 16.792929
v -6.616888 -4.169246 14.050620
v -0.756159 -5.577115 19.543915
v 0.900069 -1.773483 20.180021
v -5.255036 -5.539191 18.100622
v -5.759104 -1.307040 16.861181
v 2.357980 0.855960 5.760894
v -4.696383 -1.826206 8.212889
v -2.142159 6.412649 7.858101
v 4.221136 7.743951 9.626190
v -6.529838 3.662885 13.499395
v -1.613768 9.432798 14.752841
v 4.007060 5.863039 18.309250
v -2.621408 3.417801 19.294113
v 3.709026 4.280293 7.303355
v 0.393212 3.630467 5.935928
v 0.876825 7.168036 8.285099
v 4.953213 7.404255 14.243180
v -5.610233 5.702274 10.617270
v -7.392580 1.159366 11.046487
v 1.545156 8.534225 12.307289
v -2.302490 8.411018 10.796105
v 3.894368 1.635745 19.625322
v -7.182734 0.739007 14.989906
v -4.698368 6.882724 14.088610
v 1.589039 8.265340 16.715336
v -0.260119 0.565257 19.943687
v 0.861334 4.757773 19.585207
v -4.375802 0.113190 18.451231
v -5.937865 3.924224 17.171051
v -2.873535 7.512333 18.808479
v -1.834920 1.927197 6.239402
v -5.865048 0.555572 6.231121
v -4.214219 4.595754 6.800093
v -6.640852 3.648757 9.677340
v -1.877513 -0.467842 5.660099
v -3.636705 1.026143 5.321054
v -4.582122 -1.067733 6.285644
v -2.937568 3.361849 6.376620
v -4.975967 2.941794 6.371603
v -2.384059 5.186614 7.151239
v -6.424379 -0.284438 8.225641
v -5.480300 4.348640 7.953155
v -6.392692 2.078178 7.966480
v -4.133601 6.013343 8.138976
v -7.444650 1.693167 10.536831
v -5.746135 5.550884 9.946670
v -6.592285 3.941835 11.761880
v -1.020332 1.095541 6.298729
v -1.135355 0.896729 6.329001
v -1.028926 1.160532 6.488016
v -1.021173 1.185780 6.308175
v -1.007996 1.167075 6.500620
v -1.032021 1.181054 6.312441
v 0.443089 -1.306563 5.947937
v -0.042161 -1.218010 6.232263
v 0.871213 1.024012 5.877263
v 1.065618 0.907632 5.861261
v 0.523605 1.156463 5.905246
v -0.000391 1.282653 5.946817
v -1.021128 1.180958 6.307670
v -1.007989 1.158069 6.498530
v -0.640797 -1.361235 6.407449
v -0.419370 -1.346716 6.315904
v 0.715892 -1.080064 6.175095
v 1.022000 -0.813949 6.496962
v 0.495042 -1.270997 5.948822
v 0.964953 -0.851641 6.503602
v 1.156412 -0.542422 6.346560
v 1.392666 -0.160573 6.152566
v 1.108936 -0.714499 6.455861
v -0.763796 -1.233810 6.326721
v -0.688073 -1.311992 6.463395
v -1.283993 0.349622 6.338926
v -1.221231 0.558944 6.246332
v -1.163819 0.791959 6.330902
v -1.247257 0.484841 6.336473
v 1.509041 0.109301 5.996693
v -0.834560 -1.117337 6.120674
v -0.870122 -1.058489 6.026242
v -1.005283 -0.819840 6.100346
v -1.456957 -0.195097 6.359723
v -1.435788 0.028993 6.373015
v -0.373353 1.175281 6.023972
v -0.207806 1.287406 5.962895
v -0.176358 1.309553 5.960648
v -1.009029 -0.807507 6.102333
v -1.116921 -0.445862 6.185873
v 1.502899 0.128461 5.980283
v 1.206709 0.947238 5.850680
v 1.796699 0.167766 6.060268
v 1.674516 0.224153 5.973363
v 1.695884 0.127549 6.052536
v 1.499087 0.339785 5.823013
v -2.896541 2.377812 6.043864
v -2.832354 2.157627 5.987760
v -2.791031 2.289228 6.047878
v -2.840842 2.317139 6.041086
v -1.332298 1.390443 6.380803
v -1.835957 1.868852 6.225290
v -1.876796 1.906255 6.218059
v -2.099583 2.101564 6.212492
v -1.384082 0.655118 6.182447
v -1.375109 1.268413 6.329765
v -2.120925 1.146801 5.943910
v -2.564777 1.562203 5.867403
v -2.705359 1.690899 5.865810
v -2.270014 2.124758 6.163798
v -1.851983 0.967712 6.007326
v 2.672371 -0.652135 7.270089
v 3.490287 0.662305 7.210386
v 3.588894 1.214609 7.307491
v 3.613122 1.561987 7.320519
v 4.147711 3.554266 7.975315
v 4.085622 3.115255 7.841762
v 6.128836 -3.930809 9.499863
v 6.002515 -3.847542 9.205800
v 5.868142 -3.070692 15.618655
v 4.366818 -1.585315 16.797487
v 4.332114 4.353258 17.921175
v 4.548578 4.867472 17.284801
v 4.803489 6.125932 15.604300
v 3.951322 1.418966 19.317505
v 3.964967 1.430451 19.307709
v 4.087424 2.030250 19.073709
v 4.080563 1.746179 19.160477
v 4.283453 4.100368 18.098377
v 3.817250 1.232509 19.339554
v 3.747369 1.083839 19.299129
v 4.001750 -1.216526 17.078562
v 3.884898 -1.105892 17.173965
v 3.708843 -1.000163 17.258127
v 4.132273 -1.345772 16.976156
v 4.956620 6.845065 14.620353
v 5.878861 -3.071376 15.602956
v 6.189092 -3.285946 14.420221
v 6.193703 -3.316723 14.299485
v 5.046724 6.831237 14.344556
v 5.110950 6.881070 13.789710
v 4.891393 7.161625 12.980090
v 4.819792 6.776541 11.182222
v 4.913716 6.241489 10.192806
v 4.715970 5.954305 9.732970
v 6.259904 -3.438345 12.933095
v 6.345847 -3.798481 10.253983
v 6.299764 -3.553934 12.061839
v 4.333161 4.150545 8.323476
v 4.391036 5.204648 8.861774
v 3.299686 -1.584900 6.876732
v 3.240174 -1.390213 6.880828
v 2.657491 -0.726577 7.309628
v 3.472494 -1.741150 6.924603
v 5.340963 -3.012357 8.026552
v 4.537315 -2.363414 7.343214
v 4.145354 -2.113090 7.145543
v 4.842967 -1.948460 7.532261
v -3.223892 -1.573429 7.445592
v -3.682736 -1.668238 7.712588
v -6.344588 -0.764293 13.470339
v -6.375790 -0.705739 13.272155
v -6.311943 -0.748808 13.632421
v 1.188220 -0.814112 19.169819
v 1.575900 -1.065056 19.064823
v 3.551462 -1.037475 17.467081
v 2.413045 -1.518227 18.765934
v -0.520310 -0.484052 18.962475
v -0.527927 -0.484507 18.959887
v -2.315096 -0.617523 18.366808
v -4.655827 -0.684130 17.111149
v -4.406781 -0.818803 17.326679
v -3.240240 -0.800197 17.960888
v -5.310067 -0.575889 16.260851
v -5.822823 -0.787720 15.251181
v -6.375134 -0.706591 13.239035
v -5.765913 -1.192738 10.483754
v -6.098828 -1.190563 11.596597
v -4.381119 -1.957110 8.370397
v -4.849370 -1.930957 8.944450
v 2.305797 -0.875931 7.018847
v -0.926535 -1.350264 6.546240
v -5.420491 5.366972 10.312513
v -5.377682 5.397907 10.287567
v -4.872053 5.734070 9.980899
v -2.928762 6.231767 8.475793
v -2.426020 5.703151 7.816203
v -3.866309 5.999110 9.205002
v -6.469538 0.137256 10.076406
v -6.305271 -0.115020 10.050290
v -6.110606 -0.260199 9.699183
v -6.446782 3.680368 11.782582
v -7.010743 2.132607 10.954535
v -5.907198 4.945359 10.688785
v -6.301216 4.049235 11.728682
v -6.370323 3.879020 11.797100
v -7.001632 1.293010 10.679391
v -7.016741 1.710733 10.827357
v -6.935877 0.937128 10.588413
v -5.254715 -0.813075 8.830185
v -4.537370 -1.118747 8.114039
v -2.254930 5.616338 7.711908
v -1.782076 5.168774 7.371378
v -1.000932 3.673807 6.618554
v -1.008301 3.621280 6.608877
v -1.134244 3.178606 6.558084
v -1.011047 3.709208 6.632342
v -1.576579 -0.140860 6.417463
v -1.312822 1.884333 6.505926
v -4.518036 -1.127129 8.103135
v -3.313529 -0.814054 7.413936
v -2.103923 -0.537735 6.722268
v -1.624017 -0.235834 6.445582
vn -0.7923 0.5095 0.3356
vn 0.3586 -0.9264 -0.1146
vn -0.3586 0.9264 0.1146
vn 0.2953 -0.9545 -0.0413
vn 0.9673 0.2437 0.0701
vn -0.6689 0.7431 0.0216
vn -0.1684 -0.9855 0.0195
vn 0.5133 0.8582 -0.0060
vn 0.2345 0.9721 0.0044
vn -0.9976 -0.0163 0.0667
vn 0.9976 0.0163 -0.0667
vn -0.0695 0.9974 -0.0180
vn -0.8637 0.4869 -0.1303
vn -0.7526 -0.3336 0.5677
vn -0.1852 -0.7986 0.5727
vn 0.5859 -0.8092 0.0440
vn -0.3573 -0.9316 0.0669
vn 0.0271 -0.9954 -0.0923
vn 0.5571 -0.8175 0.1460
vn 0.8518 -0.5238 0.0064
vn 0.3572 0.9339 0.0175
vn 0.9725 -0.2206 0.0750
vn 0.2928 -0.9465 -0.1359
vn -0.7202 -0.6938 0.0021
vn -0.9633 0.2606 -0.0639
vn -0.9975 0.0632 0.0304
vn -0.9685 -0.2472 0.0296
vn -0.7646 -0.6414 -0.0634
vn 0.4062 0.9131 0.0344
vn -0.4939 0.8628 0.1077
vn 0.9364 -0.3179 0.1487
vn 0.8642 0.4871 -0.1263
vn 0.7676 -0.6350 0.0871
vn -0.8677 -0.4968 0.0172
vn -0.9949 0.0958 -0.0314
vn -0.8993 0.4326 0.0640
vn -0.0845 0.9964 0.0056
vn -0.7255 0.6870 0.0406
vn -0.9998 -0.0040 0.0186
vn 0.6613 -0.7490 0.0393
vn 0.1232 -0.9920 -0.0261
vn 0.9023 -0.4308 0.0174
vn 0.5092 0.8591 0.0519
vn 0.2923 0.9512 0.0986
vn 0.9737 0.2151 0.0751
vn 0.9697 -0.2311 0.0788
vn -0.7978 -0.5828 -0.1542
vn -0.9897 -0.0586 -0.1310
vn 0.0590 0.9916 0.1149
vn -0.0590 -0.9916 -0.1149
vn -0.5777 0.8129 -0.0737
vn 0.1517 0.9884 0.0077
vn -0.9508 -0.3008 0.0742
vn -0.5933 -0.8050 0.0008
vn 0.9262 0.3679 0.0829
vn -0.2731 0.9609 -0.0447
vn 0.6436 0.4955 -0.5833
vn 0.3730 -0.9269 -0.0417
vn 0.7334 0.3787 -0.5645
vn -0.0639 -0.9853 0.1583
vn -0.7861 -0.0728 -0.6138
vn 0.4529 0.8629 0.2241
vn 0.6444 0.7405 0.1910
vn 0.6812 0.7318 0.0226
vn -0.5033 0.3873 -0.7725
vn 0.5343 -0.2048 0.8201
vn -0.6717 -0.7349 -0.0934
vn 0.1579 0.8987 -0.4092
vn 0.4439 -0.4738 0.7606
vn 0.0933 0.9854 0.1427
vn 0.2434 0.9399 0.2395
vn 0.7061 0.6337 0.3160
vn -0.7997 -0.0616 -0.5972
vn -0.5521 -0.8337 -0.0131
vn -0.2452 -0.9324 -0.2657
vn -0.0264 -0.0132 -0.9996
vn 0.0017 -0.0322 -0.9995
vn -0.1263 -0.1099 -0.9859
vn 0.1187 -0.1180 -0.9859
vn -0.0182 -0.0055 -0.9998
vn -0.0832 -0.0156 -0.9964
vn -0.2405 -0.8110 0.5334
vn -0.2821 -0.8978 -0.3383
vn 0.5060 0.1868 -0.8420
vn 0.6781 -0.1941 -0.7089
vn -0.4342 0.2306 -0.8708
vn -0.4431 0.0644 -0.8942
vn 0.1826 0.2624 -0.9475
vn 0.9422 -0.2010 -0.2682
vn -0.2569 -0.9532 -0.1595
vn 0.5049 0.8435 -0.1832
vn 0.8887 -0.4409 -0.1262
vn 0.8395 0.5234 0.1457
vn 0.0006 -0.6213 0.7836
vn -0.2490 0.7930 0.5561
vn 0.7159 0.1535 0.6811
vn 0.4114 0.2572 0.8744
vn 0.5120 0.3244 0.7954
vn 0.4372 0.6194 0.6521
vn -0.4476 0.4155 0.7919
vn -0.4801 0.5635 0.6723
vn -0.6312 0.0871 0.7707
vn -0.0776 -0.6969 0.7130
vn -0.0576 -0.6551 0.7533
vn -0.0748 -0.6422 0.7629
vn 0.3106 -0.6384 0.7042
vn 0.0569 -0.4654 0.8833
vn 0.7239 -0.0802 0.6852
vn 0.9354 0.3292 0.1290
vn 0.8475 0.5301 0.0259
vn 0.6372 0.7430 0.2048
vn -0.2512 0.7997 0.5454
vn 0.3020 -0.9209 0.2463
vn 0.8968 -0.4419 -0.0217
vn 0.9552 -0.2891 0.0630
vn 0.5476 0.8254 0.1375
vn 0.5337 0.8223 -0.1974
vn -0.1381 0.8656 -0.4812
vn 0.1271 -0.9874 0.0940
vn 0.1261 -0.9826 0.1361
vn 0.8913 -0.4364 -0.1235
vn 0.9944 -0.0377 -0.0986
vn 0.9842 -0.0373 -0.1731
vn 0.9839 -0.0322 -0.1758
vn 0.3806 0.4264 -0.8205
vn 0.2482 0.4297 -0.8682
vn -0.1680 0.7773 -0.6062
vn -0.7216 -0.2067 -0.6607
vn -0.5316 -0.7231 -0.4411
vn 0.6164 -0.0037 -0.7874
vn 0.6109 -0.0170 -0.7915
vn 0.3856 -0.0303 -0.9222
vn -0.3327 -0.8475 -0.4136
vn 0.6048 -0.0848 -0.7918
vn 0.7519 -0.0352 -0.6583
vn 0.3012 -0.3103 -0.9017
vn 0.9971 -0.0675 0.0346
vn 0.0041 -0.2620 -0.9651
vn -0.0038 -0.1743 -0.9847
vn 0.3752 0.1340 -0.9172
vn 0.9966 -0.0616 0.0538
vn 0.1637 -0.9828 -0.0858
vn -0.6772 -0.4653 -0.5700
vn -0.4981 0.5699 -0.6536
vn 0.9363 -0.3018 0.1795
vn -0.0143 -0.9984 -0.0544
vn -0.8329 -0.2284 -0.5040
vn 0.2398 -0.4677 0.8507
vn -0.5071 -0.6536 0.5618
vn -0.9764 0.1098 0.1862
vn 0.5261 0.5367 0.6597
vn -0.3114 0.4482 0.8379
vn 0.0540 0.7163 0.6957
vn -0.4318 0.4513 0.7809
vn -0.5109 0.7108 0.4835
vn -0.7297 0.6418 0.2359
vn -0.5581 0.1713 0.8119
vn -0.9498 -0.0217 0.3120
vn -0.9505 -0.1632 0.2644
vn -0.3051 -0.0789 0.9490
vn -0.2619 -0.5367 0.8021
vn 0.0052 -0.6390 0.7692
vn -0.2594 -0.0483 0.9646
vn 0.2150 -0.2514 0.9437
vn 0.6430 0.2255 0.7319
vn 0.6067 0.5661 0.5581
vn -0.9977 0.0646 -0.0214
vn -0.9791 -0.1744 -0.1048
vn -0.9711 -0.2333 -0.0513
vn -0.4142 -0.8581 0.3034
vn -0.1452 -0.9502 0.2756
vn 0.0892 -0.8138 0.5742
vn 0.4607 -0.5465 0.6994
vn 0.7759 -0.2682 0.5711
vn 0.7116 0.2002 0.6734
vn -0.8804 0.3938 -0.2642
vn -0.7141 0.3624 -0.5990
vn -0.7237 0.0899 -0.6842
vn -0.6999 -0.6861 -0.1986
vn -0.6076 -0.6992 -0.3767
vn -0.2238 -0.8938 -0.3886
vn 0.3636 -0.7737 0.5188
vn 0.4752 -0.8296 0.2932
vn 0.9290 -0.3394 0.1476
vn 0.7730 0.3754 0.5115
vn 0.9256 0.3314 0.1827
vn 0.2737 0.6799 -0.6803
vn 0.0426 0.7427 -0.6683
vn -0.3526 0.5343 -0.7682
vn -0.3374 0.0025 -0.9414
vn -0.3910 -0.0605 -0.9184
vn -0.3485 -0.2905 -0.8912
vn -0.1450 -0.3805 -0.9133
vn -0.0358 -0.8160 -0.5769
vn 0.9081 0.2808 -0.3106
vn 0.4751 0.0503 -0.8785
vn 0.2049 -0.8475 -0.4897
vn 0.4030 -0.6983 -0.5916
vn 0.9487 -0.3099 0.0626
vn 0.6751 -0.4468 -0.5871
vn 0.2860 -0.5688 -0.7712
vn -0.0771 0.0083 -0.9970
vn 0.3180 0.2823 -0.9051
vn -0.2914 -0.9365 -0.1950
vn -0.6312 0.2949 -0.7174
vn -0.0366 0.9481 -0.3159
vn -0.8238 -0.5110 -0.2454
vn -0.5343 0.6851 -0.4952
vn 0.3034 0.9526 0.0220
vn 0.1557 -0.3271 0.9321
vn -0.3199 -0.7251 0.6098
vn -0.9506 0.2802 0.1333
vn -0.6490 0.7456 0.1515
vn 0.0994 0.6177 0.7801
vn -0.1245 0.1093 0.9862
vn 0.2650 0.5771 0.7725
vn 0.0559 0.8955 0.4414
vn -0.5306 0.0675 0.8449
vn -0.7894 0.5695 0.2292
vn -0.8725 0.4768 0.1067
vn -0.5308 0.0663 0.8449
vn -0.7816 -0.1144 0.6132
vn -0.6981 -0.5417 0.4682
vn -0.3342 -0.0625 0.9404
vn -0.1977 -0.6430 0.7399
vn -0.2131 -0.6386 0.7394
vn -0.1279 0.1184 0.9847
vn 0.0584 0.0695 0.9959
vn 0.2751 0.2791 0.9200
vn 0.4951 0.7680 0.4063
vn 0.2857 0.9567 0.0555
vn 0.3122 0.9484 0.0547
vn -0.6226 0.7771 -0.0923
vn -0.6274 0.7726 -0.0979
vn -0.8724 0.4845 0.0644
vn -0.9637 0.2552 0.0785
vn -0.8755 -0.4832 -0.0049
vn -0.7476 -0.6298 0.2107
vn 0.7409 -0.4768 0.4729
vn 0.9265 -0.1869 0.3267
vn 0.9158 0.0970 0.3898
vn 0.0717 0.9627 -0.2611
vn 0.1016 0.9367 -0.3350
vn -0.1249 0.8172 -0.5627
vn -0.9314 0.3615 -0.0414
vn -0.7065 0.2134 -0.6747
vn -0.6935 0.0555 -0.7183
vn 0.9335 0.2045 0.2947
vn 0.9748 0.1819 0.1292
vn 0.9180 0.3788 -0.1177
vn 0.2409 0.5158 -0.8222
vn 0.2389 0.5143 -0.8237
vn -0.0213 0.5551 -0.8315
vn -0.4233 0.2212 -0.8786
vn -0.3988 0.0918 -0.9124
vn -0.3987 0.0918 -0.9125
vn 0.3988 -0.0918 0.9124
vn -0.4946 -0.0103 -0.8691
vn -0.1102 -0.8616 -0.4954
vn -0.0280 -0.8743 -0.4846
vn 0.8463 0.2047 -0.4918
vn 0.8545 0.0368 -0.5181
vn 0.7856 -0.0316 -0.6179
vn 0.4584 0.2012 -0.8657
vn 0.3567 0.2136 -0.9095
vn 0.3002 0.3168 -0.8998
vn 0.0956 0.1673 -0.9812
vn -0.6993 -0.5673 -0.4350
vn -0.6462 0.4561 -0.6118
vn 0.2503 0.7397 -0.6246
vn -0.9608 -0.0175 -0.2768
vn -0.6151 0.5596 -0.5555
vn -0.9291 0.3686 -0.0302
vn -0.1903 0.8023 0.5657
vn -0.0372 0.3856 0.9219
vn -0.2203 0.7786 0.5875
vn -0.9020 0.4299 -0.0394
vn -0.1597 -0.0107 0.9871
vn -0.5392 -0.2360 0.8084
vn -0.5273 -0.3006 0.7948
vn -0.2071 0.9762 0.0650
vn -0.6706 0.5923 -0.4466
vn -0.8181 0.4376 -0.3730
vn -0.9130 0.2259 -0.3398
vn -0.9235 -0.0296 -0.3824
vn -0.8283 -0.5503 0.1052
vn -0.1948 0.9789 0.0619
vn 0.0279 0.7903 -0.6121
vn -0.0832 0.6868 -0.7221
vn -0.8391 0.3347 -0.4289
vn -0.7879 0.3135 -0.5301
vn -0.7876 0.3243 -0.5240
vn -0.4567 -0.8826 0.1118
vn -0.4051 -0.9141 -0.0156
vn 0.2299 -0.9724 -0.0399
vn 0.3007 0.5525 -0.7774
vn 0.0550 0.3760 -0.9250
vn 0.0562 0.3756 -0.9251
vn -0.0540 0.2737 -0.9603
vn -0.0868 0.4317 -0.8978
vn -0.4068 0.2040 -0.8905
vn -0.3125 -0.2775 -0.9085
vn -0.1322 -0.3649 -0.9216
vn 0.2123 -0.9770 -0.0190
vn 0.4528 -0.0266 -0.8912
vn 0.5577 -0.8275 0.0644
vn 0.8686 -0.4753 -0.1399
vt 0.408405 0.282031
vt 0.401993 0.289086
vt 0.403180 0.283635
vt 0.497161 0.348369
vt 0.492930 0.348204
vt 0.492804 0.347997
vt 0.497421 0.347997
vt 0.471059 0.353457
vt 0.471169 0.353224
vt 0.476381 0.353457
vt 0.117250 0.671807
vt 0.008033 0.694562
vt 0.130325 0.646380
vt 0.463706 0.809624
vt 0.289788 0.831407
vt 0.289820 0.809624
vt 0.454839 0.300741
vt 0.496970 0.284699
vt 0.589229 0.313337
vt 0.189322 0.650570
vt 0.137704 0.685689
vt 0.179632 0.641496
vt 0.890921 0.595984
vt 0.858565 0.585439
vt 0.896320 0.590196
vt 0.896026 0.595651
vt 0.870446 0.567760
vt 0.898149 0.568592
vt 0.896993 0.581263
vt 0.403191 0.281938
vt 0.505450 0.353224
vt 0.505453 0.353320
vt 0.500811 0.353405
vt 0.500777 0.353224
vt 0.482825 0.347997
vt 0.487979 0.347997
vt 0.487971 0.348103
vt 0.888500 0.677369
vt 0.888356 0.653660
vt 0.927616 0.696912
vt 0.454123 0.284655
vt 0.140354 0.705807
vt 0.122889 0.694418
vt 0.498888 0.611443
vt 0.405298 0.628495
vt 0.399345 0.611443
vt 0.108140 0.699601
vt 0.013365 0.702999
vt 0.105047 0.677433
vt 0.196252 0.660442
vt 0.192924 0.656589
vt 0.477365 0.856140
vt 0.472306 0.862748
vt 0.472374 0.864053
vt 0.423129 0.864243
vt 0.484575 0.846941
vt 0.484833 0.848338
vt 0.425211 0.830017
vt 0.464630 0.822701
vt 0.475565 0.829186
vt 0.480686 0.839768
vt 0.483428 0.843920
vt 0.367095 0.851310
vt 0.198005 0.661538
vt 0.195578 0.664832
vt 0.403133 0.297101
vt 0.401687 0.291545
vt 0.407978 0.297665
vt 0.400397 0.301930
vt 0.400791 0.298755
vt 0.463923 0.320278
vt 0.489489 0.338951
vt 0.582932 0.335581
vt 0.024640 0.739362
vt 0.717736 0.608150
vt 0.439293 0.269099
vt 0.592295 0.269099
vt 0.471573 0.822236
vt 0.756571 0.631618
vt 0.717736 0.635284
vt 0.752011 0.612974
vt 0.191664 0.668878
vt 0.189910 0.670852
vt 0.193310 0.675551
vt 0.398559 0.315038
vt 0.398817 0.310287
vt 0.850081 0.652306
vt 0.291533 0.858513
vt 0.002412 0.673774
vt 0.717736 0.558357
vt 0.473191 0.343172
vt 0.846127 0.648898
vt 0.860178 0.641496
vt 0.495663 0.353224
vt 0.495953 0.353672
vt 0.491305 0.353672
vt 0.491403 0.353423
vt 0.481206 0.353224
vt 0.486480 0.353224
vt 0.481301 0.353468
vt 0.428575 0.352891
vt 0.398559 0.352891
vt 0.400885 0.348835
vt 0.401113 0.347997
vt 0.898567 0.564504
vt 0.193424 0.675738
vt 0.197357 0.681032
vt 0.204283 0.689448
vt 0.471058 0.347997
vt 0.478000 0.347997
vt 0.471427 0.348399
vt 0.466234 0.347997
vt 0.466234 0.350703
vt 0.461139 0.348122
vt 0.764955 0.635284
vt 0.762563 0.632265
vt 0.448006 0.347997
vt 0.456314 0.349632
vt 0.447022 0.349632
vt 0.756851 0.614824
vt 0.758410 0.627623
vt 0.442197 0.351395
vt 0.433400 0.351395
vt 0.436449 0.347997
vt 0.252818 0.091405
vt 0.248871 0.090401
vt 0.254174 0.088598
vt 0.826046 0.696276
vt 0.822830 0.695375
vt 0.823463 0.694142
vt 0.838193 0.682870
vt 0.829978 0.678095
vt 0.833617 0.672202
vt 0.834168 0.671022
vt 0.839718 0.655397
vt 0.226102 0.137770
vt 0.211617 0.130747
vt 0.701339 0.308352
vt 0.684828 0.308352
vt 0.685658 0.300027
vt 0.699900 0.303627
vt 0.821785 0.815698
vt 0.869844 0.801289
vt 0.878403 0.812536
vt 0.881483 0.815698
vt 0.682587 0.300264
vt 0.828636 0.681927
vt 0.821785 0.696912
vt 0.237617 0.094008
vt 0.853289 0.780981
vt 0.859153 0.782147
vt 0.865535 0.794702
vt 0.677762 0.317701
vt 0.662718 0.341306
vt 0.666675 0.269099
vt 0.616995 0.333235
vt 0.636879 0.349579
vt 0.601884 0.287893
vt 0.597120 0.329124
vt 0.621756 0.269099
vt 0.233543 0.247376
vt 0.197207 0.302641
vt 0.164607 0.247992
vt 0.241248 0.353938
vt 0.166424 0.342374
vt 0.233444 0.244244
vt 0.187607 0.223831
vt 0.219949 0.242463
vt 0.241846 0.244511
vt 0.291012 0.254877
vt 0.274726 0.297536
vt 0.280241 0.253921
vt 0.817743 0.428194
vt 0.776154 0.488362
vt 0.741570 0.423083
vt 0.935386 0.928710
vt 0.924383 0.919680
vt 0.931676 0.916529
vt 0.627763 0.153746
vt 0.673078 0.221400
vt 0.591848 0.232810
vt 0.848611 0.495299
vt 0.700159 0.151564
vt 0.901818 0.221195
vt 0.879370 0.271591
vt 0.860911 0.179557
vt 0.867968 0.183503
vt 0.510697 0.621982
vt 0.505740 0.616879
vt 0.588658 0.611443
vt 0.581255 0.622565
vt 0.531022 0.620695
vt 0.802093 0.235628
vt 0.797576 0.294782
vt 0.728342 0.265968
vt 0.797616 0.170420
vt 0.803424 0.169302
vt 0.728342 0.183753
vt 0.782611 0.173308
vt 0.789523 0.173333
vt 0.797322 0.170743
vt 0.590016 0.088123
vt 0.594418 0.020762
vt 0.668299 0.075440
vt 0.731893 0.176747
vt 0.802227 0.167323
vt 0.503713 0.623885
vt 0.805835 0.165764
vt 0.859550 0.174333
vt 0.854681 0.167051
vt 0.857038 0.171402
vt 0.862495 0.177610
vt 0.931953 0.362847
vt 0.911201 0.435159
vt 0.862659 0.364770
vt 0.723517 0.083236
vt 0.610466 0.623885
vt 0.805826 0.906312
vt 0.808726 0.906931
vt 0.839234 0.934154
vt 0.756692 0.930508
vt 0.777556 0.895195
vt 0.777914 0.895458
vt 0.575092 0.118640
vt 0.573089 0.111925
vt 0.567725 0.151828
vt 0.575758 0.132142
vt 0.569806 0.194187
vt 0.576058 0.227310
vt 0.577337 0.217064
vt 0.841489 0.911817
vt 0.862390 0.915289
vt 0.905827 0.921754
vt 0.771376 0.553533
vt 0.789943 0.358763
vt 0.717736 0.358763
vt 0.352025 0.282487
vt 0.315598 0.353938
vt 0.305912 0.258409
vt 0.331923 0.258246
vt 0.351200 0.264375
vt 0.169939 0.238608
vt 0.185843 0.223489
vt 0.165300 0.240214
vt 0.853099 0.821111
vt 0.858582 0.820523
vt 0.854346 0.829992
vt 0.961134 0.895195
vt 0.821785 0.820523
vt 0.833839 0.821656
vt 0.113540 0.316802
vt 0.134013 0.289215
vt 0.158655 0.276900
vt 0.148180 0.270125
vt 0.728609 0.493486
vt 0.102036 0.230180
vt 0.063562 0.314177
vt 0.015686 0.213037
vt 0.069850 0.851044
vt 0.109720 0.832405
vt 0.135463 0.868461
vt 0.034560 0.914013
vt 0.091047 0.141015
vt 0.165877 0.176509
vt 0.153640 0.260709
vt 0.161746 0.244452
vt 0.159708 0.811156
vt 0.162284 0.809624
vt 0.197033 0.809778
vt 0.129027 0.823633
vt 0.476371 0.434553
vt 0.486658 0.534878
vt 0.399345 0.508598
vt 0.659003 0.532550
vt 0.641244 0.606618
vt 0.564152 0.595389
vt 0.157783 0.071153
vt 0.160203 0.082441
vt 0.149416 0.076998
vt 0.224185 0.905053
vt 0.570682 0.487610
vt 0.712911 0.552349
vt 0.323731 0.464959
vt 0.387188 0.512678
vt 0.321188 0.570656
vt 0.674058 0.362155
vt 0.652173 0.441544
vt 0.573356 0.387012
vt 0.871298 0.139023
vt 0.866443 0.139907
vt 0.886429 0.066951
vt 0.954237 0.133758
vt 0.875251 0.139661
vt 0.321879 0.893725
vt 0.311306 0.869068
vt 0.394823 0.895902
vt 0.389854 0.901539
vt 0.355747 0.883639
vt 0.332533 0.889858
vt 0.198779 0.448457
vt 0.240226 0.430690
vt 0.240414 0.519445
vt 0.203250 0.491414
vt 0.203228 0.491233
vt 0.289788 0.918566
vt 0.190098 0.393075
vt 0.200279 0.364430
vt 0.199121 0.425896
vt 0.194442 0.398358
vt 0.962110 0.160939
vt 0.940324 0.154843
vt 0.915148 0.144379
vt 0.303700 0.358763
vt 0.987164 0.055210
vt 0.908952 0.002412
vt 0.394520 0.414347
vt 0.239467 0.590097
vt 0.400421 0.903439
vt 0.395181 0.904392
vt 0.865649 0.139922
vt 0.795904 0.098177
vt 0.817366 0.027440
vt 0.500094 0.358763
vt 0.394520 0.591306
vt 0.283102 0.831263
vt 0.305808 0.636671
vt 0.826958 0.135129
vt 0.800866 0.140355
vt 0.753186 0.145275
vt 0.738607 0.160939
vt 0.728342 0.157368
vt 0.766047 0.139070
vt 0.129585 0.002412
vt 0.078405 0.056750
vt 0.284963 0.923737
vt 0.229374 0.997588
vt 0.128932 0.970466
vt 0.404732 0.903306
vt 0.480911 0.888306
vt 0.473890 0.899439
vt 0.473483 0.899239
vt 0.418172 0.902374
vt 0.409540 0.903031
vt 0.496597 0.918566
vt 0.181615 0.215500
vt 0.174346 0.178407
vt 0.180424 0.183812
vt 0.169305 0.173526
vt 0.166728 0.138647
vt 0.167780 0.144455
vt 0.166578 0.145703
vt 0.167034 0.151132
vt 0.170390 0.160205
vt 0.168400 0.172307
vt 0.002412 0.107267
vt 0.472959 0.606618
vt 0.002412 0.847309
vt 0.018377 0.861115
vt 0.047768 0.863339
vt 0.054459 0.861640
vt 0.046366 0.997588
vt 0.910459 0.353939
vt 0.891199 0.325659
vt 0.924957 0.310239
vt 0.926261 0.308713
vt 0.935102 0.312332
vt 0.208885 0.196463
vt 0.222037 0.216774
vt 0.181377 0.185161
vt 0.183808 0.187218
vt 0.187880 0.188344
vt 0.197087 0.193937
vt 0.203527 0.196693
vt 0.203966 0.196549
vt 0.204197 0.201109
vt 0.205266 0.203493
vt 0.206420 0.200607
vt 0.224845 0.180689
vt 0.227747 0.172171
vt 0.230350 0.159395
vt 0.230851 0.155118
vt 0.230291 0.154378
vt 0.287242 0.166859
vt 0.223276 0.188866
vt 0.222204 0.185490
vt 0.307382 0.244495
vt 0.259436 0.728142
vt 0.260772 0.719180
vt 0.276826 0.725300
vt 0.336608 0.014888
vt 0.353964 0.101099
vt 0.336572 0.094927
vt 0.349543 0.081572
vt 0.343855 0.058321
vt 0.337374 0.033400
vt 0.329141 0.021146
vt 0.328383 0.020112
vt 0.480537 0.166213
vt 0.545905 0.232597
vt 0.479741 0.259369
vt 0.320487 0.741303
vt 0.348131 0.740683
vt 0.351809 0.794906
vt 0.320185 0.772049
vt 0.317676 0.766279
vt 0.307888 0.763161
vt 0.626216 0.866696
vt 0.555735 0.833387
vt 0.613376 0.768394
vt 0.566814 0.122031
vt 0.239605 0.557070
vt 0.171162 0.604673
vt 0.179966 0.501417
vt 0.225623 0.538866
vt 0.480404 0.641496
vt 0.501736 0.670976
vt 0.472348 0.669988
vt 0.713595 0.641496
vt 0.769549 0.718548
vt 0.679939 0.710932
vt 0.816960 0.828932
vt 0.723040 0.890370
vt 0.699123 0.798973
vt 0.002412 0.577931
vt 0.084621 0.545192
vt 0.070310 0.625020
vt 0.003516 0.467858
vt 0.102178 0.457085
vt 0.398559 0.002412
vt 0.485793 0.059903
vt 0.403519 0.105062
vt 0.075383 0.381197
vt 0.173106 0.402373
vt 0.803395 0.661490
vt 0.469306 0.678001
vt 0.440173 0.759429
vt 0.432588 0.714015
vt 0.453806 0.698539
vt 0.218151 0.530616
vt 0.564485 0.020252
vt 0.618517 0.653044
vt 0.390311 0.739876
vt 0.394490 0.737288
vt 0.389538 0.740080
vt 0.398110 0.735656
vt 0.683281 0.914057
vt 0.682940 0.905353
vt 0.751867 0.957728
vt 0.718709 0.978677
vt 0.714422 0.982491
vt 0.692216 0.918075
vt 0.688966 0.915608
vt 0.683737 0.913986
vt 0.674471 0.914066
vt 0.589983 0.925419
vt 0.585351 0.895195
vt 0.667936 0.913348
vt 0.615596 0.915274
vt 0.608404 0.916721
vt 0.398559 0.197267
vt 0.422822 0.264274
vt 0.614232 0.749175
vt 0.638068 0.724404
vt 0.639512 0.719972
vt 0.638941 0.714998
vt 0.617415 0.677756
vt 0.800882 0.612974
vt 0.820783 0.628366
vt 0.810874 0.625527
vt 0.800893 0.623222
vt 0.318182 0.008305
vt 0.769779 0.628366
vt 0.792090 0.622456
vt 0.852664 0.745020
vt 0.821785 0.701737
vt 0.841573 0.718446
vt 0.858598 0.728661
vt 0.506561 0.968113
vt 0.546424 0.950233
vt 0.521233 0.964913
vt 0.517983 0.970873
vt 0.511054 0.982491
vt 0.375376 0.172627
vt 0.393734 0.251044
vt 0.334528 0.099246
vt 0.275621 0.129722
vt 0.286451 0.132312
vt 0.287733 0.132432
vt 0.288591 0.132142
vt 0.323821 0.111428
vt 0.227346 0.134203
vt 0.225283 0.134575
vt 0.220421 0.131940
vt 0.217874 0.131343
vt 0.244231 0.126602
vt 0.227504 0.150415
vt 0.227348 0.134471
vt 0.227465 0.134465
vt 0.942481 0.704866
vt 0.937895 0.712069
vt 0.936760 0.717388
vt 0.944357 0.724559
vt 0.945988 0.733619
vt 0.933993 0.715683
vt 0.943750 0.701737
vt 0.507830 0.347997
vt 0.507830 0.348113
vt 0.507565 0.347999
vt 0.946044 0.733927
vt 0.948671 0.740109
vt 0.859048 0.728929
vt 0.889476 0.725676
vt 0.919924 0.723320
vt 0.932557 0.717787
vt 0.201139 0.665569
vt 0.234232 0.705162
vt 0.242670 0.711973
vt 0.802105 0.331624
vt 0.814240 0.352328
vt 0.717736 0.329445
vt 0.737202 0.308713
vt 0.749005 0.315815
vt 0.775134 0.327943
vt 0.819128 0.333928
vt 0.829886 0.333248
vt 0.870663 0.330685
vt 0.878118 0.328200
vt 0.502741 0.348215
vt 0.502246 0.348215
vt 0.502717 0.347997
vt 0.212120 0.130264
vt 0.186168 0.116052
vt 0.221133 0.115010
vt 0.214219 0.126336
vt 0.229154 0.125846
vt 0.232186 0.126710
vt 0.243081 0.114356
vt 0.244502 0.114314
vt 0.243937 0.113350
vt 0.225132 0.108456
vt 0.220176 0.072811
vt 0.234648 0.097502
vt 0.252761 0.089995
vt 0.278189 0.086361
vt 0.248430 0.107823
vt 0.248781 0.103758
vt 0.252142 0.091210
vt 0.275523 0.779521
vt 0.229419 0.789837
vt 0.217125 0.746477
vt 0.549510 0.747140
vt 0.524966 0.770843
vt 0.512529 0.728216
vt 0.915476 0.754288
vt 0.931808 0.749845
vt 0.925282 0.762209
vt 0.552916 0.641496
vt 0.547198 0.689504
vt 0.506561 0.668815
vt 0.557551 0.798213
vt 0.606254 0.663778
vt 0.638137 0.718295
vt 0.587936 0.714946
vt 0.823377 0.749845
vt 0.834503 0.751263
vt 0.821785 0.762317
vt 0.619236 0.620681
vt 0.619693 0.626223
vt 0.615291 0.627061
vt 0.606464 0.764709
vt 0.605975 0.765941
vt 0.596923 0.764559
vt 0.624742 0.625362
vt 0.675545 0.611443
vt 0.673312 0.621425
vt 0.663403 0.619538
vt 0.691041 0.627061
vt 0.683007 0.623796
vt 0.874772 0.776156
vt 0.862004 0.753461
vt 0.337753 0.786278
vt 0.342365 0.804799
vt 0.887831 0.755488
vt 0.910372 0.755568
vt 0.342821 0.053154
vt 0.323465 0.097182
vt 0.307185 0.054046
vt 0.280781 0.745702
vt 0.258552 0.732148
vt 0.258947 0.732561
vt 0.236919 0.714832
vt 0.266200 0.037647
vt 0.207767 0.018467
vt 0.169906 0.050694
vt 0.189472 0.700276
vt 0.215058 0.697059
vt 0.713452 0.269099
vt 0.713452 0.295202
vt 0.703126 0.277787
vt 0.682587 0.285729
vt 0.684135 0.283315
vt 0.700694 0.278837
s 0
usemtl Material.002
f 22/1/1 121/2/1 120/3/1
f 122/4/2 125/5/2 123/6/2 124/7/2
f 125/8/3 123/9/3 22/10/3
f 26/11/4 4/12/4 11/13/4
f 15/14/5 2/15/5 1/16/5
f 14/17/6 19/18/6 7/19/6
f 127/20/7 12/21/7 11/13/7 126/22/7
f 15/23/8 9/24/8 128/25/8 129/26/8
f 9/24/9 8/27/9 131/28/9 130/29/9
f 120/3/10 132/30/10 22/1/10
f 123/31/10 132/32/10 133/33/10 124/34/10
f 22/35/11 123/36/11 132/37/11
f 24/38/12 8/39/12 19/40/12
f 14/17/13 24/41/13 19/18/13
f 12/21/14 13/42/14 25/43/14
f 12/21/15 26/11/15 11/13/15
f 17/44/16 5/45/16 4/46/16
f 18/47/17 5/48/17 17/49/17
f 134/50/18 12/21/18 135/51/18
f 136/52/19 138/53/19 126/54/19 11/55/19 137/56/19 139/57/19
f 10/58/20 21/59/20 141/60/20 140/61/20
f 9/24/21 130/29/21 128/25/21
f 142/62/22 16/63/22 10/58/22 140/61/22
f 135/51/23 12/21/23 127/20/23
f 12/21/24 134/50/24 144/64/24 143/65/24
f 146/66/25 147/67/25 121/2/25 22/1/25 23/68/25 145/69/25 148/70/25
f 14/17/26 7/19/26 13/71/26
f 18/72/27 13/71/27 6/73/27
f 18/47/28 6/74/28 5/48/28
f 15/23/29 1/75/29 9/24/29
f 19/18/30 8/76/30 20/77/30
f 21/59/31 149/78/31 141/60/31
f 21/79/32 10/80/32 15/81/32
f 137/56/33 11/55/33 16/63/33 142/62/33
f 13/42/34 12/21/34 143/65/34 150/82/34 151/83/34 152/84/34
f 14/17/35 13/71/35 153/85/35 154/86/35
f 23/68/36 14/17/36 154/86/36 145/69/36
f 22/87/37 8/39/37 24/38/37
f 19/18/38 20/77/38 7/19/38
f 13/71/39 7/19/39 6/73/39
f 11/55/40 3/88/40 16/63/40
f 11/13/41 4/12/41 3/89/41
f 16/63/42 3/88/42 2/15/42
f 9/24/43 1/75/43 20/90/43
f 8/27/44 9/24/44 20/90/44
f 10/58/45 2/15/45 15/14/45
f 16/63/46 2/15/46 10/58/46
f 17/49/47 4/12/47 26/11/47
f 25/91/48 13/71/48 18/72/48
f 8/39/49 22/87/49 132/92/49 155/93/49
f 122/94/49 133/95/49 132/96/49 125/97/49
f 125/98/50 22/99/50 132/100/50
f 8/101/51 155/102/51 156/103/51 157/104/51
f 157/105/52 131/28/52 8/27/52
f 13/42/53 152/84/53 158/106/53 159/107/53
f 153/108/54 13/42/54 159/107/54
f 149/109/55 21/110/55 160/111/55
f 129/112/56 161/113/56 15/114/56
f 162/115/57 21/79/57 163/116/57
f 164/117/58 21/118/58 162/119/58
f 163/116/59 21/79/59 15/81/59 161/120/59 165/121/59
f 21/122/60 164/123/60 160/124/60
f 28/125/61 167/126/61 166/127/61
f 28/128/62 169/129/62 168/130/62
f 22/87/63 27/131/63 173/132/63 172/133/63 171/134/63 170/135/63
f 22/87/64 24/38/64 27/131/64
f 28/125/65 24/136/65 14/137/65
f 23/138/66 22/139/66 175/140/66 174/141/66
f 14/142/67 176/143/67 177/144/67 178/145/67
f 27/131/68 24/38/68 28/128/68
f 22/139/69 170/146/69 175/140/69
f 27/131/70 179/147/70 173/132/70
f 179/147/71 27/131/71 28/128/71 168/130/71
f 28/128/72 166/148/72 169/129/72
f 28/125/73 14/137/73 178/149/73 167/126/73
f 14/142/74 23/150/74 174/151/74 180/152/74 176/143/74
f 25/43/75 17/49/75 26/11/75
f 1/153/76 2/154/76 20/155/76
f 4/156/77 2/154/77 3/157/77
f 6/158/78 4/156/78 5/159/78
f 7/160/79 20/155/79 6/158/79
f 20/155/80 2/154/80 4/156/80
f 20/155/81 4/156/81 6/158/81
f 12/21/82 25/43/82 26/11/82
f 25/43/83 18/47/83 17/49/83
usemtl Material.001
f 29/161/84 36/162/84 35/163/84
f 36/162/85 38/164/85 30/165/85
f 183/166/86 29/161/86 35/163/86 181/167/86 182/168/86
f 184/169/87 29/161/87 183/166/87
f 185/170/88 39/171/88 29/161/88 184/169/88 186/172/88
f 41/173/89 30/174/89 38/175/89
f 37/176/90 187/177/90 188/178/90
f 44/179/91 31/180/91 40/181/91
f 43/182/92 30/174/92 41/173/92
f 42/183/93 31/180/93 44/179/93
f 189/184/94 45/185/94 47/186/94 190/187/94
f 191/188/95 49/189/95 32/190/95 193/191/95 192/192/95
f 48/193/96 33/194/96 46/195/96
f 194/196/97 34/197/97 48/193/97 49/198/97 196/199/97 197/200/97 195/201/97
f 49/198/98 48/193/98 46/195/98
f 32/202/99 49/203/99 46/204/99
f 49/198/100 198/205/100 196/199/100
f 199/206/100 34/197/100 194/196/100
f 191/188/101 198/207/101 49/189/101
f 34/197/102 199/206/102 200/208/102
f 201/209/103 47/186/103 34/197/103 200/208/103 203/210/103 202/211/103
f 204/212/104 47/186/104 201/209/104
f 47/186/105 204/212/105 190/187/105
f 34/197/106 47/186/106 48/193/106
f 48/193/107 47/186/107 45/185/107
f 48/213/108 45/214/108 33/215/108
f 33/216/109 42/183/109 46/204/109
f 46/204/110 42/183/110 44/179/110
f 32/202/111 46/204/111 44/179/111
f 193/191/112 32/190/112 205/217/112
f 207/218/113 208/219/113 43/220/113 45/221/113 189/222/113 206/223/113
f 45/214/114 43/182/114 41/173/114
f 45/214/115 41/173/115 33/215/115
f 209/224/116 205/225/116 32/202/116 44/179/116 211/226/116 210/227/116
f 44/179/117 40/181/117 212/228/117 211/226/117
f 212/228/118 40/181/118 214/229/118 213/230/118
f 208/219/119 215/231/119 43/220/119
f 37/176/120 43/220/120 215/231/120 217/232/120 216/233/120 187/177/120
f 43/182/121 37/234/121 30/174/121
f 33/215/122 41/173/122 42/235/122
f 41/173/123 38/175/123 42/235/123
f 42/235/124 38/175/124 31/236/124
f 40/237/125 31/238/125 39/171/125
f 40/237/126 39/171/126 185/170/126 218/239/126 219/240/126
f 214/241/127 40/237/127 219/240/127
f 221/242/128 222/243/128 181/167/128 35/163/128 220/244/128
f 223/245/129 220/246/129 35/247/129
f 39/171/130 31/238/130 38/164/130
f 39/171/131 38/164/131 36/162/131
f 39/171/132 36/162/132 29/161/132
f 188/178/133 224/248/133 37/176/133
f 223/245/133 35/247/133 225/249/133 226/250/133
f 35/163/134 36/162/134 37/251/134 224/252/134 227/253/134 225/254/134
f 30/174/135 37/234/135 36/255/135
f 50/256/136 59/257/136 58/258/136
f 216/259/137 217/260/137 51/261/137 59/262/137
f 61/263/138 50/256/138 58/258/138
f 63/264/139 50/256/139 61/263/139
f 226/265/140 50/256/140 63/264/140 221/242/140 220/244/140 223/266/140
f 208/267/141 207/268/141 65/269/141 51/261/141 217/260/141 215/270/141
f 66/271/142 52/272/142 60/273/142
f 68/274/143 53/275/143 62/276/143
f 229/277/144 228/278/144 64/279/144
f 67/280/145 51/261/145 65/269/145
f 69/281/146 52/272/146 66/271/146
f 68/274/147 70/282/147 53/275/147
f 74/283/148 54/284/148 71/285/148
f 76/286/149 55/287/149 72/288/149
f 230/289/150 231/290/150 73/291/150 77/292/150 232/293/150
f 233/294/151 75/295/151 56/296/151 235/297/151 236/298/151 234/299/151
f 239/300/152 57/301/152 75/302/152 237/303/152 238/304/152
f 75/295/153 233/294/153 237/305/153
f 240/306/154 77/307/154 57/301/154 239/300/154 242/308/154 241/309/154
f 77/292/155 240/310/155 243/311/155
f 244/312/156 232/293/156 77/292/156 243/311/156
f 77/307/157 76/313/157 57/301/157
f 76/314/158 77/292/158 73/291/158
f 76/314/159 73/291/159 55/315/159
f 57/301/160 76/313/160 74/283/160
f 76/313/161 72/316/161 74/283/161
f 74/283/162 72/316/162 54/284/162
f 57/301/163 74/283/163 75/302/163
f 75/302/164 74/283/164 71/285/164
f 75/302/165 71/285/165 56/317/165
f 56/296/166 202/318/166 203/319/166 235/297/166
f 73/291/167 231/290/167 245/320/167 70/321/167
f 73/291/168 70/321/168 68/322/168
f 55/315/169 73/291/169 68/322/169
f 55/287/170 69/281/170 72/288/170
f 72/288/171 69/281/171 66/271/171
f 72/288/172 66/271/172 54/323/172
f 71/285/173 54/284/173 67/324/173
f 71/325/174 67/280/174 65/269/174
f 71/285/175 65/326/175 56/317/175
f 70/321/176 245/320/176 247/327/176 246/328/176
f 248/329/177 229/330/177 64/331/177 70/321/177 246/328/177 249/332/177
f 70/333/178 64/279/178 53/334/178
f 55/287/179 68/274/179 69/281/179
f 69/281/180 68/274/180 62/276/180
f 69/281/181 62/276/181 52/272/181
f 54/335/182 66/336/182 67/280/182
f 67/280/183 66/336/183 60/337/183
f 67/280/184 60/337/184 51/261/184
f 201/338/185 202/318/185 56/296/185 65/339/185 206/340/185 189/341/185 190/342/185 204/343/185
f 65/339/186 207/344/186 206/340/186
f 250/345/187 222/243/187 221/242/187 63/264/187 136/346/187 139/347/187
f 63/264/188 138/348/188 136/346/188
f 138/348/189 63/264/189 64/279/189 228/278/189 251/349/189 144/350/189 134/351/189 135/352/189 127/353/189 126/354/189
f 64/279/190 63/264/190 61/263/190
f 64/279/191 61/263/191 53/334/191
f 53/334/192 61/263/192 62/355/192
f 61/263/193 58/258/193 62/355/193
f 52/272/194 62/276/194 58/356/194
f 59/262/195 227/357/195 224/358/195 188/359/195 187/360/195 216/259/195
f 59/257/196 50/256/196 226/265/196 225/254/196 227/253/196
f 52/272/197 58/356/197 60/273/197
f 60/337/198 58/361/198 59/262/198
f 60/337/199 59/262/199 51/261/199
f 78/362/200 182/363/200 181/364/200 222/365/200 250/366/200
f 165/367/201 78/368/201 250/345/201 139/347/201 137/369/201 142/370/201 140/371/201 141/372/201 149/373/201 160/374/201 164/375/201 162/376/201 163/377/201
f 128/378/202 130/379/202 131/380/202 157/381/202 156/382/202 87/383/202 78/368/202 165/367/202 161/384/202 129/385/202
f 87/383/203 86/386/203 78/368/203
f 79/387/204 248/388/204 249/389/204
f 90/390/205 80/391/205 256/392/205 255/393/205 257/394/205 254/395/205 253/396/205 252/397/205
f 92/398/206 81/399/206 88/400/206
f 249/389/207 246/401/207 247/402/207 91/403/207 258/404/207 259/405/207 260/406/207 79/387/207
f 93/407/208 80/408/208 90/409/208
f 92/398/209 89/410/209 81/399/209
f 236/411/210 94/412/210 98/413/210 234/414/210
f 242/415/211 100/416/211 241/417/211
f 95/418/212 101/419/212 82/420/212
f 102/421/213 83/422/213 96/423/213
f 97/424/214 99/425/214 84/426/214
f 102/427/215 85/428/215 99/425/215
f 102/427/216 99/425/216 97/424/216
f 102/429/217 97/430/217 83/431/217
f 102/427/218 101/432/218 85/428/218
f 101/419/219 102/421/219 96/423/219
f 101/419/220 96/423/220 82/420/220
f 101/432/221 100/433/221 85/428/221
f 100/434/222 101/419/222 95/418/222
f 240/435/223 241/417/223 100/416/223 95/436/223 244/437/223 243/438/223
f 85/428/224 100/433/224 98/413/224
f 238/304/225 98/413/225 100/433/225 242/308/225 239/300/225
f 98/413/226 238/304/226 237/303/226 233/439/226 234/414/226
f 85/428/227 98/413/227 99/425/227
f 99/425/228 98/413/228 94/412/228
f 99/425/229 94/412/229 84/426/229
f 84/440/230 89/410/230 97/430/230
f 97/430/231 89/410/231 92/398/231
f 83/431/232 97/430/232 92/398/232
f 96/423/233 83/422/233 93/407/233
f 96/423/234 93/407/234 90/409/234
f 82/420/235 96/423/235 90/409/235
f 95/418/236 82/420/236 91/441/236
f 231/442/237 230/443/237 95/436/237 91/403/237 247/402/237 245/444/237
f 232/445/238 244/437/238 95/436/238 230/443/238
f 195/446/239 94/447/239 236/448/239 235/449/239 203/450/239 200/451/239 199/452/239 194/453/239
f 94/447/240 195/446/240 197/454/240
f 192/455/241 84/456/241 94/447/241 197/454/241 196/457/241 198/458/241 191/459/241
f 83/431/242 92/398/242 93/460/242
f 93/460/243 92/398/243 88/400/243
f 93/460/244 88/400/244 80/461/244
f 91/441/245 82/420/245 90/409/245 263/462/245 264/463/245 265/464/245 261/465/245 262/466/245
f 91/467/246 262/468/246 267/469/246 266/470/246
f 252/397/246 263/471/246 90/390/246
f 258/472/247 91/467/247 266/470/247 268/473/247
f 79/474/247 260/475/247 269/476/247 270/477/247
f 89/478/248 84/456/248 192/455/248 193/479/248 205/480/248 209/481/248
f 209/481/249 210/482/249 89/478/249
f 212/228/250 213/230/250 81/399/250 89/410/250 210/227/250 211/226/250
f 88/483/251 81/484/251 86/386/251
f 88/483/252 86/386/252 87/383/252
f 80/391/253 88/483/253 87/383/253
f 271/485/254 256/392/254 80/391/254 87/383/254 275/486/254 274/487/254 273/488/254 276/489/254 272/490/254
f 125/491/255 120/492/255 121/493/255 147/494/255 278/495/255 275/486/255 87/383/255 156/382/255 155/496/255 132/497/255 123/498/255
f 125/491/256 132/497/256 120/492/256
f 145/499/255 154/500/255 153/501/255 159/502/255 158/503/255 277/504/255 148/505/255
f 132/506/257 123/507/257 125/508/257
f 277/504/258 158/503/258 152/509/258 151/510/258 79/474/258 270/477/258 279/511/258 280/512/258 281/513/258 282/514/258
f 248/388/259 79/387/259 151/83/259 150/82/259 251/515/259 228/516/259 229/517/259
f 251/515/260 150/82/260 143/65/260 144/64/260
f 218/518/261 86/519/261 81/520/261 213/521/261 214/522/261 219/523/261
f 185/524/262 186/525/262 86/519/262 218/518/262
f 182/363/263 78/362/263 86/519/263 186/525/263 184/526/263 183/527/263
f 133/528/264 122/529/264 124/530/264
f 278/495/264 147/494/264 146/531/264 107/532/264 180/533/264 174/534/264 175/535/264 170/536/264 171/537/264 103/538/264
f 171/537/265 172/539/265 103/538/265
f 176/540/265 180/533/265 107/532/265 108/541/265 177/542/265
f 169/543/266 166/127/266 167/126/266 178/149/266 177/542/266 108/541/266 110/544/266 103/538/266 172/539/266 173/545/266 179/546/266 168/547/266
f 110/544/267 273/488/267 274/487/267 103/538/267
f 113/548/268 104/549/268 109/550/268
f 114/551/269 105/552/269 111/553/269
f 271/554/270 272/555/270 112/556/270
f 113/557/271 115/558/271 104/559/271
f 114/551/272 116/560/272 105/552/272
f 117/561/273 119/562/273 106/563/273
f 253/564/274 254/565/274 118/566/274
f 119/567/275 265/568/275 264/569/275
f 252/570/276 253/571/276 118/572/276 119/562/276 264/463/276 263/462/276
f 119/562/277 118/572/277 106/563/277
f 119/567/278 261/573/278 265/568/278
f 261/573/279 119/567/279 117/574/279 267/575/279 262/576/279
f 267/575/280 117/574/280 268/577/280 266/578/280
f 116/579/281 118/566/281 254/565/281 257/580/281
f 118/572/282 116/560/282 114/551/282
f 106/563/283 118/572/283 114/551/283
f 117/561/284 106/563/284 115/558/284
f 117/561/285 115/558/285 113/557/285
f 268/581/286 117/582/286 113/548/286 259/405/286 258/404/286
f 257/580/287 255/583/287 116/579/287
f 112/556/288 116/579/288 255/583/288 256/584/288 271/554/288
f 116/585/289 112/586/289 105/587/289
f 106/563/290 114/551/290 115/558/290
f 115/558/291 114/551/291 111/553/291
f 115/558/292 111/553/292 104/559/292
f 259/405/293 113/548/293 269/588/293 260/406/293
f 269/588/294 113/548/294 109/550/294 279/589/294 270/590/294
f 279/589/295 109/550/295 280/591/295
f 272/490/296 276/489/296 112/586/296
f 273/488/297 110/544/297 112/586/297 276/489/297
f 105/587/298 112/586/298 110/544/298
f 105/587/299 110/544/299 111/592/299
f 111/592/300 110/544/300 108/541/300
f 111/592/301 108/541/301 104/593/301
f 104/593/302 108/541/302 109/594/302
f 108/541/303 107/532/303 109/594/303
f 280/591/304 109/550/304 107/595/304 281/596/304
f 103/538/305 274/487/305 275/486/305 278/495/305
f 281/597/306 107/598/306 282/599/306
f 282/599/307 107/598/307 146/600/307 148/601/307 277/602/307
