# Blender v3.0.1 OBJ File: ''
# www.blender.org
mtllib boar.mtl
o boarS
v 0.739827 -3.753426 0.204958
v -0.164399 -3.753426 0.850606
v 0.890069 -2.442127 0.562298
v -0.139829 -2.669106 1.107187
v 1.405045 -1.317719 -4.129552
v 1.868942 -1.555030 -4.070584
v 1.373826 -1.937410 -4.131147
v 2.044293 -1.889591 -4.025682
v 2.787092 -1.506872 0.894963
v 5.402806 -1.694334 1.049309
v 5.409563 -2.489071 0.198661
v 2.873263 -2.368871 0.279725
v 7.358613 -1.803686 1.423971
v 7.348417 -2.713581 0.715608
v 8.010139 -1.561517 -4.134628
v 8.480959 -1.852666 -4.126393
v 7.999945 -2.134327 -4.138259
v 8.621339 -2.151964 -4.096493
v 2.980250 -3.753426 -0.329382
v 1.838563 -3.753426 -0.181011
v 1.868606 -2.962865 0.134211
v 5.409562 -3.753427 -0.347715
v 7.287544 -3.753427 0.128241
v 10.106562 -2.874990 1.056125
v 10.005091 -3.753427 1.369057
v 8.590120 -3.305254 0.514404
v 8.590532 -3.753427 0.439552
v -0.324082 -1.948589 4.647668
v 0.784229 -1.468441 3.794736
v -0.412621 -1.766006 3.655237
v 0.743362 -1.687942 5.247745
v 3.101644 -1.556103 5.527576
v 0.744651 -2.514512 6.324390
v 3.118345 -2.500426 6.503050
v 5.517731 -1.661916 4.862719
v 5.543875 -2.597804 5.670066
v 7.462608 -1.786170 4.540598
v 7.532905 -2.611073 5.300660
v 9.006151 -1.852097 4.555730
v 9.304952 -2.584059 5.191557
v -0.793551 -2.651800 5.614421
v 0.750437 -3.753428 6.641493
v -0.857522 -3.753428 5.663561
v 3.118345 -3.753428 6.682072
v 5.543875 -3.753428 5.938162
v 7.582305 -3.753428 5.568757
v 9.506338 -3.753428 5.432992
v 1.807369 -1.224486 0.944943
v 2.929630 -1.155954 2.286734
v 0.820407 -1.437431 2.423308
v 0.977604 -1.709067 0.861583
v 5.424875 -1.220772 2.366040
v 7.367479 -1.490175 2.370487
v 10.046624 -1.654638 2.392963
v 9.989030 -1.700980 1.056125
v 8.636103 -1.038102 2.415021
v 8.557886 -1.150898 1.162853
v 3.051124 -1.221134 3.884917
v 5.472414 -1.256241 3.742453
v 7.432774 -1.427328 3.607806
v 9.788452 -1.785187 3.861777
v 8.746960 -1.234895 3.598308
v 10.646290 -2.624191 2.377715
v 10.581745 -3.753427 2.399218
v 10.391947 -2.567915 4.063251
v 10.792513 -3.753428 3.476016
v 10.578156 -3.466073 4.250148
v -0.172546 -2.168974 1.605733
v -0.318837 -1.909248 2.484943
v 1.108294 -1.769936 0.130152
v 1.066931 -2.366647 0.057267
v 1.833984 -2.805261 0.024998
v 2.816064 -2.332316 0.029014
v 2.704700 -1.539418 0.133669
v 1.792799 -1.370484 0.151613
v 1.440858 -2.222758 -1.248959
v 1.165919 -2.326421 -0.252330
v 1.412147 -1.820601 -1.241585
v 1.171923 -1.807450 -0.208097
v 2.717600 -2.300069 -0.316274
v 1.827130 -2.689484 -0.303910
v 2.654431 -1.575776 -0.229088
v 1.795098 -1.399186 -0.188263
v 1.444671 -2.184805 -2.050553
v 1.421103 -1.824054 -2.048264
v 2.328288 -2.160100 -2.016498
v 2.470162 -2.225890 -1.225947
v 1.832793 -2.432671 -2.033298
v 1.869554 -2.484631 -1.191198
v 2.451643 -1.671818 -1.219851
v 2.320693 -1.710149 -2.010402
v 1.838656 -1.500322 -2.030342
v 1.829758 -1.493622 -1.152240
v 1.480987 -2.173615 -2.368274
v 1.460203 -1.807643 -2.366500
v 2.301791 -2.144231 -2.333926
v 1.810995 -2.424669 -2.350489
v 2.303997 -1.713795 -2.327830
v 1.829978 -1.500037 -2.347680
v 0.720044 -1.876108 -4.134382
v 0.809334 -1.647775 -4.133426
v 7.791724 -1.844880 -0.807269
v 7.769389 -2.456011 -0.811929
v 9.214133 -2.543479 -0.774656
v 8.531446 -2.949838 -0.743428
v 9.211624 -1.910809 -0.780029
v 8.530588 -1.619228 -0.764799
v 7.857929 -2.404259 -1.218844
v 7.850305 -1.872738 -1.206400
v 9.182561 -2.504348 -1.224558
v 8.505924 -2.843030 -1.193806
v 9.180053 -1.938667 -1.222146
v 8.545407 -1.660271 -1.186059
v 8.013664 -2.366294 -1.619760
v 7.992066 -1.902466 -1.607316
v 9.139061 -2.465861 -1.628317
v 8.534136 -2.672812 -1.623989
v 9.150063 -1.968395 -1.625906
v 8.582882 -1.723050 -1.616275
v 8.023855 -2.296417 -3.003791
v 8.001673 -1.950741 -2.992738
v 8.664660 -2.344727 -3.053515
v 8.336855 -2.500515 -3.007556
v 8.686539 -1.976016 -3.042750
v 8.374401 -1.771265 -3.000853
v 7.708428 -2.109678 -3.385428
v 7.807559 -1.863278 -3.380373
v 7.800612 -2.393513 -3.392818
v 8.225016 -2.596838 -3.437363
v 8.678957 -2.169430 -3.561207
v 8.606974 -1.923167 -3.546915
v 8.609331 -2.401693 -3.562322
v 8.204364 -1.661619 -3.446244
v 7.329487 -2.067329 -4.158518
v 7.427511 -1.809250 -4.153416
v 1.335176 -2.188766 -3.001275
v 1.311041 -1.790210 -2.999546
v 1.671720 -2.418325 -3.018773
v 2.284369 -2.156945 -3.068969
v 2.269649 -1.707519 -3.062662
v 1.693915 -1.500574 -2.980690
v 1.390249 -2.565296 -4.123560
v 0.839241 -2.319509 -4.135111
v 0.703652 -2.080430 -4.134382
v 1.941847 -2.184954 -4.077102
v 1.128428 -2.283911 -3.302122
v 1.046090 -1.979794 -3.284933
v 1.152657 -1.692737 -3.278492
v 2.010437 -1.625430 -3.480982
v 2.187911 -1.930907 -3.530430
v 2.086787 -2.198137 -3.506773
v 1.540229 -1.397400 -3.361944
v 1.521301 -2.485907 -3.426766
v 8.056679 -2.695079 -4.137741
v 7.415020 -2.447531 -4.165893
v 7.329523 -2.200356 -4.158473
v 8.485851 -2.457612 -4.128838
v 10.961950 -3.753427 -1.150540
v 10.545732 -3.753427 -1.304085
v 10.754011 -3.516505 -0.998121
v 10.755526 -3.753428 4.449006
v 10.988262 -3.520952 3.489388
v 11.160612 -3.753428 3.560398
v 10.795649 -3.753427 2.149578
v 10.964037 -3.638840 2.163678
v 11.085018 -3.753427 2.149514
v 10.629740 -3.753427 0.383031
v 10.757582 -3.623271 0.400224
v 10.902994 -3.753427 0.396853
v -5.105997 -3.381816 1.203057
v -5.222187 -3.389384 1.183595
v -5.147653 -3.027494 1.308024
v -5.258561 -3.039749 1.284138
v -5.093741 -3.753426 1.185492
v -5.220091 -3.753426 1.201745
v -5.529881 -3.322236 2.283623
v -5.459277 -3.124087 2.082484
v -5.650781 -3.329269 2.211215
v -5.581636 -3.139808 2.015414
v -4.331495 -2.858637 2.756655
v -4.867965 -2.967264 2.389166
v -4.407251 -3.283637 2.979657
v -4.936264 -3.337292 2.575771
v -3.512201 -2.784535 3.167226
v -3.641815 -3.218029 3.525202
v -2.691858 -2.524396 3.925823
v -2.927303 -3.048193 4.632473
v -1.596318 -2.063613 4.312188
v -1.764780 -2.727656 5.355072
v -5.526124 -3.753426 2.400744
v -5.677130 -3.753426 2.332978
v -4.424809 -3.753427 3.084701
v -4.960664 -3.753426 2.686873
v -3.661122 -3.753427 3.685735
v -2.919446 -3.753427 4.509368
v -1.757268 -3.753427 5.373881
v -5.233880 -2.898534 1.551276
v -5.340213 -2.895966 1.509814
v -3.950187 -2.694284 1.565087
v -4.418584 -2.906801 1.467789
v -4.059023 -2.594638 1.916460
v -4.590072 -2.742521 1.776909
v -3.091466 -2.519062 1.603641
v -3.200681 -2.395692 2.107146
v -2.151591 -2.314621 1.719128
v -2.247139 -2.217891 2.258296
v -1.126400 -2.286461 1.756782
v -1.228036 -2.069418 2.364802
v -5.377448 -2.905585 1.909174
v -5.486492 -2.922903 1.855800
v -4.205536 -2.647759 2.383955
v -4.748578 -2.779340 2.132364
v -3.375006 -2.314816 2.796609
v -2.465291 -1.878021 3.144045
v -1.401303 -1.681607 3.431166
v -5.431279 -3.357668 1.491519
v -5.500356 -3.753426 1.509668
v -5.584449 -3.335783 1.863582
v -5.666820 -3.753426 1.883597
v -4.270270 -3.045805 1.303905
v -4.470212 -3.345641 1.202615
v -4.587652 -3.334744 1.285520
v -4.652681 -3.753426 1.208768
v -4.538579 -3.753426 1.128705
v -3.897645 -2.948138 1.307370
v -3.873247 -3.302216 1.157678
v -3.849842 -3.753426 1.109313
v -2.993404 -2.764222 1.233923
v -2.914762 -3.259679 1.073382
v -2.882748 -3.753426 1.007550
v -1.967059 -3.227210 1.079108
v -2.020254 -2.698170 1.258938
v -1.964039 -3.753426 1.021790
v -1.050453 -2.732116 1.274374
v -1.019351 -3.304802 1.130704
v -1.007668 -3.753426 1.064762
v -4.988988 -3.040735 1.373142
v -4.948915 -3.394907 1.268268
v -4.931556 -3.753426 1.228557
v -5.343339 -3.336895 2.307642
v -5.284291 -3.095401 2.150810
v -5.345401 -3.753426 2.408592
v -5.078023 -2.920347 1.619559
v -5.220051 -2.922865 1.964693
v -1.184712 -2.577386 5.572213
v -0.664403 -1.884236 4.532033
v -0.572950 -1.943920 5.897282
v -0.429494 -1.482956 4.886176
v -0.656943 -1.895085 5.899880
v -0.555863 -1.435235 4.821126
v -0.492403 -1.064307 5.432888
v -0.527635 -1.119757 5.600831
v -4.323614 -2.852768 1.785753
v -4.106999 -2.838006 2.054824
v -4.296128 -2.469421 1.992393
v -4.112838 -2.537071 2.097747
v -4.165679 -2.889969 1.466674
v -4.227952 -2.329508 1.814044
v -3.786403 -2.879830 1.538569
v -3.907585 -2.302347 1.846902
v -3.822450 -2.792501 1.919915
v -3.891578 -2.412727 2.154007
v -4.312843 -2.201469 2.321122
v -4.159371 -2.316319 2.371971
v -4.231587 -2.079155 2.214471
v -4.045887 -2.028166 2.255038
v -4.006584 -2.205799 2.375392
v -4.248343 -2.009763 2.699169
v -4.588983 -2.822571 1.708338
v -4.466962 -2.785784 1.891149
v -4.622220 -2.572640 1.832975
v -4.504335 -2.594448 1.911059
v -4.468652 -2.834669 1.511847
v -4.584513 -2.479403 1.718244
v -4.232950 -2.786779 1.575894
v -4.385938 -2.427588 1.753985
v -4.284435 -2.728862 1.816971
v -4.365110 -2.454149 1.897064
v -4.677651 -2.398739 2.036749
v -4.570946 -2.454603 2.079557
v -4.671814 -2.287759 1.965403
v -4.510435 -2.256251 2.006164
v -4.485823 -2.368086 2.086341
v -4.676145 -2.263866 2.277949
v -2.850545 -2.198586 2.762120
v -2.691865 -2.167763 2.855580
v -2.830202 -1.989176 2.868267
v -2.712806 -2.007447 2.884221
v -2.831363 -2.208722 2.570023
v -2.843563 -1.911054 2.767965
v -2.630191 -2.168597 2.532450
v -2.680718 -1.867640 2.722567
v -2.581184 -2.120069 2.733099
v -2.612864 -1.889895 2.822927
v -2.797765 -1.843469 3.042210
v -2.701659 -1.890275 3.035622
v -2.819361 -1.750481 2.986254
v -2.682750 -1.724082 2.958198
v -2.634964 -1.817786 3.009721
v -2.708732 -1.730462 3.223640
v 0.890068 -5.064725 0.562296
v -0.139829 -4.837746 1.107185
v 1.373825 -5.569439 -4.131147
v 1.868941 -5.951820 -4.070585
v 1.405045 -6.189133 -4.129554
v 2.044293 -5.617260 -4.025682
v 5.409562 -5.017782 0.198660
v 5.402805 -5.812519 1.049307
v 2.787092 -5.999980 0.894961
v 2.873263 -5.137981 0.279724
v 7.348416 -4.793272 0.510168
v 7.358613 -5.703167 1.371594
v 7.999945 -5.372525 -4.138259
v 8.480959 -5.654184 -4.126393
v 8.010139 -5.945333 -4.134629
v 8.621338 -5.354887 -4.096493
v 1.868605 -4.543987 0.134210
v 8.590120 -4.211821 0.514404
v 10.106562 -4.631864 1.056124
v -0.412621 -5.740848 3.655236
v 0.784229 -6.038414 3.794735
v -0.324082 -5.558266 4.647667
v 0.743361 -5.818913 5.247744
v 3.118345 -5.006430 6.503050
v 0.744651 -4.992343 6.324390
v 3.101644 -5.950751 5.527575
v 5.543875 -4.909051 5.670066
v 5.517730 -5.844940 4.862718
v 7.532904 -4.895782 5.300660
v 7.462608 -5.720685 4.540597
v 9.304952 -4.922798 5.191556
v 9.006150 -5.654758 4.555729
v -0.793551 -4.855054 5.614421
v 2.929629 -6.350900 2.286733
v 1.807369 -6.287280 0.945575
v 0.820407 -6.069422 2.423307
v 0.977603 -5.797786 0.861582
v 5.424874 -6.286082 2.366038
v 7.367479 -6.016679 2.523549
v 8.636101 -6.355411 2.415019
v 9.989029 -5.671160 1.056124
v 10.046623 -5.717503 2.392962
v 8.557885 -6.294499 1.162851
v 3.051123 -6.285719 3.884915
v 5.472413 -6.250612 3.742452
v 7.432773 -6.079526 3.607805
v 8.746960 -6.197129 3.598307
v 9.788452 -5.721668 3.861776
v 10.646290 -4.882663 2.377713
v 10.391946 -4.938941 4.063251
v 10.578156 -4.040782 4.250148
v -0.172547 -5.337878 1.605731
v -0.318838 -5.597604 2.484942
v 1.066930 -5.140205 0.057266
v 1.108293 -5.736917 0.130151
v 1.833983 -4.701591 0.024997
v 2.816063 -5.174537 0.029013
v 2.704699 -5.967434 0.133668
v 1.792799 -6.136369 0.151612
v 1.412146 -5.686252 -1.241586
v 1.165918 -5.180431 -0.252332
v 1.440858 -5.284094 -1.248960
v 1.171923 -5.699402 -0.208098
v 1.827130 -4.817368 -0.303911
v 2.717600 -5.206784 -0.316275
v 2.654430 -5.931077 -0.229090
v 1.795098 -6.107667 -0.188265
v 1.444670 -5.322047 -2.050555
v 1.421102 -5.682796 -2.048265
v 1.832792 -5.074182 -2.033299
v 2.470162 -5.280962 -1.225948
v 2.328288 -5.346753 -2.016499
v 1.869553 -5.022221 -1.191200
v 2.320692 -5.796702 -2.010403
v 2.451643 -5.835034 -1.219852
v 1.829758 -6.013230 -1.152241
v 1.838655 -6.006529 -2.030343
v 1.480986 -5.333237 -2.368275
v 1.460203 -5.699209 -2.366502
v 1.810995 -5.082182 -2.350491
v 2.301791 -5.362620 -2.333927
v 2.303997 -5.793056 -2.327832
v 1.829977 -6.006814 -2.347681
v 0.809334 -5.859076 -4.133428
v 0.720043 -5.630743 -4.134384
v 7.791723 -5.661973 -0.807270
v 7.769388 -5.050842 -0.811930
v 9.214133 -4.963375 -0.774657
v 8.531445 -4.577623 -0.743429
v 9.211624 -5.596045 -0.780031
v 8.530588 -5.887625 -0.764801
v 7.857929 -5.102594 -1.218845
v 7.850304 -5.634115 -1.206401
v 9.182561 -5.002506 -1.224559
v 8.505924 -4.688772 -1.193807
v 9.180052 -5.568187 -1.222148
v 8.545406 -5.846582 -1.186060
v 8.013662 -5.140559 -1.619762
v 7.992066 -5.604387 -1.607317
v 8.534136 -4.834042 -1.623990
v 9.139060 -5.040993 -1.628318
v 9.150063 -5.538459 -1.625907
v 8.582882 -5.783803 -1.616277
v 8.023855 -5.210436 -3.003793
v 8.001673 -5.556111 -2.992739
v 8.336855 -5.006337 -3.007557
v 8.664660 -5.162126 -3.053516
v 8.686539 -5.530837 -3.042751
v 8.374401 -5.735588 -3.000854
v 7.708427 -5.397174 -3.385429
v 7.807559 -5.643575 -3.380374
v 7.800612 -5.113338 -3.392819
v 8.225016 -4.910014 -3.437363
v 8.606973 -5.583684 -3.546917
v 8.678957 -5.337422 -3.561209
v 8.609330 -5.105160 -3.562323
v 8.204363 -5.845233 -3.446245
v 7.427510 -5.697600 -4.153417
v 7.329487 -5.439521 -4.158519
v 1.335176 -5.318085 -3.001276
v 1.311040 -5.716640 -2.999547
v 1.671719 -5.088525 -3.018774
v 2.284369 -5.349905 -3.068970
v 2.269649 -5.799334 -3.062663
v 1.693915 -6.006277 -2.980692
v 0.839241 -5.187343 -4.135111
v 1.390248 -4.941555 -4.123560
v 0.703651 -5.426422 -4.134382
v 1.941846 -5.321897 -4.077102
v 1.046089 -5.527058 -3.284934
v 1.128428 -5.222939 -3.302123
v 1.152657 -5.814115 -3.278494
v 2.187910 -5.575944 -3.530432
v 2.010437 -5.881422 -3.480984
v 2.086787 -5.308714 -3.506775
v 1.540228 -6.109450 -3.361946
v 1.521300 -5.020945 -3.426767
v 7.415019 -5.059320 -4.165893
v 8.056679 -4.811773 -4.137741
v 7.329523 -5.306496 -4.158474
v 8.485851 -5.049241 -4.128838
v 10.754011 -3.990349 -0.998122
v 10.988262 -3.985904 3.489388
v 10.964037 -3.868014 2.163678
v 10.757582 -3.883584 0.400224
v -5.147653 -4.479357 1.308024
v -5.222187 -4.117467 1.183594
v -5.105997 -4.125035 1.203057
v -5.258561 -4.467103 1.284137
v -5.650781 -4.177582 2.211215
v -5.459277 -4.382765 2.082484
v -5.529881 -4.184617 2.283623
v -5.581637 -4.367044 2.015414
v -4.407251 -4.223217 2.979657
v -4.867965 -4.539588 2.389166
v -4.331495 -4.648214 2.756655
v -4.936264 -4.169560 2.575771
v -3.641815 -4.288824 3.525202
v -3.512201 -4.722318 3.167224
v -2.927303 -4.458660 4.632473
v -2.691858 -4.982458 3.925822
v -1.764780 -4.779198 5.355072
v -1.596319 -5.443241 4.312188
v -5.233880 -4.608317 1.551275
v -5.340213 -4.610886 1.509813
v -4.059023 -4.912214 1.916459
v -4.418584 -4.600051 1.467788
v -3.950187 -4.812568 1.565086
v -4.590073 -4.764331 1.776908
v -3.200681 -5.111160 2.107145
v -3.091466 -4.987790 1.603639
v -2.247139 -5.288961 2.258295
v -2.151592 -5.192231 1.719127
v -1.228036 -5.437436 2.364800
v -1.126401 -5.220391 1.756781
v -5.486492 -4.583949 1.855799
v -5.377448 -4.601266 1.909173
v -4.205536 -4.859094 2.383955
v -4.748579 -4.727512 2.132364
v -3.375006 -5.192037 2.796608
v -2.465291 -5.628831 3.144043
v -1.401304 -5.825246 3.431165
v -5.431279 -4.149183 1.491518
v -5.584449 -4.171068 1.863582
v -4.470212 -4.161211 1.202615
v -4.270270 -4.461046 1.303905
v -4.587652 -4.172108 1.285519
v -3.873247 -4.204636 1.157678
v -3.897645 -4.558714 1.307369
v -2.914762 -4.247173 1.073382
v -2.993404 -4.742630 1.233922
v -1.967059 -4.279643 1.079108
v -2.020255 -4.808682 1.258937
v -1.019352 -4.202050 1.130704
v -1.050454 -4.774736 1.274373
v -4.948915 -4.111945 1.268268
v -4.988988 -4.466116 1.373142
v -5.284292 -4.411450 2.150810
v -5.343339 -4.169958 2.307642
v -5.078023 -4.586505 1.619558
v -5.220051 -4.583987 1.964692
v -1.184713 -4.929469 5.572212
v -0.664404 -5.622619 4.532032
v -0.572950 -5.562934 5.897282
v -0.429495 -6.023900 4.886174
v -0.656943 -5.611770 5.899879
v -0.555864 -6.071620 4.821124
v -0.492403 -6.442548 5.432887
v -0.527636 -6.387097 5.600830
v -4.296128 -5.037430 1.992392
v -4.106999 -4.668847 2.054824
v -4.323614 -4.654084 1.785752
v -4.112838 -4.969780 2.097747
v -4.227952 -5.177344 1.814042
v -4.165679 -4.616883 1.466672
v -3.907585 -5.204504 1.846901
v -3.786403 -4.627022 1.538568
v -3.891578 -5.094125 2.154005
v -3.822451 -4.714351 1.919913
v -4.312843 -5.305382 2.321121
v -4.159371 -5.190534 2.371970
v -4.231587 -5.427697 2.214470
v -4.045887 -5.478685 2.255037
v -4.006584 -5.301054 2.375391
v -4.248343 -5.497088 2.699168
v -4.622220 -4.934211 1.832974
v -4.466962 -4.721067 1.891148
v -4.588983 -4.684281 1.708337
v -4.504335 -4.912404 1.911057
v -4.584513 -5.027449 1.718243
v -4.468652 -4.672182 1.511846
v -4.385938 -5.079264 1.753984
v -4.232950 -4.720072 1.575893
v -4.365110 -5.052702 1.897063
v -4.284435 -4.777990 1.816970
v -4.677651 -5.108112 2.036748
v -4.570946 -5.052249 2.079556
v -4.671815 -5.219093 1.965402
v -4.510435 -5.250601 2.006163
v -4.485823 -5.138765 2.086340
v -4.676146 -5.242987 2.277948
v -2.830202 -5.517676 2.868266
v -2.691865 -5.339089 2.855579
v -2.850546 -5.308268 2.762119
v -2.712806 -5.499405 2.884219
v -2.843564 -5.595798 2.767964
v -2.831363 -5.298131 2.570021
v -2.680719 -5.639213 2.722566
v -2.630192 -5.338255 2.532449
v -2.612864 -5.616958 2.822925
v -2.581184 -5.386784 2.733098
v -2.797766 -5.663383 3.042209
v -2.701660 -5.616578 3.035621
v -2.819361 -5.756371 2.986253
v -2.682751 -5.782772 2.958196
v -2.634964 -5.689067 3.009720
v -2.708733 -5.776391 3.223639
vt 0.266063 0.564135
vt 0.244639 0.603375
vt 0.326399 0.617503
vt 0.285755 0.657791
vt 0.796586 0.166292
vt 0.845465 0.258392
vt 0.902291 0.147415
vt 0.906287 0.280109
vt 0.464421 0.657881
vt 0.602730 0.669743
vt 0.607865 0.591445
vt 0.500598 0.580968
vt 0.710525 0.682261
vt 0.690277 0.583724
vt 0.007087 0.517890
vt 0.053462 0.610609
vt 0.099618 0.516759
vt 0.101630 0.635518
vt 0.504459 0.514594
vt 0.491719 0.512316
vt 0.498169 0.527860
vt 0.598350 0.520790
vt 0.655549 0.477318
vt 0.885816 0.671641
vt 0.936826 0.679379
vt 0.914853 0.600497
vt 0.942941 0.601297
vt 0.308886 0.857201
vt 0.366535 0.820176
vt 0.304712 0.810161
vt 0.365027 0.880849
vt 0.474874 0.888208
vt 0.362603 0.927620
vt 0.472269 0.931728
vt 0.601589 0.878119
vt 0.600252 0.928257
vt 0.702231 0.876823
vt 0.700637 0.922471
vt 0.778414 0.874250
vt 0.794047 0.909827
vt 0.292961 0.922411
vt 0.361071 0.977367
vt 0.286532 0.969887
vt 0.471240 0.981291
vt 0.597982 0.977119
vt 0.700384 0.974621
vt 0.809163 0.962300
vt 0.414232 0.652021
vt 0.470656 0.743493
vt 0.367481 0.747506
vt 0.366841 0.648508
vt 0.604199 0.745878
vt 0.706243 0.750326
vt 0.839875 0.759107
vt 0.844554 0.678427
vt 0.772307 0.755167
vt 0.776258 0.680902
vt 0.474276 0.830511
vt 0.602754 0.819961
vt 0.705188 0.819092
vt 0.817566 0.842379
vt 0.770508 0.821292
vt 0.875253 0.762524
vt 0.930285 0.761712
vt 0.857032 0.877761
vt 0.916814 0.840748
vt 0.877568 0.914321
vt 0.300935 0.699062
vt 0.303254 0.750766
vt 0.371935 0.596673
vt 0.341512 0.574746
vt 0.497507 0.536062
vt 0.495220 0.568098
vt 0.457766 0.599088
vt 0.411715 0.598280
vt 0.356054 0.508518
vt 0.347817 0.562097
vt 0.378969 0.512813
vt 0.373383 0.573266
vt 0.484953 0.550697
vt 0.496997 0.519563
vt 0.454020 0.573156
vt 0.411235 0.576594
vt 0.359540 0.459046
vt 0.381963 0.460680
vt 0.458975 0.464317
vt 0.471304 0.508009
vt 0.486086 0.459082
vt 0.494495 0.494626
vt 0.443518 0.513735
vt 0.436182 0.465043
vt 0.411348 0.462495
vt 0.411518 0.514557
vt 0.360065 0.438942
vt 0.384325 0.438020
vt 0.457251 0.443323
vt 0.481795 0.440105
vt 0.436333 0.443198
vt 0.409518 0.441215
vt 0.870546 0.038941
vt 0.836419 0.058463
vt 0.342549 0.441022
vt 0.341478 0.461500
vt 0.334228 0.500483
vt 0.317200 0.533001
vt 0.322086 0.528342
vt 0.314752 0.531692
vt 0.282605 0.507784
vt 0.739642 0.561155
vt 0.712721 0.551616
vt 0.870859 0.549071
vt 0.904036 0.542582
vt 0.828360 0.556404
vt 0.788930 0.560461
vt 0.716389 0.515718
vt 0.746240 0.527216
vt 0.867797 0.523731
vt 0.899353 0.517578
vt 0.830835 0.534011
vt 0.791040 0.533983
vt 0.716849 0.486732
vt 0.751263 0.499328
vt 0.867988 0.503355
vt 0.896460 0.498452
vt 0.832444 0.509189
vt 0.793229 0.506725
vt 0.725228 0.411493
vt 0.762403 0.411046
vt 0.858208 0.421433
vt 0.884243 0.419582
vt 0.829682 0.420504
vt 0.800680 0.417667
vt 0.741363 0.375358
vt 0.763966 0.376369
vt 0.721395 0.374271
vt 0.881330 0.379335
vt 0.698359 0.375042
vt 0.702256 0.409333
vt 0.844549 0.377977
vt 0.828896 0.377510
vt 0.862102 0.377059
vt 0.796661 0.378495
vt 0.089659 0.399277
vt 0.047848 0.416150
vt 0.697973 0.483331
vt 0.697599 0.503831
vt 0.694611 0.535378
vt 0.688951 0.442413
vt 0.653885 0.438483
vt 0.359299 0.401600
vt 0.385443 0.401615
vt 0.345796 0.399720
vt 0.453199 0.403194
vt 0.476766 0.401681
vt 0.430709 0.404158
vt 0.404564 0.404028
vt 0.992681 0.140338
vt 0.942774 0.050946
vt 0.902377 0.032306
vt 0.950317 0.257847
vt 0.357829 0.379796
vt 0.372476 0.380688
vt 0.386237 0.381466
vt 0.425462 0.376649
vt 0.443553 0.374944
vt 0.455692 0.375095
vt 0.404346 0.379123
vt 0.346909 0.377947
vt 0.478701 0.375606
vt 0.386195 0.343453
vt 0.375251 0.343052
vt 0.371442 0.343694
vt 0.425161 0.346257
vt 0.441727 0.347831
vt 0.403554 0.345956
vt 0.356144 0.342405
vt 0.346597 0.341581
vt 0.479474 0.347943
vt 0.456258 0.347583
vt 0.365435 0.342985
vt 0.190110 0.527342
vt 0.150973 0.414660
vt 0.111143 0.399438
vt 0.151161 0.612160
vt 0.693506 0.339745
vt 0.723590 0.332443
vt 0.864036 0.341837
vt 0.881986 0.340745
vt 0.843195 0.343546
vt 0.742585 0.339295
vt 0.738312 0.333059
vt 0.745436 0.333026
vt 0.760495 0.333546
vt 0.831104 0.343536
vt 0.797847 0.338714
vt 0.994144 0.549509
vt 0.957788 0.544497
vt 0.970231 0.557225
vt 0.885885 0.927148
vt 0.937019 0.834915
vt 0.961364 0.822041
vt 0.943947 0.728819
vt 0.961216 0.732701
vt 0.967583 0.730549
vt 0.957869 0.630861
vt 0.968006 0.633053
vt 0.983785 0.634033
vt 0.038624 0.702530
vt 0.027851 0.702234
vt 0.039730 0.714998
vt 0.028275 0.713862
vt 0.037027 0.688870
vt 0.024556 0.688654
vt 0.019259 0.768934
vt 0.023708 0.757931
vt 0.015078 0.767006
vt 0.019365 0.755625
vt 0.093892 0.794640
vt 0.063688 0.775028
vt 0.087052 0.810030
vt 0.056473 0.790719
vt 0.142889 0.819653
vt 0.136573 0.849450
vt 0.194733 0.839526
vt 0.183107 0.885191
vt 0.246996 0.848416
vt 0.238390 0.910949
vt 0.007447 0.788653
vt 0.003993 0.786547
vt 0.077407 0.824412
vt 0.048576 0.802090
vt 0.125159 0.871210
vt 0.173070 0.921301
vt 0.231267 0.952177
vt 0.037831 0.728330
vt 0.028037 0.725879
vt 0.109143 0.724398
vt 0.082644 0.719557
vt 0.105553 0.744868
vt 0.076649 0.739872
vt 0.153301 0.721957
vt 0.151550 0.754766
vt 0.202618 0.724595
vt 0.202401 0.753935
vt 0.254964 0.718105
vt 0.256374 0.752589
vt 0.030347 0.746721
vt 0.024674 0.743577
vt 0.101046 0.771331
vt 0.069873 0.760342
vt 0.149023 0.783331
vt 0.202037 0.794254
vt 0.256655 0.800501
vt 0.671133 0.012078
vt 0.590493 0.016930
vt 0.673444 0.120354
vt 0.589209 0.126413
vt 0.756185 0.045532
vt 0.784245 0.129115
vt 0.674135 0.237316
vt 0.588133 0.242491
vt 0.769902 0.236781
vt 0.674668 0.319828
vt 0.590264 0.334954
vt 0.718045 0.281986
vt 0.089688 0.706979
vt 0.075698 0.697403
vt 0.068772 0.700762
vt 0.062938 0.678731
vt 0.067670 0.676608
vt 0.108081 0.707865
vt 0.105394 0.689931
vt 0.101305 0.668009
vt 0.154541 0.704631
vt 0.151458 0.678650
vt 0.146262 0.653607
vt 0.195241 0.670064
vt 0.202328 0.694334
vt 0.186701 0.644552
vt 0.245742 0.685847
vt 0.231672 0.657335
vt 0.223300 0.633614
vt 0.048215 0.716377
vt 0.048055 0.702384
vt 0.046571 0.684271
vt 0.029067 0.774159
vt 0.036593 0.763166
vt 0.018515 0.790907
vt 0.046735 0.730864
vt 0.042044 0.751631
vt 0.273896 0.921038
vt 0.295538 0.851800
vt 0.320029 0.019973
vt 0.089491 0.092703
vt 0.339850 0.110720
vt 0.138423 0.136159
vt 0.017777 0.374887
vt 0.072864 0.380936
vt 0.141524 0.348606
vt 0.156398 0.377417
vt 0.123748 0.143969
vt 0.014391 0.122151
vt 0.228955 0.213339
vt 0.252825 0.212334
vt 0.226806 0.240150
vt 0.417573 0.046209
vt 0.381454 0.083098
vt 0.441491 0.149733
vt 0.412406 0.177384
vt 0.472355 0.036250
vt 0.477579 0.127863
vt 0.531106 0.038369
vt 0.524788 0.121466
vt 0.578045 0.070103
vt 0.567395 0.142134
vt 0.331478 0.136176
vt 0.380420 0.214727
vt 0.456389 0.240512
vt 0.437513 0.253996
vt 0.485512 0.225357
vt 0.520144 0.222987
vt 0.547469 0.230130
vt 0.416433 0.271860
vt 0.505800 0.307496
vt 0.173351 0.367890
vt 0.200768 0.385116
vt 0.203804 0.325384
vt 0.226853 0.342127
vt 0.292395 0.419489
vt 0.322359 0.420408
vt 0.305966 0.373995
vt 0.325333 0.368302
vt 0.262769 0.411870
vt 0.280050 0.367756
vt 0.228735 0.398755
vt 0.253394 0.358051
vt 0.236921 0.276323
vt 0.252979 0.294998
vt 0.319588 0.313075
vt 0.333332 0.309180
vt 0.297570 0.314217
vt 0.277702 0.310517
vt 0.308359 0.253884
vt 0.173351 0.367890
vt 0.200768 0.385116
vt 0.203804 0.325384
vt 0.226853 0.342127
vt 0.292395 0.419489
vt 0.322359 0.420408
vt 0.305966 0.373995
vt 0.325333 0.368302
vt 0.262769 0.411870
vt 0.280050 0.367756
vt 0.228735 0.398755
vt 0.253394 0.358051
vt 0.236921 0.276323
vt 0.252979 0.294998
vt 0.319588 0.313075
vt 0.333332 0.309180
vt 0.297570 0.314217
vt 0.277702 0.310517
vt 0.308359 0.253884
vt 0.326399 0.617503
vt 0.285755 0.657791
vt 0.902291 0.147415
vt 0.845465 0.258392
vt 0.796586 0.166292
vt 0.906287 0.280109
vt 0.607865 0.591445
vt 0.602730 0.669743
vt 0.464421 0.657881
vt 0.500598 0.580968
vt 0.690277 0.583724
vt 0.710525 0.682261
vt 0.099618 0.516759
vt 0.053462 0.610609
vt 0.007087 0.517890
vt 0.101630 0.635518
vt 0.498169 0.527860
vt 0.914853 0.600497
vt 0.885816 0.671641
vt 0.304712 0.810161
vt 0.366535 0.820176
vt 0.308886 0.857201
vt 0.365027 0.880849
vt 0.472269 0.931728
vt 0.362603 0.927620
vt 0.474874 0.888208
vt 0.600252 0.928257
vt 0.601589 0.878119
vt 0.700637 0.922471
vt 0.702231 0.876823
vt 0.794047 0.909827
vt 0.778414 0.874250
vt 0.292961 0.922411
vt 0.470656 0.743493
vt 0.414232 0.652021
vt 0.367481 0.747506
vt 0.366841 0.648508
vt 0.604199 0.745878
vt 0.706243 0.750326
vt 0.772307 0.755167
vt 0.844554 0.678427
vt 0.839875 0.759107
vt 0.776258 0.680902
vt 0.474276 0.830511
vt 0.602754 0.819961
vt 0.705188 0.819092
vt 0.770508 0.821292
vt 0.817566 0.842379
vt 0.875253 0.762524
vt 0.857032 0.877761
vt 0.877568 0.914321
vt 0.300935 0.699062
vt 0.303254 0.750766
vt 0.341512 0.574746
vt 0.371935 0.596673
vt 0.497507 0.536062
vt 0.495220 0.568098
vt 0.457766 0.599088
vt 0.411715 0.598280
vt 0.378969 0.512813
vt 0.347817 0.562097
vt 0.356054 0.508518
vt 0.373383 0.573266
vt 0.496997 0.519563
vt 0.484953 0.550697
vt 0.454020 0.573156
vt 0.411235 0.576594
vt 0.359540 0.459046
vt 0.381963 0.460680
vt 0.486086 0.459082
vt 0.471304 0.508009
vt 0.458975 0.464317
vt 0.494495 0.494626
vt 0.436182 0.465043
vt 0.443518 0.513735
vt 0.411518 0.514557
vt 0.411348 0.462495
vt 0.360065 0.438942
vt 0.384325 0.438020
vt 0.481795 0.440105
vt 0.457251 0.443323
vt 0.436333 0.443198
vt 0.409518 0.441215
vt 0.836419 0.058463
vt 0.870546 0.038941
vt 0.341478 0.461500
vt 0.342549 0.441022
vt 0.334228 0.500483
vt 0.322086 0.528342
vt 0.317200 0.533001
vt 0.314752 0.531692
vt 0.739642 0.561155
vt 0.712721 0.551616
vt 0.870859 0.549071
vt 0.904036 0.542582
vt 0.828360 0.556404
vt 0.788930 0.560461
vt 0.716389 0.515718
vt 0.746240 0.527216
vt 0.867797 0.523731
vt 0.899353 0.517578
vt 0.830835 0.534011
vt 0.791040 0.533983
vt 0.716849 0.486732
vt 0.751263 0.499328
vt 0.896460 0.498452
vt 0.867988 0.503355
vt 0.832444 0.509189
vt 0.793229 0.506725
vt 0.725228 0.411493
vt 0.762403 0.411046
vt 0.884243 0.419582
vt 0.858208 0.421433
vt 0.829682 0.420504
vt 0.800680 0.417667
vt 0.741363 0.375358
vt 0.763966 0.376369
vt 0.721395 0.374271
vt 0.881330 0.379335
vt 0.702256 0.409333
vt 0.698359 0.375042
vt 0.828896 0.377510
vt 0.844549 0.377977
vt 0.862102 0.377059
vt 0.796661 0.378495
vt 0.047848 0.416150
vt 0.089659 0.399277
vt 0.697973 0.483331
vt 0.697599 0.503831
vt 0.694611 0.535378
vt 0.688951 0.442413
vt 0.359299 0.401600
vt 0.385443 0.401615
vt 0.345796 0.399720
vt 0.453199 0.403194
vt 0.476766 0.401681
vt 0.430709 0.404158
vt 0.404564 0.404028
vt 0.942774 0.050946
vt 0.992681 0.140338
vt 0.902377 0.032306
vt 0.950317 0.257847
vt 0.372476 0.380688
vt 0.357829 0.379796
vt 0.386237 0.381466
vt 0.443553 0.374944
vt 0.425462 0.376649
vt 0.455692 0.375095
vt 0.404346 0.379123
vt 0.346909 0.377947
vt 0.478701 0.375606
vt 0.375251 0.343052
vt 0.386195 0.343453
vt 0.371442 0.343694
vt 0.441727 0.347831
vt 0.425161 0.346257
vt 0.403554 0.345956
vt 0.346597 0.341581
vt 0.356144 0.342405
vt 0.456258 0.347583
vt 0.479474 0.347943
vt 0.365435 0.342985
vt 0.150973 0.414660
vt 0.190110 0.527342
vt 0.111143 0.399438
vt 0.151161 0.612160
vt 0.693506 0.339745
vt 0.723590 0.332443
vt 0.864036 0.341837
vt 0.881986 0.340745
vt 0.843195 0.343546
vt 0.738312 0.333059
vt 0.742585 0.339295
vt 0.745436 0.333026
vt 0.760495 0.333546
vt 0.831104 0.343536
vt 0.797847 0.338714
vt 0.970231 0.557225
vt 0.937019 0.834915
vt 0.961216 0.732701
vt 0.968006 0.633053
vt 0.039730 0.714998
vt 0.027851 0.702234
vt 0.038624 0.702530
vt 0.028275 0.713862
vt 0.015078 0.767006
vt 0.023708 0.757931
vt 0.019259 0.768934
vt 0.019365 0.755625
vt 0.087052 0.810030
vt 0.063688 0.775028
vt 0.093892 0.794640
vt 0.056473 0.790719
vt 0.136573 0.849450
vt 0.142889 0.819653
vt 0.183107 0.885191
vt 0.194733 0.839526
vt 0.238390 0.910949
vt 0.246996 0.848416
vt 0.037831 0.728330
vt 0.028037 0.725879
vt 0.105553 0.744868
vt 0.082644 0.719557
vt 0.109143 0.724398
vt 0.076649 0.739872
vt 0.151550 0.754766
vt 0.153301 0.721957
vt 0.202401 0.753935
vt 0.202618 0.724595
vt 0.256374 0.752589
vt 0.254964 0.718105
vt 0.024674 0.743577
vt 0.030347 0.746721
vt 0.101046 0.771331
vt 0.069873 0.760342
vt 0.149023 0.783331
vt 0.202037 0.794254
vt 0.256655 0.800501
vt 0.673444 0.120354
vt 0.671133 0.012078
vt 0.784245 0.129115
vt 0.756185 0.045532
vt 0.674135 0.237316
vt 0.769902 0.236781
vt 0.674668 0.319828
vt 0.718045 0.281986
vt 0.075698 0.697403
vt 0.089688 0.706979
vt 0.068772 0.700762
vt 0.105394 0.689931
vt 0.108081 0.707865
vt 0.151458 0.678650
vt 0.154541 0.704631
vt 0.195241 0.670064
vt 0.202328 0.694334
vt 0.231672 0.657335
vt 0.245742 0.685847
vt 0.048055 0.702384
vt 0.048215 0.716377
vt 0.036593 0.763166
vt 0.029067 0.774159
vt 0.046735 0.730864
vt 0.042044 0.751631
vt 0.273896 0.921038
vt 0.295538 0.851800
vt 0.339850 0.110720
vt 0.089491 0.092703
vt 0.320029 0.019973
vt 0.138423 0.136159
vt 0.141524 0.348606
vt 0.072864 0.380936
vt 0.017777 0.374887
vt 0.156398 0.377417
vt 0.123748 0.143969
vt 0.014391 0.122151
vt 0.228955 0.213339
vt 0.252825 0.212334
vt 0.226806 0.240150
vt 0.441491 0.149733
vt 0.381454 0.083098
vt 0.417573 0.046209
vt 0.412406 0.177384
vt 0.477579 0.127863
vt 0.472355 0.036250
vt 0.524788 0.121466
vt 0.531106 0.038369
vt 0.567395 0.142134
vt 0.578045 0.070103
vt 0.331478 0.136176
vt 0.380420 0.214727
vt 0.456389 0.240512
vt 0.437513 0.253996
vt 0.485512 0.225357
vt 0.520144 0.222987
vt 0.547469 0.230130
vt 0.416433 0.271860
vt 0.505800 0.307496
vt 0.203804 0.325384
vt 0.200768 0.385116
vt 0.173351 0.367890
vt 0.226853 0.342127
vt 0.305966 0.373995
vt 0.322359 0.420408
vt 0.292395 0.419489
vt 0.325333 0.368302
vt 0.280050 0.367756
vt 0.262769 0.411870
vt 0.253394 0.358051
vt 0.228735 0.398755
vt 0.236921 0.276323
vt 0.252979 0.294998
vt 0.319588 0.313075
vt 0.333332 0.309180
vt 0.297570 0.314217
vt 0.277702 0.310517
vt 0.308359 0.253884
vt 0.203804 0.325384
vt 0.200768 0.385116
vt 0.173351 0.367890
vt 0.226853 0.342127
vt 0.305966 0.373995
vt 0.322359 0.420408
vt 0.292395 0.419489
vt 0.325333 0.368302
vt 0.280050 0.367756
vt 0.262769 0.411870
vt 0.253394 0.358051
vt 0.228735 0.398755
vt 0.236921 0.276323
vt 0.252979 0.294998
vt 0.319588 0.313075
vt 0.333332 0.309180
vt 0.297570 0.314217
vt 0.277702 0.310517
vt 0.308359 0.253884
vn -0.4591 0.0000 -0.8884
vn -0.3929 0.0000 -0.9196
vn -0.6837 0.1370 -0.7168
vn -0.3893 0.4210 -0.8193
vn -0.0264 0.8105 -0.5851
vn 0.5478 0.5323 -0.6454
vn 0.0057 -0.0027 -1.0000
vn 0.7474 0.0882 -0.6584
vn 0.2950 0.8852 -0.3598
vn 0.1119 0.8491 -0.5162
vn 0.1370 0.5449 -0.8272
vn 0.4619 0.2305 -0.8565
vn -0.2847 0.8650 -0.4131
vn -0.3460 0.2919 -0.8917
vn 0.0063 0.8312 -0.5559
vn 0.5501 0.4833 -0.6810
vn 0.0166 0.2013 -0.9794
vn 0.7737 0.0016 -0.6336
vn -0.0646 0.0000 -0.9979
vn -0.1994 0.0000 -0.9799
vn -0.1338 0.0404 -0.9902
vn 0.1177 0.0117 -0.9930
vn 0.2064 0.0744 -0.9756
vn 0.8119 -0.2127 -0.5437
vn 0.7136 -0.0003 -0.7005
vn 0.2644 -0.4443 -0.8560
vn 0.3904 0.0017 -0.9206
vn 0.2016 0.9763 0.0783
vn -0.2041 0.9765 0.0696
vn -0.0723 0.9969 0.0294
vn -0.2301 0.8955 0.3810
vn 0.0556 0.8733 0.4839
vn -0.2324 0.5109 0.8276
vn 0.1109 0.4450 0.8886
vn 0.1390 0.8329 0.5356
vn 0.2286 0.4535 0.8614
vn 0.0620 0.8200 0.5690
vn 0.1128 0.4688 0.8761
vn 0.2119 0.7598 0.6147
vn 0.3509 0.4563 0.8177
vn -0.1202 0.0847 0.9891
vn -0.2406 -0.0000 0.9706
vn -0.3932 -0.0000 0.9195
vn 0.1179 0.0000 0.9930
vn 0.2531 -0.0000 0.9674
vn 0.1260 -0.0000 0.9920
vn 0.4214 -0.0000 0.9069
vn -0.1237 0.9811 -0.1489
vn -0.0031 0.9973 -0.0731
vn -0.3039 0.9505 -0.0651
vn -0.6259 0.7106 -0.3212
vn 0.0746 0.9836 -0.1643
vn -0.1332 0.9788 -0.1555
vn 0.6548 0.7546 0.0427
vn 0.7431 0.6106 -0.2739
vn 0.0510 0.9986 0.0127
vn -0.0673 0.9805 -0.1844
vn -0.0277 0.9914 0.1275
vn 0.0647 0.9805 0.1853
vn -0.0421 0.9804 0.1926
vn 0.5547 0.7532 0.3536
vn 0.1446 0.9429 0.3000
vn 0.9626 0.2403 -0.1252
vn 0.9528 0.0000 -0.3036
vn 0.8081 0.4343 0.3979
vn 0.6848 0.0000 -0.7287
vn 0.7284 0.5215 0.4443
vn -0.3662 0.8039 -0.4687
vn -0.2118 0.9480 -0.2377
vn -0.8146 0.5408 -0.2097
vn -0.8368 -0.4350 -0.3326
vn -0.0980 -0.8090 -0.5796
vn 0.8549 -0.4435 -0.2692
vn 0.7026 0.6984 -0.1362
vn -0.1593 0.9799 -0.1202
vn -0.8340 -0.5304 -0.1519
vn -0.8310 -0.4709 -0.2962
vn -0.8946 0.4304 -0.1201
vn -0.8527 0.4760 -0.2151
vn 0.8299 -0.4902 -0.2665
vn -0.0563 -0.9597 -0.2754
vn 0.7229 0.6644 -0.1897
vn -0.1835 0.9775 -0.1042
vn -0.8691 -0.4909 -0.0604
vn -0.9177 0.3945 -0.0459
vn 0.8541 -0.4996 -0.1443
vn 0.8205 -0.5294 -0.2155
vn -0.0344 -0.9975 -0.0612
vn -0.0521 -0.9873 -0.1501
vn 0.7616 0.6170 -0.1983
vn 0.8142 0.5737 -0.0887
vn -0.1163 0.9932 -0.0045
vn -0.1780 0.9795 -0.0944
vn -0.8714 -0.4889 0.0409
vn -0.9055 0.4184 0.0705
vn 0.8651 -0.4984 -0.0573
vn -0.0445 -0.9990 -0.0073
vn 0.8385 0.5431 -0.0442
vn -0.1053 0.9942 0.0228
vn -0.8057 -0.3717 -0.4612
vn -0.6742 0.5291 -0.5153
vn -0.7640 0.6198 -0.1792
vn -0.8527 -0.4454 -0.2729
vn 0.8119 -0.5130 -0.2786
vn -0.0144 -0.9670 -0.2544
vn 0.7823 0.5667 -0.2585
vn 0.0198 0.9888 -0.1481
vn -0.8466 -0.4409 -0.2982
vn -0.7918 0.5638 -0.2348
vn 0.8378 -0.5247 -0.1510
vn -0.0750 -0.9524 -0.2956
vn 0.8301 0.5489 -0.0980
vn 0.0507 0.9916 -0.1186
vn -0.8313 -0.5197 -0.1973
vn -0.7856 0.5954 -0.1681
vn 0.7986 -0.5611 -0.2176
vn -0.0594 -0.9711 -0.2311
vn 0.8422 0.5080 -0.1807
vn 0.0818 0.9923 -0.0930
vn -0.7938 -0.5397 0.2804
vn -0.7964 0.5245 0.3010
vn 0.8120 -0.5692 -0.1288
vn -0.0491 -0.9977 0.0471
vn 0.8662 0.4755 -0.1535
vn 0.1063 0.9936 0.0381
vn -0.8614 0.1558 0.4835
vn -0.6480 0.6440 0.4067
vn -0.6448 -0.6334 0.4278
vn 0.0215 -0.9823 0.1861
vn 0.9945 -0.0198 -0.1028
vn 0.7935 0.6050 -0.0658
vn 0.7709 -0.6338 -0.0626
vn 0.0748 0.9821 0.1730
vn -0.8197 0.3244 -0.4721
vn -0.6618 0.5736 -0.4828
vn -0.7454 -0.5151 0.4231
vn -0.7933 0.4142 0.4462
vn -0.0624 -0.9944 0.0853
vn 0.8469 -0.5166 -0.1256
vn 0.8153 0.5659 -0.1227
vn -0.1084 0.9851 0.1334
vn 0.0458 -0.8189 -0.5721
vn -0.5859 -0.5999 -0.5449
vn -0.8394 0.2912 -0.4590
vn 0.5791 -0.4227 -0.6971
vn -0.6437 -0.6282 0.4370
vn -0.8746 0.0182 0.4844
vn -0.6937 0.5702 0.4402
vn 0.6267 0.7707 -0.1153
vn 0.9546 0.0676 -0.2901
vn 0.6880 -0.6970 -0.2021
vn -0.0732 0.9714 0.2258
vn 0.0180 -0.9897 0.1419
vn 0.0090 -0.8274 -0.5615
vn -0.6628 -0.5639 -0.4926
vn -0.8174 0.3877 -0.4260
vn 0.5504 -0.4977 -0.6703
vn -0.0993 -0.9950 -0.0059
vn 0.8309 -0.0000 -0.5564
vn -0.5874 -0.0000 -0.8093
vn 0.0054 0.9849 -0.1732
vn 0.7742 -0.0000 0.6329
vn 0.1541 0.9874 -0.0359
vn 0.9814 0.0000 0.1918
vn -1.0000 0.0000 0.0048
vn 0.1019 0.9939 -0.0424
vn 0.9969 0.0000 -0.0789
vn -0.9966 0.0000 0.0827
vn -0.0586 0.9977 0.0335
vn 0.9994 0.0000 -0.0346
vn 0.2603 0.1643 -0.9514
vn -0.3736 0.0989 -0.9223
vn 0.2189 0.6544 -0.7237
vn -0.4607 0.4626 -0.7575
vn 0.0886 0.0000 -0.9961
vn -0.4714 0.0000 -0.8819
vn -0.3064 0.4830 0.8202
vn -0.3685 0.7063 0.6044
vn -0.8270 0.4066 0.3882
vn -0.8350 0.5151 0.1937
vn -0.4454 0.7004 0.5577
vn -0.5049 0.6523 0.5653
vn -0.5827 0.3360 0.7400
vn -0.5633 0.3485 0.7492
vn -0.5511 0.6473 0.5266
vn -0.6645 0.3981 0.6324
vn -0.5224 0.7389 0.4257
vn -0.6929 0.3303 0.6409
vn -0.3434 0.8427 0.4146
vn -0.4688 0.4560 0.7565
vn -0.2308 0.0000 0.9730
vn -0.8161 0.0000 0.5779
vn -0.6150 0.0000 0.7885
vn -0.5914 -0.0000 0.8064
vn -0.6836 0.0000 0.7299
vn -0.7212 -0.0000 0.6927
vn -0.4385 -0.0000 0.8987
vn 0.1354 0.9725 -0.1893
vn -0.4600 0.7933 -0.3988
vn -0.2133 0.8365 -0.5047
vn -0.1717 0.7201 -0.6723
vn -0.2450 0.9493 -0.1972
vn -0.2102 0.9404 -0.2673
vn -0.1464 0.8937 -0.4241
vn -0.1871 0.9502 -0.2494
vn -0.0847 0.8981 -0.4315
vn -0.1214 0.9482 -0.2934
vn -0.0828 0.8570 -0.5086
vn -0.0949 0.9360 -0.3391
vn -0.1761 0.9071 0.3824
vn -0.6876 0.7237 0.0590
vn -0.3564 0.9089 0.2163
vn -0.3446 0.9218 0.1774
vn -0.4840 0.8498 0.2086
vn -0.3259 0.9437 0.0562
vn -0.1145 0.9934 0.0065
vn -0.8580 0.1407 -0.4940
vn -0.8471 -0.0000 -0.5314
vn -0.9370 0.1812 -0.2985
vn -0.9694 -0.0000 -0.2454
vn -0.2063 0.5210 -0.8282
vn -0.3234 0.3339 -0.8854
vn -0.2395 0.3375 -0.9104
vn -0.2978 0.0000 -0.9546
vn -0.3442 -0.0000 -0.9389
vn -0.1557 0.5435 -0.8248
vn -0.0953 0.2461 -0.9645
vn -0.0679 0.0000 -0.9977
vn -0.0905 0.5806 -0.8091
vn -0.0446 0.2139 -0.9758
vn -0.0381 0.0000 -0.9993
vn 0.0244 0.2147 -0.9764
vn 0.0030 0.5678 -0.8232
vn 0.0257 0.0000 -0.9997
vn -0.0783 0.5071 -0.8583
vn -0.0721 0.1981 -0.9775
vn -0.0984 0.0000 -0.9952
vn 0.1357 0.6537 -0.7445
vn 0.1828 0.2031 -0.9620
vn 0.0902 0.0000 -0.9959
vn -0.2915 0.4164 0.8612
vn -0.4065 0.6689 0.6224
vn -0.3294 -0.0000 0.9442
vn -0.0255 0.9731 -0.2290
vn -0.2424 0.9199 0.3082
vn -0.4700 0.3425 0.8135
vn -0.2411 0.9698 -0.0383
vn 0.5867 -0.1580 0.7943
vn 0.8545 0.4206 -0.3049
vn -0.4636 0.2543 0.8488
vn -0.2901 0.7542 -0.5891
vn 0.1702 0.9845 0.0429
vn -0.0314 0.7698 0.6375
vn -0.9977 0.0296 -0.0611
vn -0.1936 -0.2197 0.9562
vn -0.9722 -0.0882 0.2168
vn -0.1883 -0.5058 0.8419
vn -0.3021 0.4546 -0.8379
vn -0.5480 0.5776 -0.6050
vn 0.5699 0.4715 -0.6729
vn 0.6155 0.6324 -0.4703
vn 0.8938 -0.0220 0.4478
vn 0.8326 -0.1623 0.5296
vn -0.9844 -0.1136 0.1343
vn -0.1380 -0.7435 0.6544
vn -0.5627 0.7488 -0.3501
vn 0.4820 0.8683 -0.1169
vn 0.8242 -0.0883 0.5594
vn -0.2296 0.3753 0.8980
vn -0.9812 -0.1367 -0.1359
vn -0.2306 -0.2242 0.9469
vn -0.9485 -0.2839 0.1406
vn -0.0577 -0.4399 0.8962
vn -0.3045 0.3772 -0.8746
vn -0.5659 0.4372 -0.6990
vn 0.5401 0.5268 -0.6563
vn 0.4946 0.7030 -0.5111
vn 0.8245 0.1155 0.5540
vn 0.8866 0.1752 0.4281
vn -0.9008 -0.4046 0.1579
vn -0.0064 -0.7607 0.6491
vn -0.6854 0.6303 -0.3646
vn 0.4312 0.9010 -0.0467
vn 0.7694 -0.0493 0.6368
vn -0.3339 0.3222 0.8858
vn -0.9427 -0.1367 0.3044
vn 0.2041 -0.2242 0.9529
vn -0.7929 -0.2839 0.5391
vn 0.3378 -0.4399 0.8321
vn -0.6546 0.3772 -0.6552
vn -0.8136 0.4372 -0.3833
vn 0.2009 0.5268 -0.8259
vn 0.2231 0.7030 -0.6753
vn 0.9833 0.1155 0.1403
vn 0.9845 0.1752 -0.0001
vn -0.7425 -0.4046 0.5339
vn 0.2765 -0.7607 0.5873
vn -0.7758 0.6303 -0.0302
vn 0.3680 0.9010 -0.2296
vn 0.9698 -0.0493 0.2388
vn 0.0846 0.3222 0.9429
vn -0.6837 -0.1370 -0.7168
vn -0.3893 -0.4210 -0.8193
vn 0.0057 0.0027 -1.0000
vn 0.5478 -0.5323 -0.6454
vn -0.0263 -0.8105 -0.5851
vn 0.7474 -0.0882 -0.6584
vn 0.1046 -0.5556 -0.8248
vn 0.1096 -0.8523 -0.5114
vn 0.2964 -0.8844 -0.3604
vn 0.4619 -0.2305 -0.8565
vn -0.3576 -0.2399 -0.9025
vn -0.2689 -0.8896 -0.3691
vn 0.0166 -0.2013 -0.9794
vn 0.5501 -0.4833 -0.6810
vn 0.0063 -0.8312 -0.5559
vn 0.7737 -0.0016 -0.6336
vn -0.1338 -0.0404 -0.9902
vn 0.2890 0.4533 -0.8432
vn 0.8123 0.2085 -0.5447
vn -0.0723 -0.9969 0.0294
vn -0.2041 -0.9765 0.0696
vn 0.2016 -0.9763 0.0783
vn -0.2301 -0.8955 0.3810
vn 0.1109 -0.4450 0.8886
vn -0.2324 -0.5109 0.8276
vn 0.0556 -0.8733 0.4839
vn 0.2286 -0.4535 0.8614
vn 0.1390 -0.8329 0.5356
vn 0.1128 -0.4688 0.8761
vn 0.0697 -0.8238 0.5626
vn 0.3509 -0.4563 0.8177
vn 0.2060 -0.7741 0.5987
vn -0.1202 -0.0847 0.9891
vn -0.0026 -0.9974 -0.0727
vn -0.1235 -0.9808 -0.1508
vn -0.3043 -0.9504 -0.0646
vn -0.6270 -0.7095 -0.3217
vn 0.0818 -0.9824 -0.1682
vn -0.0921 -0.9865 -0.1351
vn 0.0973 -0.9952 0.0120
vn 0.7542 -0.6020 -0.2624
vn 0.6375 -0.7701 0.0224
vn -0.0192 -0.9879 -0.1541
vn -0.0277 -0.9914 0.1275
vn 0.0647 -0.9805 0.1853
vn -0.0105 -0.9827 0.1848
vn 0.1549 -0.9539 0.2572
vn 0.5484 -0.7756 0.3127
vn 0.9543 -0.2716 -0.1250
vn 0.8080 -0.4415 0.3902
vn 0.7284 -0.5215 0.4443
vn -0.3662 -0.8039 -0.4687
vn -0.2118 -0.9480 -0.2377
vn -0.8368 0.4350 -0.3326
vn -0.8146 -0.5408 -0.2097
vn -0.0980 0.8090 -0.5796
vn 0.8549 0.4435 -0.2692
vn 0.7026 -0.6984 -0.1362
vn -0.1593 -0.9797 -0.1219
vn -0.8946 -0.4304 -0.1201
vn -0.8310 0.4709 -0.2962
vn -0.8340 0.5304 -0.1519
vn -0.8527 -0.4760 -0.2151
vn -0.0563 0.9597 -0.2754
vn 0.8299 0.4902 -0.2665
vn 0.7229 -0.6644 -0.1897
vn -0.1835 -0.9775 -0.1042
vn -0.8691 0.4909 -0.0604
vn -0.9177 -0.3945 -0.0459
vn -0.0344 0.9975 -0.0612
vn 0.8205 0.5294 -0.2155
vn 0.8541 0.4996 -0.1443
vn -0.0521 0.9873 -0.1501
vn 0.8142 -0.5737 -0.0887
vn 0.7616 -0.6170 -0.1983
vn -0.1780 -0.9795 -0.0944
vn -0.1163 -0.9932 -0.0045
vn -0.8714 0.4889 0.0409
vn -0.9055 -0.4184 0.0705
vn -0.0445 0.9990 -0.0073
vn 0.8650 0.4984 -0.0573
vn 0.8385 -0.5431 -0.0442
vn -0.1053 -0.9942 0.0228
vn -0.6742 -0.5291 -0.5153
vn -0.8057 0.3717 -0.4612
vn -0.7591 -0.6237 -0.1862
vn -0.8411 0.4517 -0.2974
vn 0.8060 0.5209 -0.2810
vn -0.0120 0.9642 -0.2650
vn 0.7806 -0.5793 -0.2348
vn 0.0306 -0.9907 -0.1325
vn -0.8430 0.4500 -0.2947
vn -0.7918 -0.5638 -0.2348
vn 0.8332 0.5328 -0.1478
vn -0.0782 0.9574 -0.2780
vn 0.8301 -0.5489 -0.0980
vn 0.0507 -0.9916 -0.1186
vn -0.8313 0.5197 -0.1973
vn -0.7856 -0.5954 -0.1681
vn -0.0598 0.9753 -0.2127
vn 0.7986 0.5611 -0.2176
vn 0.8422 -0.5080 -0.1807
vn 0.0818 -0.9923 -0.0930
vn -0.7938 0.5397 0.2804
vn -0.7964 -0.5245 0.3010
vn -0.0491 0.9977 0.0471
vn 0.8120 0.5692 -0.1288
vn 0.8662 -0.4755 -0.1535
vn 0.1063 -0.9936 0.0381
vn -0.8614 -0.1558 0.4835
vn -0.6480 -0.6440 0.4067
vn -0.6448 0.6334 0.4278
vn 0.0215 0.9823 0.1861
vn 0.7935 -0.6050 -0.0658
vn 0.9945 0.0198 -0.1028
vn 0.7709 0.6338 -0.0626
vn 0.0748 -0.9821 0.1730
vn -0.6618 -0.5736 -0.4828
vn -0.8197 -0.3244 -0.4721
vn -0.7454 0.5151 0.4231
vn -0.7933 -0.4142 0.4462
vn -0.0624 0.9944 0.0853
vn 0.8469 0.5166 -0.1256
vn 0.8153 -0.5659 -0.1227
vn -0.1084 -0.9851 0.1334
vn -0.5859 0.5999 -0.5449
vn 0.0458 0.8189 -0.5721
vn -0.8394 -0.2912 -0.4590
vn 0.5791 0.4227 -0.6971
vn -0.8746 -0.0182 0.4844
vn -0.6437 0.6282 0.4370
vn -0.6937 -0.5702 0.4402
vn 0.9546 -0.0676 -0.2901
vn 0.6267 -0.7707 -0.1153
vn 0.6880 0.6970 -0.2021
vn -0.0732 -0.9714 0.2258
vn 0.0180 0.9897 0.1419
vn -0.6628 0.5639 -0.4926
vn 0.0090 0.8274 -0.5615
vn -0.8174 -0.3877 -0.4260
vn 0.5504 0.4977 -0.6703
vn -0.0993 0.9950 -0.0059
vn 0.0054 -0.9849 -0.1732
vn 0.1541 -0.9874 -0.0359
vn 0.1019 -0.9939 -0.0424
vn -0.0586 -0.9977 0.0335
vn 0.2189 -0.6544 -0.7237
vn -0.3736 -0.0989 -0.9223
vn 0.2603 -0.1643 -0.9514
vn -0.4607 -0.4626 -0.7575
vn -0.8270 -0.4066 0.3882
vn -0.3685 -0.7063 0.6044
vn -0.3064 -0.4830 0.8202
vn -0.8350 -0.5151 0.1937
vn -0.5827 -0.3360 0.7400
vn -0.5049 -0.6523 0.5653
vn -0.4454 -0.7004 0.5577
vn -0.5633 -0.3485 0.7492
vn -0.6645 -0.3981 0.6324
vn -0.5511 -0.6473 0.5266
vn -0.6929 -0.3303 0.6409
vn -0.5224 -0.7389 0.4257
vn -0.4688 -0.4560 0.7565
vn -0.3434 -0.8427 0.4146
vn 0.1355 -0.9725 -0.1893
vn -0.4600 -0.7933 -0.3988
vn -0.2450 -0.9493 -0.1972
vn -0.1717 -0.7201 -0.6723
vn -0.2133 -0.8365 -0.5047
vn -0.2102 -0.9404 -0.2673
vn -0.1871 -0.9502 -0.2494
vn -0.1464 -0.8937 -0.4241
vn -0.1214 -0.9482 -0.2934
vn -0.0847 -0.8981 -0.4315
vn -0.0949 -0.9360 -0.3391
vn -0.0828 -0.8570 -0.5086
vn -0.6875 -0.7237 0.0590
vn -0.1761 -0.9071 0.3824
vn -0.3564 -0.9089 0.2163
vn -0.3446 -0.9218 0.1774
vn -0.4840 -0.8498 0.2086
vn -0.3259 -0.9437 0.0562
vn -0.1145 -0.9934 0.0065
vn -0.8580 -0.1407 -0.4940
vn -0.9370 -0.1812 -0.2985
vn -0.3234 -0.3339 -0.8854
vn -0.2063 -0.5210 -0.8282
vn -0.2395 -0.3375 -0.9104
vn -0.0953 -0.2461 -0.9645
vn -0.1557 -0.5435 -0.8248
vn -0.0446 -0.2139 -0.9758
vn -0.0905 -0.5806 -0.8091
vn 0.0244 -0.2147 -0.9764
vn 0.0030 -0.5678 -0.8232
vn -0.0721 -0.1981 -0.9775
vn -0.0783 -0.5071 -0.8583
vn 0.1828 -0.2031 -0.9620
vn 0.1357 -0.6536 -0.7445
vn -0.4065 -0.6689 0.6224
vn -0.2915 -0.4164 0.8612
vn -0.0255 -0.9731 -0.2290
vn -0.2424 -0.9199 0.3082
vn -0.4700 -0.3426 0.8135
vn -0.2411 -0.9698 -0.0383
vn 0.5867 0.1580 0.7943
vn 0.8545 -0.4206 -0.3049
vn -0.4636 -0.2543 0.8488
vn -0.2901 -0.7542 -0.5891
vn 0.1702 -0.9845 0.0429
vn -0.0314 -0.7698 0.6376
vn -0.9722 0.0882 0.2168
vn -0.1936 0.2197 0.9562
vn -0.9977 -0.0296 -0.0611
vn -0.1882 0.5058 0.8419
vn -0.5480 -0.5776 -0.6050
vn -0.3021 -0.4546 -0.8379
vn 0.6156 -0.6324 -0.4703
vn 0.5699 -0.4715 -0.6729
vn 0.8326 0.1623 0.5296
vn 0.8938 0.0220 0.4478
vn -0.9844 0.1136 0.1343
vn -0.1380 0.7435 0.6544
vn -0.5627 -0.7488 -0.3501
vn 0.4820 -0.8683 -0.1169
vn 0.8242 0.0883 0.5594
vn -0.2296 -0.3753 0.8980
vn -0.9485 0.2839 0.1406
vn -0.2306 0.2242 0.9469
vn -0.9812 0.1367 -0.1359
vn -0.0577 0.4399 0.8962
vn -0.5659 -0.4372 -0.6990
vn -0.3045 -0.3772 -0.8746
vn 0.4946 -0.7030 -0.5111
vn 0.5401 -0.5268 -0.6563
vn 0.8866 -0.1752 0.4281
vn 0.8245 -0.1155 0.5540
vn -0.9008 0.4046 0.1579
vn -0.0064 0.7607 0.6491
vn -0.6854 -0.6303 -0.3646
vn 0.4312 -0.9010 -0.0467
vn 0.7694 0.0493 0.6368
vn -0.3339 -0.3222 0.8858
vn -0.7929 0.2839 0.5391
vn 0.2041 0.2242 0.9529
vn -0.9427 0.1367 0.3044
vn 0.3378 0.4399 0.8321
vn -0.8136 -0.4372 -0.3833
vn -0.6546 -0.3772 -0.6552
vn 0.2231 -0.7030 -0.6753
vn 0.2009 -0.5268 -0.8259
vn 0.9845 -0.1752 -0.0001
vn 0.9833 -0.1155 0.1403
vn -0.7425 0.4046 0.5339
vn 0.2765 0.7607 0.5873
vn -0.7758 -0.6303 -0.0302
vn 0.3680 -0.9010 -0.2296
vn 0.9698 0.0493 0.2388
vn 0.0846 -0.3222 0.9429
usemtl boar
s 1
f 1/1/1 2/2/2 3/3/3
f 4/4/4 3/3/3 2/2/2
f 5/5/5 6/6/6 7/7/7
f 8/8/8 7/7/7 6/6/6
f 9/9/9 10/10/10 11/11/11
f 11/11/11 12/12/12 9/9/9
f 11/11/11 13/13/13 14/14/14
f 13/13/13 11/11/11 10/10/10
f 15/15/15 16/16/16 17/17/17
f 18/18/18 17/17/17 16/16/16
f 19/19/19 20/20/20 12/12/12
f 21/21/21 12/12/12 20/20/20
f 12/12/12 22/22/22 19/19/19
f 22/22/22 12/12/12 11/11/11
f 22/22/22 14/14/14 23/23/23
f 14/14/14 22/22/22 11/11/11
f 24/24/24 25/25/25 26/26/26
f 27/27/27 26/26/26 25/25/25
f 28/28/28 29/29/29 30/30/30
f 29/29/29 28/28/28 31/31/31
f 32/32/32 33/33/33 34/34/34
f 33/33/33 32/32/32 31/31/31
f 35/35/35 32/32/32 36/36/36
f 34/34/34 36/36/36 32/32/32
f 37/37/37 35/35/35 38/38/38
f 36/36/36 38/38/38 35/35/35
f 39/39/39 37/37/37 40/40/40
f 38/38/38 40/40/40 37/37/37
f 33/33/33 41/41/41 42/42/42
f 43/43/43 42/42/42 41/41/41
f 34/34/34 33/33/33 44/44/44
f 42/42/42 44/44/44 33/33/33
f 36/36/36 34/34/34 45/45/45
f 44/44/44 45/45/45 34/34/34
f 38/38/38 36/36/36 46/46/46
f 45/45/45 46/46/46 36/36/36
f 40/40/40 38/38/38 47/47/47
f 46/46/46 47/47/47 38/38/38
f 9/9/9 48/48/48 49/49/49
f 48/48/48 50/50/50 49/49/49
f 48/48/48 51/51/51 50/50/50
f 49/49/49 52/52/52 10/10/10
f 10/10/10 9/9/9 49/49/49
f 13/13/13 10/10/10 53/53/53
f 52/52/52 53/53/53 10/10/10
f 54/54/54 55/55/55 56/56/56
f 57/57/57 56/56/56 55/55/55
f 49/49/49 50/50/50 58/58/58
f 29/29/29 58/58/58 50/50/50
f 52/52/52 49/49/49 59/59/59
f 58/58/58 59/59/59 49/49/49
f 53/53/53 52/52/52 60/60/60
f 59/59/59 60/60/60 52/52/52
f 61/61/61 54/54/54 62/62/62
f 56/56/56 62/62/62 54/54/54
f 58/58/58 31/31/31 32/32/32
f 31/31/31 58/58/58 29/29/29
f 59/59/59 58/58/58 35/35/35
f 32/32/32 35/35/35 58/58/58
f 60/60/60 59/59/59 37/37/37
f 35/35/35 37/37/37 59/59/59
f 61/61/61 62/62/62 39/39/39
f 24/24/24 55/55/55 63/63/63
f 54/54/54 63/63/63 55/55/55
f 25/25/25 24/24/24 64/64/64
f 63/63/63 64/64/64 24/24/24
f 63/63/63 54/54/54 65/65/65
f 61/61/61 65/65/65 54/54/54
f 64/64/64 63/63/63 66/66/66
f 66/66/66 65/65/65 67/67/67
f 66/66/66 63/63/63 65/65/65
f 39/39/39 40/40/40 61/61/61
f 65/65/65 61/61/61 40/40/40
f 65/65/65 40/40/40 47/47/47
f 51/51/51 68/68/68 50/50/50
f 69/69/69 50/50/50 68/68/68
f 50/50/50 69/69/69 29/29/29
f 30/30/30 29/29/29 69/69/69
f 3/3/3 70/70/70 71/71/71
f 70/70/70 3/3/3 51/51/51
f 12/12/12 21/21/21 72/72/72
f 72/72/72 73/73/73 12/12/12
f 9/9/9 12/12/12 74/74/74
f 73/73/73 74/74/74 12/12/12
f 75/75/75 9/9/9 74/74/74
f 9/9/9 75/75/75 48/48/48
f 76/76/76 77/77/77 78/78/78
f 79/79/79 78/78/78 77/77/77
f 80/80/80 73/73/73 81/81/81
f 72/72/72 81/81/81 73/73/73
f 74/74/74 73/73/73 82/82/82
f 80/80/80 82/82/82 73/73/73
f 75/75/75 74/74/74 83/83/83
f 82/82/82 83/83/83 74/74/74
f 76/76/76 78/78/78 84/84/84
f 85/85/85 84/84/84 78/78/78
f 86/86/86 87/87/87 88/88/88
f 89/89/89 88/88/88 87/87/87
f 90/90/90 87/87/87 91/91/91
f 86/86/86 91/91/91 87/87/87
f 92/92/92 93/93/93 91/91/91
f 90/90/90 91/91/91 93/93/93
f 84/84/84 85/85/85 94/94/94
f 95/95/95 94/94/94 85/85/85
f 96/96/96 88/88/88 97/97/97
f 88/88/88 96/96/96 86/86/86
f 91/91/91 86/86/86 98/98/98
f 96/96/96 98/98/98 86/86/86
f 99/99/99 92/92/92 98/98/98
f 91/91/91 98/98/98 92/92/92
f 70/70/70 51/51/51 75/75/75
f 48/48/48 75/75/75 51/51/51
f 93/93/93 79/79/79 83/83/83
f 79/79/79 93/93/93 78/78/78
f 85/85/85 78/78/78 92/92/92
f 93/93/93 92/92/92 78/78/78
f 95/95/95 85/85/85 99/99/99
f 92/92/92 99/99/99 85/85/85
f 100/100/100 101/101/101 7/7/7
f 5/5/5 7/7/7 101/101/101
f 84/84/84 97/102/97 88/103/88
f 97/102/97 84/84/84 94/94/94
f 76/76/76 88/103/88 89/104/89
f 88/103/88 76/76/76 84/84/84
f 72/105/72 71/71/71 81/106/81
f 77/77/77 81/106/81 71/71/71
f 3/3/3 72/105/72 21/107/21
f 72/105/72 3/3/3 71/71/71
f 1/1/1 3/3/3 20/108/20
f 21/107/21 20/108/20 3/3/3
f 13/13/13 102/109/102 14/14/14
f 103/110/103 14/14/14 102/109/102
f 26/26/26 104/111/104 24/24/24
f 104/111/104 26/26/26 105/112/105
f 55/55/55 24/24/24 106/113/106
f 104/111/104 106/113/106 24/24/24
f 55/55/55 106/113/106 107/114/107
f 107/114/107 57/57/57 55/55/55
f 103/110/103 102/109/102 108/115/108
f 109/116/109 108/115/108 102/109/102
f 104/111/104 105/112/105 110/117/110
f 111/118/111 110/117/110 105/112/105
f 106/113/106 104/111/104 112/119/112
f 110/117/110 112/119/112 104/111/104
f 107/114/107 106/113/106 113/120/113
f 112/119/112 113/120/113 106/113/106
f 108/115/108 109/116/109 114/121/114
f 115/122/115 114/121/114 109/116/109
f 116/123/116 110/117/110 117/124/117
f 111/118/111 117/124/117 110/117/110
f 112/119/112 110/117/110 118/125/118
f 116/123/116 118/125/118 110/117/110
f 113/120/113 112/119/112 119/126/119
f 118/125/118 119/126/119 112/119/112
f 114/121/114 115/122/115 120/127/120
f 121/128/121 120/127/120 115/122/115
f 122/129/122 117/124/117 123/130/123
f 117/124/117 122/129/122 116/123/116
f 118/125/118 116/123/116 124/131/124
f 122/129/122 124/131/124 116/123/116
f 119/126/119 118/125/118 125/132/125
f 124/131/124 125/132/125 118/125/118
f 121/128/121 126/133/126 120/127/120
f 121/128/121 127/134/127 126/133/126
f 120/127/120 126/133/126 128/135/128
f 123/130/123 129/136/129 122/129/122
f 129/137/129 123/138/123 120/127/120
f 124/131/124 130/139/130 131/140/131
f 124/131/124 122/129/122 130/139/130
f 130/139/130 122/129/122 132/141/132
f 124/131/124 131/140/131 133/142/133
f 133/142/133 125/132/125 124/131/124
f 62/62/62 37/37/37 39/39/39
f 37/37/37 62/62/62 60/60/60
f 53/53/53 60/60/60 56/56/56
f 62/62/62 56/56/56 60/60/60
f 13/13/13 53/53/53 57/57/57
f 56/56/56 57/57/57 53/53/53
f 13/13/13 57/57/57 107/114/107
f 107/114/107 102/109/102 13/13/13
f 102/109/102 107/114/107 109/116/109
f 113/120/113 109/116/109 107/114/107
f 109/116/109 113/120/113 115/122/115
f 119/126/119 115/122/115 113/120/113
f 115/122/115 125/132/125 121/128/121
f 125/132/125 115/122/115 119/126/119
f 121/128/121 125/132/125 127/134/127
f 133/142/133 127/134/127 125/132/125
f 134/143/134 135/144/135 17/17/17
f 15/15/15 17/17/17 135/144/135
f 132/141/132 122/129/122 129/136/129
f 129/137/129 120/127/120 128/135/128
f 114/121/114 123/138/123 117/145/117
f 123/138/123 114/121/114 120/127/120
f 108/115/108 117/145/117 111/146/111
f 117/145/117 108/115/108 114/121/114
f 108/115/108 111/146/111 103/110/103
f 105/147/105 103/110/103 111/146/111
f 105/147/105 26/148/26 14/14/14
f 14/14/14 103/110/103 105/147/105
f 14/14/14 26/148/26 23/23/23
f 27/149/27 23/23/23 26/148/26
f 90/90/90 93/93/93 82/82/82
f 83/83/83 82/82/82 93/93/93
f 87/87/87 90/90/90 80/80/80
f 82/82/82 80/80/80 90/90/90
f 87/87/87 80/80/80 89/89/89
f 81/81/81 89/89/89 80/80/80
f 70/70/70 83/83/83 79/79/79
f 83/83/83 70/70/70 75/75/75
f 71/71/71 79/79/79 77/77/77
f 79/79/79 71/71/71 70/70/70
f 89/104/89 81/106/81 76/76/76
f 77/77/77 76/76/76 81/106/81
f 94/94/94 95/95/95 136/150/136
f 137/151/137 136/150/136 95/95/95
f 97/102/97 94/94/94 138/152/138
f 136/150/136 138/152/138 94/94/94
f 96/96/96 97/97/97 139/153/139
f 138/154/138 139/153/139 97/97/97
f 98/98/98 96/96/96 140/155/140
f 139/153/139 140/155/140 96/96/96
f 99/99/99 140/155/140 141/156/141
f 140/155/140 99/99/99 98/98/98
f 95/95/95 99/99/99 137/151/137
f 141/156/141 137/151/137 99/99/99
f 142/157/142 143/158/143 7/7/7
f 144/159/144 7/7/7 143/158/143
f 142/157/142 7/7/7 145/160/145
f 8/8/8 145/160/145 7/7/7
f 146/161/146 136/150/136 147/162/147
f 136/150/136 137/151/137 147/162/147
f 147/162/147 137/151/137 148/163/148
f 149/164/149 140/155/140 150/165/150
f 151/166/151 150/165/150 139/153/139
f 150/165/150 140/155/140 139/153/139
f 141/156/141 140/155/140 149/164/149
f 149/164/149 152/167/152 141/156/141
f 137/151/137 152/167/152 148/163/148
f 152/167/152 137/151/137 141/156/141
f 138/152/138 136/150/136 153/168/153
f 146/161/146 153/168/153 136/150/136
f 139/153/139 138/154/138 151/166/151
f 153/169/153 151/166/151 138/154/138
f 101/170/101 100/171/100 148/163/148
f 147/162/147 148/163/148 100/171/100
f 100/171/100 7/172/7 147/162/147
f 6/173/6 150/165/150 8/174/8
f 150/165/150 6/173/6 149/164/149
f 5/175/5 152/167/152 6/173/6
f 149/164/149 6/173/6 152/167/152
f 5/175/5 101/170/101 152/167/152
f 148/163/148 152/167/152 101/170/101
f 143/176/143 142/177/142 146/161/146
f 153/168/153 146/161/146 142/177/142
f 142/178/142 145/179/145 153/169/153
f 151/166/151 153/169/153 145/179/145
f 145/179/145 150/165/150 151/166/151
f 150/165/150 145/179/145 8/174/8
f 144/180/144 147/162/147 7/172/7
f 146/161/146 147/162/147 144/180/144
f 144/180/144 143/176/143 146/161/146
f 154/181/154 155/182/155 17/17/17
f 156/183/156 17/17/17 155/182/155
f 154/181/154 17/17/17 157/184/157
f 18/18/18 157/184/157 17/17/17
f 129/137/129 128/135/128 154/185/154
f 155/186/155 154/185/154 128/135/128
f 132/141/132 129/136/129 157/187/157
f 154/188/154 157/187/157 129/136/129
f 130/139/130 157/187/157 18/189/18
f 157/187/157 130/139/130 132/141/132
f 17/190/17 156/191/156 126/133/126
f 128/135/128 126/133/126 155/186/155
f 156/191/156 155/186/155 126/133/126
f 126/133/126 127/134/127 134/192/134
f 135/193/135 134/192/134 127/134/127
f 134/192/158 17/190/158 126/133/158
f 131/140/131 18/189/18 16/194/16
f 18/189/18 131/140/131 130/139/130
f 133/142/133 16/194/16 15/195/15
f 16/194/16 133/142/133 131/140/131
f 127/134/127 133/142/133 135/193/135
f 15/195/15 135/193/135 133/142/133
f 158/196/159 159/197/160 160/198/161
f 47/47/47 67/67/67 65/65/65
f 161/199/162 67/67/67 47/47/47
f 162/200/163 66/66/66 67/67/67
f 67/67/67 161/199/162 162/200/163
f 163/201/164 162/200/163 161/199/162
f 164/202/165 162/200/163 165/203/166
f 162/200/163 164/202/165 66/66/66
f 165/203/166 163/201/164 166/204/167
f 163/201/164 165/203/166 162/200/163
f 167/205/168 168/206/169 159/197/160
f 160/198/161 159/197/160 168/206/169
f 168/206/169 158/196/159 160/198/161
f 158/196/159 168/206/169 169/207/170
f 167/205/168 165/203/166 168/206/169
f 165/203/166 167/205/168 164/202/165
f 169/207/170 165/203/166 166/204/167
f 165/203/166 169/207/170 168/206/169
f 33/33/33 31/31/31 41/41/41
f 28/28/28 41/41/41 31/31/31
f 68/68/68 51/51/51 4/4/4
f 3/3/3 4/4/4 51/51/51
f 170/208/171 171/209/172 172/210/173
f 173/211/174 172/210/173 171/209/172
f 174/212/175 175/213/176 170/208/171
f 171/209/172 170/208/171 175/213/176
f 176/214/177 177/215/178 178/216/179
f 179/217/180 178/216/179 177/215/178
f 180/218/181 181/219/182 182/220/183
f 183/221/184 182/220/183 181/219/182
f 184/222/185 180/218/181 185/223/186
f 182/220/183 185/223/186 180/218/181
f 186/224/187 184/222/185 187/225/188
f 185/223/186 187/225/188 184/222/185
f 188/226/189 186/224/187 189/227/190
f 187/225/188 189/227/190 186/224/187
f 190/228/191 176/214/177 191/229/192
f 178/216/179 191/229/192 176/214/177
f 182/220/183 183/221/184 192/230/193
f 193/231/194 192/230/193 183/221/184
f 185/223/186 182/220/183 194/232/195
f 192/230/193 194/232/195 182/220/183
f 187/225/188 185/223/186 195/233/196
f 194/232/195 195/233/196 185/223/186
f 189/227/190 187/225/188 196/234/197
f 195/233/196 196/234/197 187/225/188
f 172/210/173 173/211/174 197/235/198
f 198/236/199 197/235/198 173/211/174
f 199/237/200 200/238/201 201/239/202
f 202/240/203 201/239/202 200/238/201
f 203/241/204 199/237/200 204/242/205
f 201/239/202 204/242/205 199/237/200
f 205/243/206 203/241/204 206/244/207
f 204/242/205 206/244/207 203/241/204
f 207/245/208 205/243/206 208/246/209
f 206/244/207 208/246/209 205/243/206
f 209/247/210 197/235/198 210/248/211
f 198/236/199 210/248/211 197/235/198
f 201/239/202 202/240/203 211/249/212
f 212/250/213 211/249/212 202/240/203
f 204/242/205 201/239/202 213/251/214
f 211/249/212 213/251/214 201/239/202
f 206/244/207 204/242/205 214/252/215
f 213/251/214 214/252/215 204/242/205
f 208/246/209 206/244/207 215/253/216
f 214/252/215 215/253/216 206/244/207
f 177/215/178 209/247/210 179/217/180
f 210/248/211 179/217/180 209/247/210
f 211/249/212 212/250/213 180/218/181
f 181/219/182 180/218/181 212/250/213
f 213/251/214 211/249/212 184/222/185
f 180/218/181 184/222/185 211/249/212
f 214/252/215 213/251/214 186/224/187
f 184/222/185 186/224/187 213/251/214
f 215/253/216 214/252/215 188/226/189
f 186/224/187 188/226/189 214/252/215
f 171/254/172 175/255/176 216/256/217
f 217/257/218 216/256/217 175/255/176
f 173/258/174 171/254/172 198/259/199
f 216/256/217 198/259/199 171/254/172
f 216/256/217 217/257/218 218/260/219
f 219/261/220 218/260/219 217/257/218
f 198/259/199 216/256/217 210/262/211
f 218/260/219 210/262/211 216/256/217
f 218/260/219 219/261/220 178/263/179
f 191/264/192 178/263/179 219/261/220
f 210/262/211 218/260/219 179/265/180
f 178/263/179 179/265/180 218/260/219
f 200/238/201 220/266/221 221/267/222
f 221/267/222 222/268/223 200/238/201
f 223/269/224 222/268/223 224/270/225
f 221/267/222 224/270/225 222/268/223
f 220/266/221 225/271/226 226/272/227
f 226/272/227 221/267/222 220/266/221
f 224/270/225 226/272/227 227/273/228
f 226/272/227 224/270/225 221/267/222
f 226/272/227 228/274/229 229/275/230
f 228/274/229 226/272/227 225/271/226
f 226/272/227 229/275/230 230/276/231
f 230/276/231 227/273/228 226/272/227
f 229/275/230 228/274/229 231/277/232
f 232/278/233 231/277/232 228/274/229
f 230/276/231 229/275/230 233/279/234
f 231/277/232 233/279/234 229/275/230
f 231/277/232 234/280/235 235/281/236
f 234/280/235 231/277/232 232/278/233
f 233/279/234 231/277/232 236/282/237
f 235/281/236 236/282/237 231/277/232
f 220/266/221 200/238/201 225/271/226
f 199/237/200 225/271/226 200/238/201
f 199/237/200 203/241/204 228/274/229
f 228/274/229 225/271/226 199/237/200
f 228/274/229 205/243/206 232/278/233
f 205/243/206 228/274/229 203/241/204
f 232/278/233 207/245/208 234/280/235
f 207/245/208 232/278/233 205/243/206
f 237/283/238 238/284/239 172/210/173
f 170/208/171 172/210/173 238/284/239
f 239/285/240 174/212/175 238/284/239
f 170/208/171 238/284/239 174/212/175
f 240/286/241 241/287/242 176/214/177
f 177/215/178 176/214/177 241/287/242
f 242/288/243 240/286/241 190/228/191
f 176/214/177 190/228/191 240/286/241
f 237/283/238 172/210/173 243/289/244
f 197/235/198 243/289/244 172/210/173
f 244/290/245 243/289/244 209/247/210
f 197/235/198 209/247/210 243/289/244
f 241/287/242 244/290/245 177/215/178
f 209/247/210 177/215/178 244/290/245
f 200/238/201 222/268/223 237/283/238
f 238/284/239 237/283/238 222/268/223
f 222/268/223 223/269/224 238/284/239
f 239/285/240 238/284/239 223/269/224
f 181/219/182 241/287/242 183/221/184
f 240/286/241 183/221/184 241/287/242
f 193/231/194 183/221/184 242/288/243
f 240/286/241 242/288/243 183/221/184
f 200/238/201 237/283/238 202/240/203
f 243/289/244 202/240/203 237/283/238
f 202/240/203 243/289/244 212/250/213
f 244/290/245 212/250/213 243/289/244
f 212/250/213 244/290/245 181/219/182
f 241/287/242 181/219/182 244/290/245
f 196/234/197 43/43/43 245/291/246
f 245/291/246 43/43/43 41/41/41
f 189/227/190 196/234/197 245/291/246
f 207/245/208 69/69/69 68/68/68
f 69/69/69 207/245/208 208/246/209
f 69/69/69 208/246/209 215/253/216
f 215/253/216 30/30/30 69/69/69
f 215/253/216 246/292/247 30/30/30
f 28/28/28 30/30/30 246/292/247
f 215/253/216 188/226/189 246/292/247
f 235/281/236 4/4/4 2/2/2
f 4/4/4 235/281/236 234/280/235
f 236/282/237 235/281/236 2/2/2
f 234/280/235 68/68/68 4/4/4
f 68/68/68 234/280/235 207/245/208
f 189/227/190 245/291/246 246/292/247
f 246/292/247 188/226/189 189/227/190
f 41/293/41 28/294/28 247/295/248
f 248/296/249 247/295/248 28/294/28
f 245/297/246 41/298/41 249/299/250
f 247/300/248 249/299/250 41/298/41
f 245/297/246 249/299/250 250/301/251
f 250/301/251 246/302/247 245/297/246
f 246/302/247 250/301/251 28/294/28
f 248/296/249 28/294/28 250/301/251
f 248/296/249 251/303/252 247/295/248
f 252/304/253 247/295/248 251/303/252
f 252/305/253 251/303/252 250/301/251
f 249/299/250 252/305/253 250/301/251
f 252/305/253 249/299/250 247/300/248
f 248/296/249 250/301/251 251/303/252
f 253/306/254 254/307/255 255/308/256
f 256/309/257 255/308/256 254/307/255
f 257/310/258 253/306/254 258/311/259
f 255/308/256 258/311/259 253/306/254
f 259/312/260 257/310/258 260/313/261
f 258/311/259 260/313/261 257/310/258
f 261/314/262 259/312/260 262/315/263
f 260/313/261 262/315/263 259/312/260
f 254/307/255 261/316/262 256/309/257
f 262/317/263 256/309/257 261/316/262
f 255/308/256 256/309/257 263/318/264
f 264/319/265 263/318/264 256/309/257
f 258/311/259 255/308/256 265/320/266
f 263/318/264 265/320/266 255/308/256
f 260/313/261 265/320/266 266/321/267
f 265/320/266 260/313/261 258/311/259
f 262/315/263 260/313/261 267/322/268
f 266/321/267 267/322/268 260/313/261
f 256/309/257 262/317/263 264/319/265
f 267/323/268 264/319/265 262/317/263
f 263/318/264 264/319/265 268/324/269
f 265/320/266 263/318/264 268/324/269
f 266/321/267 265/320/266 268/324/269
f 267/322/268 266/321/267 268/324/269
f 264/319/265 267/323/268 268/324/269
f 269/325/270 270/326/271 271/327/272
f 272/328/273 271/327/272 270/326/271
f 273/329/274 269/330/270 274/331/275
f 271/332/272 274/331/275 269/330/270
f 275/333/276 273/329/274 276/334/277
f 274/331/275 276/334/277 273/329/274
f 277/335/278 275/333/276 278/336/279
f 276/334/277 278/336/279 275/333/276
f 270/326/271 277/335/278 272/328/273
f 278/336/279 272/328/273 277/335/278
f 271/327/272 272/328/273 279/337/280
f 280/338/281 279/337/280 272/328/273
f 274/331/275 271/332/272 281/339/282
f 279/340/280 281/339/282 271/332/272
f 276/334/277 274/331/275 282/341/283
f 281/339/282 282/341/283 274/331/275
f 278/336/279 282/341/283 283/342/284
f 282/341/283 278/336/279 276/334/277
f 272/328/273 278/336/279 280/338/281
f 283/342/284 280/338/281 278/336/279
f 279/337/280 280/338/281 284/343/285
f 281/339/282 279/340/280 284/343/285
f 282/341/283 281/339/282 284/343/285
f 283/342/284 282/341/283 284/343/285
f 280/338/281 283/342/284 284/343/285
f 285/344/286 286/345/287 287/346/288
f 288/347/289 287/346/288 286/345/287
f 289/348/290 285/349/286 290/350/291
f 287/351/288 290/350/291 285/349/286
f 291/352/292 289/348/290 292/353/293
f 290/350/291 292/353/293 289/348/290
f 293/354/294 291/352/292 294/355/295
f 292/353/293 294/355/295 291/352/292
f 286/345/287 293/354/294 288/347/289
f 294/355/295 288/347/289 293/354/294
f 287/346/288 288/347/289 295/356/296
f 296/357/297 295/356/296 288/347/289
f 290/350/291 287/351/288 297/358/298
f 295/359/296 297/358/298 287/351/288
f 292/353/293 290/350/291 298/360/299
f 297/358/298 298/360/299 290/350/291
f 294/355/295 298/360/299 299/361/300
f 298/360/299 294/355/295 292/353/293
f 288/347/289 294/355/295 296/357/297
f 299/361/300 296/357/297 294/355/295
f 295/356/296 296/357/297 300/362/301
f 297/358/298 295/359/296 300/362/301
f 298/360/299 297/358/298 300/362/301
f 299/361/300 298/360/299 300/362/301
f 296/357/297 299/361/300 300/362/301
f 301/363/302 2/2/2 1/1/1
f 2/2/2 301/363/302 302/364/303
f 303/365/304 304/366/305 305/367/306
f 304/366/305 303/365/304 306/368/307
f 307/369/308 308/370/309 309/371/310
f 309/371/310 310/372/311 307/369/308
f 311/373/312 312/374/313 307/369/308
f 308/370/309 307/369/308 312/374/313
f 313/375/314 314/376/315 315/377/316
f 314/376/315 313/375/314 316/378/317
f 310/372/311 20/20/20 19/19/19
f 20/20/20 310/372/311 317/379/318
f 19/19/19 22/22/22 310/372/311
f 307/369/308 310/372/311 22/22/22
f 23/23/23 311/373/312 22/22/22
f 307/369/308 22/22/22 311/373/312
f 318/380/319 25/25/25 319/381/320
f 25/25/25 318/380/319 27/27/27
f 320/382/321 321/383/322 322/384/323
f 323/385/324 322/384/323 321/383/322
f 324/386/325 325/387/326 326/388/327
f 323/385/324 326/388/327 325/387/326
f 327/389/328 326/388/327 328/390/329
f 326/388/327 327/389/328 324/386/325
f 329/391/330 328/390/329 330/392/331
f 328/390/329 329/391/330 327/389/328
f 331/393/332 330/392/331 332/394/333
f 330/392/331 331/393/332 329/391/330
f 42/42/42 333/395/334 325/387/326
f 333/395/334 42/42/42 43/43/43
f 44/44/44 325/387/326 324/386/325
f 325/387/326 44/44/44 42/42/42
f 45/45/45 324/386/325 327/389/328
f 324/386/325 45/45/45 44/44/44
f 46/46/46 327/389/328 329/391/330
f 327/389/328 46/46/46 45/45/45
f 47/47/47 329/391/330 331/393/332
f 329/391/330 47/47/47 46/46/46
f 334/396/335 335/397/336 309/371/310
f 334/396/335 336/398/337 335/397/336
f 336/398/337 337/399/338 335/397/336
f 308/370/309 338/400/339 334/396/335
f 334/396/335 309/371/310 308/370/309
f 339/401/340 308/370/309 312/374/313
f 308/370/309 339/401/340 338/400/339
f 340/402/341 341/403/342 342/404/343
f 341/403/342 340/402/341 343/405/344
f 344/406/345 336/398/337 334/396/335
f 336/398/337 344/406/345 321/383/322
f 345/407/346 334/396/335 338/400/339
f 334/396/335 345/407/346 344/406/345
f 346/408/347 338/400/339 339/401/340
f 338/400/339 346/408/347 345/407/346
f 347/409/348 342/404/343 348/410/349
f 342/404/343 347/409/348 340/402/341
f 326/388/327 323/385/324 344/406/345
f 321/383/322 344/406/345 323/385/324
f 328/390/329 344/406/345 345/407/346
f 344/406/345 328/390/329 326/388/327
f 330/392/331 345/407/346 346/408/347
f 345/407/346 330/392/331 328/390/329
f 332/394/333 347/409/348 348/410/349
f 349/411/350 341/403/342 319/381/320
f 341/403/342 349/411/350 342/404/343
f 64/64/64 319/381/320 25/25/25
f 319/381/320 64/64/64 349/411/350
f 350/412/351 342/404/343 349/411/350
f 342/404/343 350/412/351 348/410/349
f 66/66/66 349/411/350 64/64/64
f 351/413/352 350/412/351 66/66/66
f 350/412/351 349/411/350 66/66/66
f 348/410/349 331/393/332 332/394/333
f 331/393/332 348/410/349 350/412/351
f 47/47/47 331/393/332 350/412/351
f 336/398/337 352/414/353 337/399/338
f 352/414/353 336/398/337 353/415/354
f 321/383/322 353/415/354 336/398/337
f 353/415/354 321/383/322 320/382/321
f 354/416/355 355/417/356 301/363/302
f 337/399/338 301/363/302 355/417/356
f 356/418/357 317/379/318 310/372/311
f 310/372/311 357/419/358 356/418/357
f 358/420/359 310/372/311 309/371/310
f 310/372/311 358/420/359 357/419/358
f 358/420/359 309/371/310 359/421/360
f 335/397/336 359/421/360 309/371/310
f 360/422/361 361/423/362 362/424/363
f 361/423/362 360/422/361 363/425/364
f 364/426/365 357/419/358 365/427/366
f 357/419/358 364/426/365 356/418/357
f 366/428/367 357/419/358 358/420/359
f 357/419/358 366/428/367 365/427/366
f 367/429/368 358/420/359 359/421/360
f 358/420/359 367/429/368 366/428/367
f 368/430/369 360/422/361 362/424/363
f 360/422/361 368/430/369 369/431/370
f 370/432/371 371/433/372 372/434/373
f 371/433/372 370/432/371 373/435/374
f 374/436/375 371/433/372 375/437/376
f 371/433/372 374/436/375 372/434/373
f 374/436/375 376/438/377 377/439/378
f 376/438/377 374/436/375 375/437/376
f 378/440/379 369/431/370 368/430/369
f 369/431/370 378/440/379 379/441/380
f 380/442/381 370/432/371 381/443/382
f 372/434/373 381/443/382 370/432/371
f 382/444/383 372/434/373 374/436/375
f 372/434/373 382/444/383 381/443/382
f 382/444/383 377/439/378 383/445/384
f 377/439/378 382/444/383 374/436/375
f 359/421/360 337/399/338 355/417/356
f 337/399/338 359/421/360 335/397/336
f 367/429/368 363/425/364 376/438/377
f 360/422/361 376/438/377 363/425/364
f 377/439/378 360/422/361 369/431/370
f 360/422/361 377/439/378 376/438/377
f 383/445/384 369/431/370 379/441/380
f 369/431/370 383/445/384 377/439/378
f 303/365/304 384/446/385 385/447/386
f 384/446/385 303/365/304 305/367/306
f 370/448/371 380/449/381 368/430/369
f 378/440/379 368/430/369 380/449/381
f 373/450/374 370/448/371 362/424/363
f 368/430/369 362/424/363 370/448/371
f 364/451/365 354/416/355 356/452/357
f 354/416/355 364/451/365 361/423/362
f 317/453/318 356/452/357 301/363/302
f 354/416/355 301/363/302 356/452/357
f 20/108/20 301/363/302 1/1/1
f 301/363/302 20/108/20 317/453/318
f 311/373/312 386/454/387 312/374/313
f 386/454/387 311/373/312 387/455/388
f 319/381/320 388/456/389 318/380/319
f 389/457/390 318/380/319 388/456/389
f 390/458/391 319/381/320 341/403/342
f 319/381/320 390/458/391 388/456/389
f 391/459/392 390/458/391 341/403/342
f 341/403/342 343/405/344 391/459/392
f 392/460/393 386/454/387 387/455/388
f 386/454/387 392/460/393 393/461/394
f 394/462/395 389/457/390 388/456/389
f 389/457/390 394/462/395 395/463/396
f 396/464/397 388/456/389 390/458/391
f 388/456/389 396/464/397 394/462/395
f 397/465/398 390/458/391 391/459/392
f 390/458/391 397/465/398 396/464/397
f 398/466/399 393/461/394 392/460/393
f 393/461/394 398/466/399 399/467/400
f 400/468/401 394/462/395 401/469/402
f 394/462/395 400/468/401 395/463/396
f 402/470/403 394/462/395 396/464/397
f 394/462/395 402/470/403 401/469/402
f 403/471/404 396/464/397 397/465/398
f 396/464/397 403/471/404 402/470/403
f 404/472/405 399/467/400 398/466/399
f 399/467/400 404/472/405 405/473/406
f 406/474/407 400/468/401 407/475/408
f 401/469/402 407/475/408 400/468/401
f 408/476/409 401/469/402 402/470/403
f 401/469/402 408/476/409 407/475/408
f 409/477/410 402/470/403 403/471/404
f 402/470/403 409/477/410 408/476/409
f 404/472/405 410/478/411 405/473/406
f 410/478/411 411/479/412 405/473/406
f 412/480/413 410/478/411 404/472/405
f 407/475/408 413/481/414 406/474/407
f 404/472/405 406/482/407 413/483/414
f 414/484/415 415/485/416 408/476/409
f 415/485/416 407/475/408 408/476/409
f 416/486/417 407/475/408 415/485/416
f 417/487/418 414/484/415 408/476/409
f 408/476/409 409/477/410 417/487/418
f 332/394/333 330/392/331 347/409/348
f 346/408/347 347/409/348 330/392/331
f 340/402/341 346/408/347 339/401/340
f 346/408/347 340/402/341 347/409/348
f 343/405/344 339/401/340 312/374/313
f 339/401/340 343/405/344 340/402/341
f 391/459/392 343/405/344 312/374/313
f 312/374/313 386/454/387 391/459/392
f 393/461/394 391/459/392 386/454/387
f 391/459/392 393/461/394 397/465/398
f 399/467/400 397/465/398 393/461/394
f 397/465/398 399/467/400 403/471/404
f 405/473/406 409/477/410 399/467/400
f 403/471/404 399/467/400 409/477/410
f 411/479/412 409/477/410 405/473/406
f 409/477/410 411/479/412 417/487/418
f 313/375/314 418/488/419 419/489/420
f 418/488/419 313/375/314 315/377/316
f 413/481/414 407/475/408 416/486/417
f 412/480/413 404/472/405 413/483/414
f 400/490/401 406/482/407 398/466/399
f 404/472/405 398/466/399 406/482/407
f 395/491/396 400/490/401 392/460/393
f 398/466/399 392/460/393 400/490/401
f 387/455/388 395/491/396 392/460/393
f 395/491/396 387/455/388 389/492/390
f 311/373/312 318/493/319 389/492/390
f 389/492/390 387/455/388 311/373/312
f 23/23/23 318/493/319 311/373/312
f 318/493/319 23/23/23 27/149/27
f 366/428/367 376/438/377 375/437/376
f 376/438/377 366/428/367 367/429/368
f 365/427/366 375/437/376 371/433/372
f 375/437/376 365/427/366 366/428/367
f 373/435/374 365/427/366 371/433/372
f 365/427/366 373/435/374 364/426/365
f 363/425/364 367/429/368 355/417/356
f 359/421/360 355/417/356 367/429/368
f 361/423/362 363/425/364 354/416/355
f 355/417/356 354/416/355 363/425/364
f 362/424/363 364/451/365 373/450/374
f 364/451/365 362/424/363 361/423/362
f 420/494/421 379/441/380 378/440/379
f 379/441/380 420/494/421 421/495/422
f 422/496/423 378/440/379 380/449/381
f 378/440/379 422/496/423 420/494/421
f 423/497/424 380/442/381 381/443/382
f 380/442/381 423/497/424 422/498/423
f 424/499/425 381/443/382 382/444/383
f 381/443/382 424/499/425 423/497/424
f 425/500/426 424/499/425 383/445/384
f 382/444/383 383/445/384 424/499/425
f 421/495/422 383/445/384 379/441/380
f 383/445/384 421/495/422 425/500/426
f 303/365/304 426/501/427 427/502/428
f 426/501/427 303/365/304 428/503/429
f 429/504/430 303/365/304 427/502/428
f 303/365/304 429/504/430 306/368/307
f 430/505/431 420/494/421 431/506/432
f 430/505/431 421/495/422 420/494/421
f 432/507/433 421/495/422 430/505/431
f 433/508/434 424/499/425 434/509/435
f 423/497/424 433/508/434 435/510/436
f 423/497/424 424/499/425 433/508/434
f 434/509/435 424/499/425 425/500/426
f 425/500/426 436/511/437 434/509/435
f 432/507/433 436/511/437 421/495/422
f 425/500/426 421/495/422 436/511/437
f 437/512/438 420/494/421 422/496/423
f 420/494/421 437/512/438 431/506/432
f 435/510/436 422/498/423 423/497/424
f 422/498/423 435/510/436 437/513/438
f 432/507/433 385/514/386 384/515/385
f 385/514/386 432/507/433 430/505/431
f 430/505/431 303/516/304 385/514/386
f 306/517/307 433/508/434 304/518/305
f 434/509/435 304/518/305 433/508/434
f 304/518/305 436/511/437 305/519/306
f 436/511/437 304/518/305 434/509/435
f 436/511/437 384/515/385 305/519/306
f 384/515/385 436/511/437 432/507/433
f 431/506/432 427/520/428 426/521/427
f 427/520/428 431/506/432 437/512/438
f 437/513/438 429/522/430 427/523/428
f 429/522/430 437/513/438 435/510/436
f 435/510/436 433/508/434 429/522/430
f 306/517/307 429/522/430 433/508/434
f 303/516/304 430/505/431 428/524/429
f 428/524/429 430/505/431 431/506/432
f 431/506/432 426/521/427 428/524/429
f 313/375/314 438/525/439 439/526/440
f 438/525/439 313/375/314 440/527/441
f 441/528/442 313/375/314 439/526/440
f 313/375/314 441/528/442 316/378/317
f 439/529/440 412/480/413 413/483/414
f 412/480/413 439/529/440 438/530/439
f 441/531/442 413/481/414 416/486/417
f 413/481/414 441/531/442 439/532/440
f 316/533/317 441/531/442 415/485/416
f 416/486/417 415/485/416 441/531/442
f 410/478/411 440/534/441 313/535/314
f 438/530/439 410/478/411 412/480/413
f 410/478/411 438/530/439 440/534/441
f 419/536/420 411/479/412 410/478/411
f 411/479/412 419/536/420 418/537/419
f 410/478/443 313/535/443 419/536/443
f 314/538/315 316/533/317 414/484/415
f 415/485/416 414/484/415 316/533/317
f 315/539/316 314/538/315 417/487/418
f 414/484/415 417/487/418 314/538/315
f 418/537/419 417/487/418 411/479/412
f 417/487/418 418/537/419 315/539/316
f 442/540/444 159/197/160 158/196/159
f 350/412/351 351/413/352 47/47/47
f 47/47/47 351/413/352 161/199/162
f 351/413/352 66/66/66 443/541/445
f 443/541/445 161/199/162 351/413/352
f 161/199/162 443/541/445 163/201/164
f 444/542/446 443/541/445 164/202/165
f 66/66/66 164/202/165 443/541/445
f 166/204/167 163/201/164 444/542/446
f 443/541/445 444/542/446 163/201/164
f 159/197/160 445/543/447 167/205/168
f 445/543/447 159/197/160 442/540/444
f 442/540/444 158/196/159 445/543/447
f 169/207/170 445/543/447 158/196/159
f 445/543/447 444/542/446 167/205/168
f 164/202/165 167/205/168 444/542/446
f 166/204/167 444/542/446 169/207/170
f 445/543/447 169/207/170 444/542/446
f 333/395/334 323/385/324 325/387/326
f 323/385/324 333/395/334 322/384/323
f 302/364/303 337/399/338 352/414/353
f 337/399/338 302/364/303 301/363/302
f 446/544/448 447/545/449 448/546/450
f 447/545/449 446/544/448 449/547/451
f 448/546/450 175/213/176 174/212/175
f 175/213/176 448/546/450 447/545/449
f 450/548/452 451/549/453 452/550/454
f 451/549/453 450/548/452 453/551/455
f 454/552/456 455/553/457 456/554/458
f 455/553/457 454/552/456 457/555/459
f 458/556/460 456/554/458 459/557/461
f 456/554/458 458/556/460 454/552/456
f 460/558/462 459/557/461 461/559/463
f 459/557/461 460/558/462 458/556/460
f 462/560/464 461/559/463 463/561/465
f 461/559/463 462/560/464 460/558/462
f 191/229/192 452/550/454 190/228/191
f 452/550/454 191/229/192 450/548/452
f 192/230/193 457/555/459 454/552/456
f 457/555/459 192/230/193 193/231/194
f 194/232/195 454/552/456 458/556/460
f 454/552/456 194/232/195 192/230/193
f 195/233/196 458/556/460 460/558/462
f 458/556/460 195/233/196 194/232/195
f 196/234/197 460/558/462 462/560/464
f 460/558/462 196/234/197 195/233/196
f 464/562/466 449/547/451 446/544/448
f 449/547/451 464/562/466 465/563/467
f 466/564/468 467/565/469 468/566/470
f 467/565/469 466/564/468 469/567/471
f 470/568/472 468/566/470 471/569/473
f 468/566/470 470/568/472 466/564/468
f 472/570/474 471/569/473 473/571/475
f 471/569/473 472/570/474 470/568/472
f 474/572/476 473/571/475 475/573/477
f 473/571/475 474/572/476 472/570/474
f 476/574/478 464/562/466 477/575/479
f 464/562/466 476/574/478 465/563/467
f 478/576/480 469/567/471 466/564/468
f 469/567/471 478/576/480 479/577/481
f 480/578/482 466/564/468 470/568/472
f 466/564/468 480/578/482 478/576/480
f 481/579/483 470/568/472 472/570/474
f 470/568/472 481/579/483 480/578/482
f 482/580/484 472/570/474 474/572/476
f 472/570/474 482/580/484 481/579/483
f 453/551/455 477/575/479 451/549/453
f 477/575/479 453/551/455 476/574/478
f 456/554/458 479/577/481 478/576/480
f 479/577/481 456/554/458 455/553/457
f 459/557/461 478/576/480 480/578/482
f 478/576/480 459/557/461 456/554/458
f 461/559/463 480/578/482 481/579/483
f 480/578/482 461/559/463 459/557/461
f 463/561/465 481/579/483 482/580/484
f 481/579/483 463/561/465 461/559/463
f 483/581/485 175/255/176 447/582/449
f 175/255/176 483/581/485 217/257/218
f 465/583/467 447/582/449 449/584/451
f 447/582/449 465/583/467 483/581/485
f 484/585/486 217/257/218 483/581/485
f 217/257/218 484/585/486 219/261/220
f 476/586/478 483/581/485 465/583/467
f 483/581/485 476/586/478 484/585/486
f 450/587/452 219/261/220 484/585/486
f 219/261/220 450/587/452 191/264/192
f 453/588/455 484/585/486 476/586/478
f 484/585/486 453/588/455 450/587/452
f 485/589/487 486/590/488 467/565/469
f 467/565/469 487/591/489 485/589/487
f 224/270/225 487/591/489 223/269/224
f 487/591/489 224/270/225 485/589/487
f 488/592/490 489/593/491 486/590/488
f 486/590/488 485/589/487 488/592/490
f 227/273/228 488/592/490 224/270/225
f 485/589/487 224/270/225 488/592/490
f 490/594/492 491/595/493 488/592/490
f 489/593/491 488/592/490 491/595/493
f 230/276/231 490/594/492 488/592/490
f 488/592/490 227/273/228 230/276/231
f 492/596/494 491/595/493 490/594/492
f 491/595/493 492/596/494 493/597/495
f 233/279/234 490/594/492 230/276/231
f 490/594/492 233/279/234 492/596/494
f 494/598/496 495/599/497 492/596/494
f 493/597/495 492/596/494 495/599/497
f 236/282/237 492/596/494 233/279/234
f 492/596/494 236/282/237 494/598/496
f 489/593/491 467/565/469 486/590/488
f 467/565/469 489/593/491 468/566/470
f 491/595/493 471/569/473 468/566/470
f 468/566/470 489/593/491 491/595/493
f 493/597/495 473/571/475 491/595/493
f 471/569/473 491/595/493 473/571/475
f 495/599/497 475/573/477 493/597/495
f 473/571/475 493/597/495 475/573/477
f 446/544/448 496/600/498 497/601/499
f 496/600/498 446/544/448 448/546/450
f 496/600/498 174/212/175 239/285/240
f 174/212/175 496/600/498 448/546/450
f 452/550/454 498/602/500 499/603/501
f 498/602/500 452/550/454 451/549/453
f 190/228/191 499/603/501 242/288/243
f 499/603/501 190/228/191 452/550/454
f 500/604/502 446/544/448 497/601/499
f 446/544/448 500/604/502 464/562/466
f 477/575/479 500/604/502 501/605/503
f 500/604/502 477/575/479 464/562/466
f 451/549/453 501/605/503 498/602/500
f 501/605/503 451/549/453 477/575/479
f 497/601/499 487/591/489 467/565/469
f 487/591/489 497/601/499 496/600/498
f 496/600/498 223/269/224 487/591/489
f 223/269/224 496/600/498 239/285/240
f 457/555/459 498/602/500 455/553/457
f 498/602/500 457/555/459 499/603/501
f 242/288/243 457/555/459 193/231/194
f 457/555/459 242/288/243 499/603/501
f 469/567/471 497/601/499 467/565/469
f 497/601/499 469/567/471 500/604/502
f 479/577/481 500/604/502 469/567/471
f 500/604/502 479/577/481 501/605/503
f 455/553/457 501/605/503 479/577/481
f 501/605/503 455/553/457 498/602/500
f 502/606/504 43/43/43 196/234/197
f 333/395/334 43/43/43 502/606/504
f 502/606/504 196/234/197 462/560/464
f 352/414/353 353/415/354 475/573/477
f 474/572/476 475/573/477 353/415/354
f 482/580/484 474/572/476 353/415/354
f 353/415/354 320/382/321 482/580/484
f 320/382/321 503/607/505 482/580/484
f 503/607/505 320/382/321 322/384/323
f 503/607/505 463/561/465 482/580/484
f 2/2/2 302/364/303 494/598/496
f 495/599/497 494/598/496 302/364/303
f 2/2/2 494/598/496 236/282/237
f 302/364/303 352/414/353 495/599/497
f 475/573/477 495/599/497 352/414/353
f 503/607/505 502/606/504 462/560/464
f 462/560/464 463/561/465 503/607/505
f 504/608/506 322/609/323 333/610/334
f 322/609/323 504/608/506 505/611/507
f 506/612/508 333/613/334 502/614/504
f 333/613/334 506/612/508 504/615/506
f 507/616/509 506/612/508 502/614/504
f 502/614/504 503/617/505 507/616/509
f 322/609/323 507/616/509 503/617/505
f 507/616/509 322/609/323 505/611/507
f 504/608/506 508/618/510 505/611/507
f 508/618/510 504/608/506 509/619/511
f 507/616/509 508/618/510 509/620/511
f 507/616/509 509/620/511 506/612/508
f 504/615/506 506/612/508 509/620/511
f 508/618/510 507/616/509 505/611/507
f 510/621/512 511/622/513 512/623/514
f 511/622/513 510/621/512 513/624/515
f 514/625/516 512/623/514 515/626/517
f 512/623/514 514/625/516 510/621/512
f 516/627/518 515/626/517 517/628/519
f 515/626/517 516/627/518 514/625/516
f 518/629/520 517/628/519 519/630/521
f 517/628/519 518/629/520 516/627/518
f 513/624/515 519/631/521 511/622/513
f 519/631/521 513/624/515 518/632/520
f 520/633/522 513/624/515 510/621/512
f 513/624/515 520/633/522 521/634/523
f 522/635/524 510/621/512 514/625/516
f 510/621/512 522/635/524 520/633/522
f 523/636/525 522/635/524 516/627/518
f 514/625/516 516/627/518 522/635/524
f 524/637/526 516/627/518 518/629/520
f 516/627/518 524/637/526 523/636/525
f 521/634/523 518/632/520 513/624/515
f 518/632/520 521/634/523 524/638/526
f 525/639/527 521/634/523 520/633/522
f 525/639/527 520/633/522 522/635/524
f 525/639/527 522/635/524 523/636/525
f 525/639/527 523/636/525 524/637/526
f 525/639/527 524/638/526 521/634/523
f 526/640/528 527/641/529 528/642/530
f 527/641/529 526/640/528 529/643/531
f 530/644/532 528/645/530 531/646/533
f 528/645/530 530/644/532 526/647/528
f 532/648/534 531/646/533 533/649/535
f 531/646/533 532/648/534 530/644/532
f 534/650/536 533/649/535 535/651/537
f 533/649/535 534/650/536 532/648/534
f 529/643/531 535/651/537 527/641/529
f 535/651/537 529/643/531 534/650/536
f 536/652/538 529/643/531 526/640/528
f 529/643/531 536/652/538 537/653/539
f 538/654/540 526/647/528 530/644/532
f 526/647/528 538/654/540 536/655/538
f 539/656/541 530/644/532 532/648/534
f 530/644/532 539/656/541 538/654/540
f 540/657/542 539/656/541 534/650/536
f 532/648/534 534/650/536 539/656/541
f 537/653/539 534/650/536 529/643/531
f 534/650/536 537/653/539 540/657/542
f 541/658/543 537/653/539 536/652/538
f 541/658/543 536/655/538 538/654/540
f 541/658/543 538/654/540 539/656/541
f 541/658/543 539/656/541 540/657/542
f 541/658/543 540/657/542 537/653/539
f 542/659/544 543/660/545 544/661/546
f 543/660/545 542/659/544 545/662/547
f 546/663/548 544/664/546 547/665/549
f 544/664/546 546/663/548 542/666/544
f 548/667/550 547/665/549 549/668/551
f 547/665/549 548/667/550 546/663/548
f 550/669/552 549/668/551 551/670/553
f 549/668/551 550/669/552 548/667/550
f 545/662/547 551/670/553 543/660/545
f 551/670/553 545/662/547 550/669/552
f 552/671/554 545/662/547 542/659/544
f 545/662/547 552/671/554 553/672/555
f 554/673/556 542/666/544 546/663/548
f 542/666/544 554/673/556 552/674/554
f 555/675/557 546/663/548 548/667/550
f 546/663/548 555/675/557 554/673/556
f 556/676/558 555/675/557 550/669/552
f 548/667/550 550/669/552 555/675/557
f 553/672/555 550/669/552 545/662/547
f 550/669/552 553/672/555 556/676/558
f 557/677/559 553/672/555 552/671/554
f 557/677/559 552/674/554 554/673/556
f 557/677/559 554/673/556 555/675/557
f 557/677/559 555/675/557 556/676/558
f 557/677/559 556/676/558 553/672/555
