# Blender 4.5.1 LTS
# www.blender.org
mtllib geonodes2.mtl
o Icosphere
v 3.715938 1.216630 7.244681
v 7.702303 -1.855459 10.272671
v 2.132346 -3.052883 10.690299
v -0.937833 1.172819 10.690319
v 2.234339 5.906666 10.359520
v 8.392911 4.322167 10.050399
v 5.234000 -3.334445 15.409967
v -0.089269 -1.438784 15.133533
v -0.089269 3.784423 15.133533
v 5.472993 6.339294 15.599818
v 9.053946 1.153559 15.591135
v 3.898638 1.182347 19.411877
v 3.605493 -1.610970 6.550889
v 6.002740 -0.423658 8.254910
v 6.502351 -3.950171 9.014077
v 8.278796 1.242589 9.975665
v 5.899034 2.805649 8.105457
v 0.897330 1.171823 8.638194
v 0.086674 -1.310976 10.300260
v 2.855570 4.106604 7.879295
v 0.086674 3.656614 10.300259
v 5.459285 5.968577 9.545300
v 8.718838 -0.548133 12.863659
v 8.846402 2.811434 12.864607
v 3.505349 -3.794806 12.911917
v 7.367210 -3.295048 12.941609
v -1.219157 -0.362238 12.911917
v 0.585442 -2.846068 12.911918
v 0.585442 5.191707 12.911916
v -1.219157 2.707877 12.911917
v 6.985409 5.784741 12.905830
v 4.106549 7.677689 13.007922
v 7.995304 -2.185950 16.318680
v 2.199505 -2.846042 15.523582
v -0.720358 1.172820 15.523573
v 2.229818 5.305753 15.621530
v 7.957754 4.074636 16.085171
v 4.215882 -1.280869 17.038992
v 6.631493 1.115502 18.145863
v 1.410541 -0.437874 17.557400
v 1.392665 2.726968 17.185020
v 4.579668 4.241102 18.191967
v 2.760662 -4.164933 6.279266
v 6.153357 -5.424805 12.631063
v 0.560437 -9.901676 10.365055
v -4.391659 -4.943104 7.845491
v -1.550338 1.299483 8.675331
v 4.413685 0.983222 11.361821
v 1.608924 -7.893517 17.603621
v -5.746907 -7.963229 14.836416
v -6.374398 -0.685741 13.267662
v -0.668392 2.798846 15.030868
v 3.745261 -1.317071 17.539997
v -2.742237 -2.412942 19.168331
v 1.968348 -7.763185 7.252896
v 6.273918 -5.975324 8.075837
v 5.018408 -9.218900 11.048904
v 6.393512 -2.355972 11.697354
v 4.640659 -1.379142 7.455411
v -0.950264 -4.483151 6.349996
v -2.396109 -8.186614 8.122349
v 0.606469 -1.411029 5.800290
v -3.474533 -2.003689 7.261421
v 1.699161 1.893981 9.543077
v 6.086213 -3.753970 15.790558
v 4.842076 0.341706 14.664923
v 1.304890 -10.136157 14.472267
v 4.846558 -7.701383 15.620876
v -5.830812 -6.783772 11.058030
v -3.162386 -9.974370 12.676223
v -5.050704 0.535805 10.676919
v -6.450710 -2.847775 10.298803
v 2.215810 2.750657 13.246283
v -1.288072 2.961131 11.699933
v 3.535617 -4.758043 18.784370
v -2.369767 -8.901466 16.792931
v -6.616888 -4.169244 14.050621
v -3.877894 1.756068 14.346137
v 1.855879 1.408796 16.829132
v -0.756159 -5.577112 19.543915
v 0.900069 -1.773480 20.180023
v -5.255036 -5.539187 18.100624
v -5.759104 -1.307037 16.861183
v -1.970205 0.832177 17.719627
v 2.357980 0.855961 5.760894
v 5.908397 0.424862 12.564890
v 1.145252 -3.916486 11.540372
v -4.696383 -1.826205 8.212890
v -2.142159 6.412650 7.858100
v 4.221136 7.743953 9.626188
v 2.316867 -1.723003 18.710136
v -4.456726 -2.321388 15.513643
v -6.529838 3.662887 13.499395
v -1.613768 9.432800 14.752840
v 4.007060 5.863042 18.309250
v -2.621408 3.417804 19.294111
v 2.263503 -2.279610 8.038404
v 4.959772 0.410985 9.091507
v 4.169172 -2.411462 11.897902
v 6.041245 3.795464 11.115264
v 3.709026 4.280294 7.303354
v -0.806264 -1.045675 5.989748
v -1.619022 -3.103990 9.750361
v 0.393212 3.630468 5.935928
v -3.745067 2.406258 7.621511
v 0.876825 7.168038 8.285099
v 5.718065 2.717406 15.072357
v 4.953213 7.404257 14.243179
v 1.939655 -3.539519 14.816388
v 4.812403 -1.033831 15.495180
v -5.460741 -2.349561 11.867914
v -1.632218 -3.971302 13.486739
v -5.610233 5.702276 10.617270
v -7.392580 1.159367 11.046487
v 1.545156 8.534226 12.307288
v -2.302490 8.411019 10.796104
v 3.894368 1.635748 19.625322
v -1.056553 -2.556638 17.017960
v -7.182734 0.739009 14.989906
v -4.698368 6.882726 14.088609
v 1.589039 8.265343 16.715334
v -0.260119 0.565260 19.943687
v 0.861334 4.757777 19.585207
v -4.375802 0.113193 18.451231
v -5.937865 3.924227 17.171049
v -2.873535 7.512337 18.808479
v -1.834920 1.927199 6.239402
v -0.001047 1.888843 9.194981
v -2.420635 -0.635502 8.208079
v -5.865048 0.555573 6.231121
v -4.214219 4.595755 6.800092
v -0.826078 5.140444 7.720976
v -1.853265 0.943013 11.626766
v -6.265708 -0.058745 10.656359
v -6.640852 3.648759 9.677340
v -3.659861 5.988119 10.028368
v -1.054034 4.026714 11.330440
v -4.067341 3.227287 12.162530
v -1.877513 -0.467841 5.660099
v -0.420900 1.811106 6.961239
v -0.855222 0.467795 8.827780
v -0.063686 3.452611 8.532995
v -0.981114 3.677000 6.621029
v -3.636705 1.026144 5.321054
v -4.582122 -1.067732 6.285645
v -2.937568 3.361850 6.376620
v -4.975967 2.941796 6.371602
v -2.384059 5.186615 7.151239
v -0.104319 3.009026 10.420606
v -0.715482 4.694245 9.842131
v -1.946700 -0.054594 10.299540
v -0.574083 1.196459 10.594781
v -6.424379 -0.284436 8.225641
v -4.478249 -1.164003 9.231504
v -5.480300 4.348641 7.953154
v -6.392692 2.078179 7.966480
v -2.020519 6.396422 8.729692
v -4.133601 6.013344 8.138975
v -1.193077 2.452983 11.849543
v -3.452208 0.406149 11.373617
v -7.444650 1.693169 10.536831
v -5.746135 5.550886 9.946669
v -2.184398 5.177915 10.916543
v -2.948251 1.978502 12.329771
v -2.478470 3.791046 12.155598
v -5.387917 1.777599 11.933237
v -6.592285 3.941837 11.761879
v -4.092376 4.864268 11.476748
v 0.140272 1.231855 9.713493
v 1.585047 0.944687 -1.541536
v 1.045565 0.453051 9.650165
v 1.912506 -0.659749 -1.532269
v 0.323526 -1.329885 -1.499727
v -0.360131 -1.817172 -1.357775
v -1.468261 -0.495685 -1.363147
v -0.769203 -0.698808 9.615553
v -1.475372 0.645611 -1.500643
v -0.787802 1.007036 9.506365
v 0.272205 1.333394 4.707391
v 1.405439 -0.012096 5.395474
v 0.819921 -1.410944 3.925935
v -0.877271 -1.123828 3.777298
v -1.376571 -0.256979 3.624842
v -1.250565 0.746203 3.920630
v 1.075171 0.900441 5.648381
v 1.414324 -1.005960 1.640541
v -0.262230 -1.665105 2.919191
v -1.190221 -1.417322 3.058077
v -0.195390 1.997899 -1.508480
v 1.011870 0.948098 7.058945
v 1.346418 0.298350 6.974873
v 0.840869 -0.729979 9.521393
v 0.237103 -1.249504 7.053214
v -0.489748 -1.429236 7.100997
v -1.480059 -0.177311 7.145722
v -1.035885 1.206665 6.093321
v -1.211920 0.543319 6.042354
v -0.988560 1.221467 4.186998
v 0.407749 -1.201191 8.076662
v -0.676216 -1.318692 8.294346
v -0.439944 1.332051 8.276209
v 0.032610 -2.677507 9.945601
v 0.318389 -3.644869 10.021773
v 0.420165 -4.921049 13.623391
v -0.037994 -5.223063 13.124851
v 0.067659 -5.557050 15.395844
v 0.548675 -5.145885 13.088948
v 3.523229 1.578598 10.767679
v 3.246181 0.660262 8.077789
v 3.592921 0.696968 10.363977
v 2.873345 1.540180 8.413880
v 5.879780 2.759556 15.437773
v 5.309371 2.225611 12.708458
v -2.699832 1.509554 7.253113
v -2.043001 2.152408 5.824538
v -2.254594 1.962278 7.275312
v -2.808178 2.059215 6.968058
v -3.392133 2.366593 8.019158
v -2.788499 2.323205 5.911955
v -2.914270 1.848353 6.129352
v -3.195897 2.275994 6.916994
v -3.954071 2.912312 7.334998
v -0.996142 0.943202 8.347473
v -1.741419 2.519935 10.044455
v -2.554865 3.641181 11.484667
vn 0.5060 0.1868 -0.8420
vn 0.6781 -0.1941 -0.7089
vn -0.4342 0.2306 -0.8708
vn -0.4431 0.0644 -0.8942
vn 0.1826 0.2624 -0.9475
vn 0.9422 -0.2010 -0.2682
vn -0.2569 -0.9532 -0.1595
vn -0.8897 -0.3151 -0.3304
vn -0.6948 0.6701 -0.2612
vn 0.5049 0.8435 -0.1832
vn 0.8883 -0.4423 -0.1236
vn 0.8887 -0.4409 -0.1262
vn 0.8899 -0.4387 -0.1246
vn -0.3066 -0.9435 -0.1256
vn -0.9921 -0.0000 -0.1256
vn -0.5685 0.8106 -0.1402
vn 0.8395 0.5234 0.1457
vn 0.0006 -0.6213 0.7836
vn -0.4972 -0.6491 0.5757
vn -0.7097 0.2688 0.6512
vn -0.2470 0.7899 0.5613
vn -0.2457 0.7967 0.5521
vn -0.2490 0.7930 0.5561
vn 0.7159 0.1535 0.6811
vn 0.4114 0.2572 0.8744
vn 0.5120 0.3244 0.7954
vn 0.4372 0.6194 0.6521
vn -0.4476 0.4155 0.7919
vn -0.4801 0.5635 0.6723
vn -0.5060 0.5613 0.6549
vn -0.6312 0.0871 0.7707
vn -0.6537 0.0848 0.7520
vn -0.7640 -0.2720 0.5851
vn -0.0776 -0.6969 0.7130
vn -0.0576 -0.6551 0.7533
vn -0.0748 -0.6422 0.7629
vn 0.3106 -0.6384 0.7042
vn 0.0569 -0.4654 0.8833
vn 0.7239 -0.0802 0.6852
vn 0.9354 0.3292 0.1290
vn 0.8475 0.5301 0.0259
vn 0.6372 0.7430 0.2048
vn -0.2512 0.7997 0.5454
vn -0.2532 0.8026 0.5401
vn -0.2557 0.7962 0.5483
vn -0.5549 0.7743 0.3042
vn -0.5662 0.7632 0.3115
vn -0.9050 0.2680 0.3304
vn -0.9822 -0.0000 0.1876
vn -0.9050 -0.2680 0.3304
vn -0.5346 -0.7779 0.3304
vn -0.3035 -0.9342 0.1876
vn -0.1428 -0.9510 0.2741
vn 0.3020 -0.9209 0.2463
vn 0.8968 -0.4419 -0.0217
vn 0.9552 -0.2891 0.0630
vn 0.5476 0.8254 0.1375
vn 0.5337 0.8223 -0.1974
vn -0.1381 0.8656 -0.4812
vn -0.8026 0.5831 0.1256
vn -0.7947 0.5773 -0.1876
vn -0.8897 0.3151 -0.3304
vn -0.8026 -0.5831 0.1256
vn -0.7947 -0.5773 -0.1876
vn -0.5746 -0.7488 -0.3304
vn 0.1271 -0.9874 0.0940
vn 0.1261 -0.9826 0.1361
vn 0.8913 -0.4364 -0.1235
vn 0.8899 -0.4387 -0.1249
vn 0.8923 -0.4339 -0.1247
vn 0.9944 -0.0377 -0.0986
vn 0.9842 -0.0373 -0.1731
vn 0.9837 -0.0366 -0.1759
vn 0.9839 -0.0322 -0.1758
vn 0.9838 -0.0295 -0.1768
vn 0.3806 0.4264 -0.8205
vn 0.2482 0.4297 -0.8682
vn -0.1680 0.7773 -0.6062
vn -0.5888 0.5769 -0.5662
vn -0.6594 0.2573 -0.7064
vn -0.7305 0.1987 -0.6534
vn -0.7345 -0.1935 -0.6504
vn -0.7306 -0.1988 -0.6532
vn -0.7262 -0.2081 -0.6553
vn -0.7216 -0.2067 -0.6607
vn -0.5316 -0.7231 -0.4411
vn 0.6164 -0.0037 -0.7874
vn 0.6109 -0.0170 -0.7915
vn 0.3856 -0.0303 -0.9222
vn -0.3327 -0.8475 -0.4136
vn 0.6048 -0.0848 -0.7918
vn 0.7519 -0.0352 -0.6583
vn 0.3012 -0.3103 -0.9017
vn 0.9971 -0.0675 0.0346
vn 0.0041 -0.2620 -0.9651
vn -0.0038 -0.1743 -0.9847
vn 0.3752 0.1340 -0.9172
vn 0.9966 -0.0616 0.0538
vn 0.1637 -0.9828 -0.0858
vn -0.6772 -0.4653 -0.5700
vn -0.4981 0.5699 -0.6536
vn 0.4595 0.8491 -0.2605
vn 0.9363 -0.3018 0.1795
vn -0.0143 -0.9984 -0.0544
vn -0.8329 -0.2284 -0.5040
vn -0.4124 0.8131 -0.4109
vn 0.6567 0.7517 0.0608
vn 0.2398 -0.4677 0.8507
vn -0.5071 -0.6536 0.5618
vn -0.9764 0.1098 0.1862
vn -0.3607 0.8274 0.4305
vn 0.5261 0.5367 0.6597
vn -0.3114 0.4482 0.8379
vn 0.0540 0.7163 0.6957
vn 0.0177 0.8029 0.5958
vn -0.4318 0.4513 0.7809
vn -0.5109 0.7108 0.4835
vn -0.7297 0.6418 0.2359
vn -0.5581 0.1713 0.8119
vn -0.9498 -0.0217 0.3120
vn -0.9505 -0.1632 0.2644
vn -0.3051 -0.0789 0.9490
vn -0.2619 -0.5367 0.8021
vn 0.0052 -0.6390 0.7692
vn -0.2594 -0.0483 0.9646
vn 0.2150 -0.2514 0.9437
vn 0.6430 0.2255 0.7319
vn 0.6067 0.5661 0.5581
vn 0.5270 0.7771 0.3440
vn 0.2388 0.9013 0.3615
vn -0.3278 0.9387 0.1067
vn -0.5152 0.8489 -0.1176
vn -0.6955 0.7184 -0.0166
vn -0.9977 0.0646 -0.0214
vn -0.9791 -0.1744 -0.1048
vn -0.9711 -0.2333 -0.0513
vn -0.4142 -0.8581 0.3034
vn -0.1452 -0.9502 0.2756
vn 0.0892 -0.8138 0.5742
vn 0.4607 -0.5465 0.6994
vn 0.7759 -0.2682 0.5711
vn 0.7116 0.2002 0.6734
vn 0.0419 0.9983 0.0408
vn 0.1651 0.9556 -0.2441
vn -0.0325 0.8772 -0.4791
vn -0.8804 0.3938 -0.2642
vn -0.7141 0.3624 -0.5990
vn -0.7237 0.0899 -0.6842
vn -0.6999 -0.6861 -0.1986
vn -0.6076 -0.6992 -0.3767
vn -0.2238 -0.8938 -0.3886
vn 0.3636 -0.7737 0.5188
vn 0.4752 -0.8296 0.2932
vn 0.9290 -0.3394 0.1476
vn 0.7730 0.3754 0.5115
vn 0.9256 0.3314 0.1827
vn 0.8607 0.5090 -0.0128
vn 0.5277 0.7401 -0.4169
vn 0.2737 0.6799 -0.6803
vn 0.0426 0.7427 -0.6683
vn -0.3526 0.5343 -0.7682
vn -0.3374 0.0025 -0.9414
vn -0.3910 -0.0605 -0.9184
vn -0.3485 -0.2905 -0.8912
vn -0.1450 -0.3805 -0.9133
vn -0.0358 -0.8160 -0.5769
vn 0.8455 0.4772 -0.2395
vn 0.9081 0.2808 -0.3106
vn 0.4751 0.0503 -0.8785
vn 0.2049 -0.8475 -0.4896
vn 0.4030 -0.6983 -0.5916
vn 0.9487 -0.3099 0.0626
vn 0.6751 -0.4468 -0.5871
vn 0.9540 -0.1494 -0.2600
vn 0.2860 -0.5688 -0.7712
vn -0.0771 0.0083 -0.9970
vn 0.3180 0.2823 -0.9051
vn 0.9968 -0.0048 0.0801
vn 0.4461 -0.8950 -0.0052
vn -0.2914 -0.9365 -0.1950
vn -0.6312 0.2949 -0.7174
vn -0.0366 0.9481 -0.3159
vn 0.9462 -0.1998 0.2545
vn 0.0851 -0.9920 0.0935
vn -0.8238 -0.5110 -0.2454
vn -0.5343 0.6851 -0.4952
vn 0.3034 0.9526 0.0220
vn 0.1557 -0.3271 0.9321
vn -0.3199 -0.7251 0.6098
vn -0.9506 0.2802 0.1333
vn -0.6490 0.7456 0.1515
vn 0.0994 0.6177 0.7801
vn -0.1245 0.1093 0.9862
vn 0.2650 0.5771 0.7725
vn 0.0559 0.8955 0.4414
vn -0.5306 0.0675 0.8449
vn -0.7894 0.5695 0.2292
vn -0.8725 0.4768 0.1067
vn -0.5308 0.0663 0.8449
vn -0.7816 -0.1144 0.6132
vn -0.6981 -0.5417 0.4682
vn -0.3342 -0.0625 0.9404
vn -0.1977 -0.6430 0.7399
vn -0.2131 -0.6386 0.7394
vn -0.1279 0.1184 0.9847
vn 0.0584 0.0695 0.9959
vn 0.2751 0.2791 0.9200
vn 0.4951 0.7680 0.4063
vn 0.2857 0.9567 0.0555
vn 0.3122 0.9484 0.0547
vn -0.6259 0.7744 -0.0920
vn -0.6226 0.7771 -0.0923
vn -0.6293 0.7705 -0.1012
vn -0.6274 0.7726 -0.0979
vn -0.8724 0.4845 0.0644
vn -0.9637 0.2552 0.0785
vn -0.8755 -0.4832 -0.0049
vn -0.7476 -0.6298 0.2107
vn -0.2359 -0.8882 0.3943
vn -0.0279 -0.9263 0.3756
vn 0.0125 -0.9066 0.4218
vn 0.7409 -0.4768 0.4729
vn 0.9265 -0.1869 0.3267
vn 0.9158 0.0970 0.3898
vn 0.0717 0.9627 -0.2611
vn 0.1016 0.9367 -0.3350
vn -0.1249 0.8172 -0.5627
vn -0.9314 0.3615 -0.0414
vn -0.7065 0.2134 -0.6747
vn -0.6935 0.0555 -0.7183
vn -0.4316 -0.8933 0.1258
vn -0.3017 -0.9285 -0.2166
vn -0.1382 -0.9646 -0.2244
vn 0.5877 -0.7536 0.2946
vn 0.6219 -0.7620 0.1806
vn 0.8458 -0.5309 0.0521
vn 0.9335 0.2045 0.2947
vn 0.9748 0.1819 0.1292
vn 0.9180 0.3788 -0.1177
vn 0.2420 0.5163 -0.8215
vn 0.2408 0.5146 -0.8229
vn 0.2409 0.5158 -0.8222
vn 0.2389 0.5154 -0.8229
vn 0.2389 0.5143 -0.8237
vn 0.2378 0.5138 -0.8243
vn -0.0213 0.5551 -0.8315
vn -0.4233 0.2212 -0.8786
vn -0.3988 0.0918 -0.9124
vn -0.4946 -0.0103 -0.8691
vn -0.1102 -0.8616 -0.4954
vn -0.0280 -0.8743 -0.4846
vn 0.0066 -0.9067 -0.4217
vn 0.8463 0.2047 -0.4918
vn 0.8545 0.0368 -0.5181
vn 0.7856 -0.0316 -0.6179
vn 0.4549 -0.8536 -0.2538
vn 0.7238 -0.5778 -0.3771
vn 0.8527 -0.4685 -0.2310
vn 0.4584 0.2012 -0.8657
vn 0.9823 -0.0382 -0.1833
vn 0.3567 0.2136 -0.9095
vn 0.3002 0.3168 -0.8998
vn 0.0956 0.1673 -0.9812
vn 0.9979 0.0545 0.0343
vn 0.5438 -0.8322 0.1079
vn -0.6993 -0.5673 -0.4350
vn -0.6462 0.4561 -0.6118
vn 0.2503 0.7397 -0.6246
vn 0.9364 -0.2161 0.2764
vn 0.3289 -0.9265 0.1828
vn -0.9608 -0.0175 -0.2768
vn -0.6151 0.5596 -0.5554
vn 0.7587 0.6444 0.0960
vn 0.3221 -0.2745 0.9060
vn -0.1280 -0.5242 0.8419
vn -0.9291 0.3686 -0.0302
vn -0.1903 0.8023 0.5657
vn 0.3299 0.5891 0.7377
vn -0.1313 0.3813 0.9151
vn 0.1145 0.6483 0.7528
vn 0.0543 0.7810 0.6222
vn -0.0371 0.3856 0.9219
vn -0.2203 0.7786 0.5875
vn -0.9020 0.4299 -0.0394
vn -0.1597 -0.0107 0.9871
vn -0.5392 -0.2360 0.8084
vn -0.5273 -0.3006 0.7948
vn -0.1596 -0.0108 0.9871
vn -0.0998 -0.4934 0.8640
vn 0.0435 -0.5292 0.8474
vn -0.0325 0.1040 0.9940
vn 0.2572 0.0262 0.9660
vn 0.4560 0.2422 0.8564
vn 0.5570 0.7016 0.4445
vn 0.5560 0.7019 0.4453
vn 0.5554 0.7043 0.4422
vn 0.5516 0.7085 0.4402
vn 0.5531 0.7095 0.4368
vn 0.5561 0.7070 0.4369
vn 0.1747 0.8545 0.4892
vn -0.2135 0.9747 0.0655
vn -0.2071 0.9762 0.0650
vn -0.2053 0.9769 0.0588
vn -0.6706 0.5923 -0.4466
vn -0.8181 0.4376 -0.3730
vn -0.9130 0.2259 -0.3398
vn -0.9235 -0.0296 -0.3824
vn -0.8283 -0.5503 0.1052
vn -0.0198 -0.8018 0.5972
vn 0.1340 -0.8288 0.5433
vn 0.1738 -0.7930 0.5838
vn 0.6260 -0.3746 0.6840
vn 0.8141 -0.1573 0.5591
vn 0.7599 0.1421 0.6343
vn -0.1948 0.9789 0.0619
vn -0.1977 0.9779 0.0677
vn -0.1884 0.9802 0.0613
vn 0.0279 0.7903 -0.6121
vn -0.0832 0.6868 -0.7221
vn -0.8391 0.3347 -0.4289
vn -0.7879 0.3135 -0.5301
vn -0.7873 0.3191 -0.5275
vn -0.7846 0.3128 -0.5354
vn -0.7908 0.3250 -0.5187
vn -0.7876 0.3243 -0.5240
vn -0.7881 0.3187 -0.5266
vn -0.4567 -0.8826 0.1118
vn -0.4051 -0.9141 -0.0156
vn 0.2299 -0.9724 -0.0399
vn 0.5295 -0.6956 0.4856
vn 0.6345 -0.7449 0.2062
vn 0.8443 -0.5292 0.0839
vn 0.8209 0.4276 0.3785
vn 0.9223 0.3713 0.1071
vn 0.9026 0.4284 0.0431
vn 0.3007 0.5525 -0.7774
vn 0.0550 0.3760 -0.9250
vn 0.0562 0.3756 -0.9251
vn -0.0540 0.2737 -0.9603
vn -0.0868 0.4317 -0.8978
vn -0.4067 0.2040 -0.8905
vn -0.3125 -0.2775 -0.9085
vn -0.1322 -0.3649 -0.9216
vn 0.2123 -0.9770 -0.0190
vn 0.8911 0.2086 -0.4031
vn 0.8931 0.1942 -0.4058
vn 0.4528 -0.0266 -0.8912
vn 0.5577 -0.8275 0.0644
vn 0.8686 -0.4753 -0.1399
vn 0.8663 -0.4786 -0.1431
vn 0.8705 -0.4712 -0.1419
vn 0.8626 -0.4854 -0.1424
vn 0.8641 -0.4818 -0.1457
vn 0.8663 -0.4788 -0.1424
vn -0.7923 0.5095 0.3356
vn 0.7244 -0.6831 -0.0926
vn 0.2622 -0.9643 -0.0384
vn 0.9773 0.1999 0.0705
vn 0.9765 0.2034 0.0708
vn 0.9771 0.1995 0.0741
vn -0.1684 -0.9855 0.0195
vn 0.4818 0.8762 -0.0080
vn 0.0073 -0.9051 0.4252
vn -0.9974 -0.0063 0.0721
vn 0.3389 0.3108 -0.8880
vn -0.7886 -0.3675 0.4931
vn -0.1870 -0.8858 0.4247
vn 0.5825 -0.8127 0.0156
vn -0.2522 -0.9669 0.0401
vn 0.3437 -0.9324 0.1122
vn 0.3880 0.9212 0.0289
vn 0.9531 -0.2921 0.0796
vn 0.2313 -0.9660 -0.1157
vn -0.5602 -0.8283 -0.0108
vn -0.9633 0.2606 -0.0639
vn -0.9928 0.1132 0.0391
vn -0.9849 -0.1710 0.0263
vn -0.7633 -0.6404 -0.0855
vn 0.4397 0.8976 0.0300
vn 0.4348 0.8999 0.0344
vn 0.4406 0.8970 0.0368
vn -0.4112 0.9024 0.1287
vn -0.4135 0.9015 0.1275
vn -0.4140 0.9009 0.1301
vn -0.2684 0.9474 0.1744
vn 0.8950 -0.4269 -0.1291
vn 0.9782 -0.1804 0.1025
vn 0.6531 0.7567 0.0297
vn 0.7475 -0.6598 0.0775
vn -0.8677 -0.4968 0.0172
vn -0.9905 0.1339 -0.0321
vn -0.9040 0.4236 0.0570
vn -0.0907 0.9959 0.0055
vn -0.7261 0.6874 0.0174
vn -0.9998 -0.0040 0.0186
vn 0.5512 -0.8344 -0.0045
vn 0.3873 -0.9207 -0.0492
vn 0.5091 0.8590 0.0535
vn 0.9430 0.3307 0.0381
vn 0.9191 -0.3803 0.1028
vn 0.0263 0.9929 0.1156
vn -0.5790 0.8071 -0.1152
vn 0.1142 0.9932 0.0232
vn 0.1143 0.9933 0.0190
vn 0.1129 0.9932 0.0271
vn -0.9508 -0.3008 0.0742
vn -0.5933 -0.8050 0.0008
vn 0.8725 -0.4722 0.1254
vn 0.9757 0.0520 0.2127
vn -0.4832 -0.7567 -0.4404
vn -0.0133 0.7893 0.6139
vn -0.0100 0.7856 0.6186
vn -0.0038 0.7841 0.6206
vn -0.7644 0.5115 0.3926
vn 0.0408 0.7801 0.6244
vn 0.9750 -0.1591 -0.1551
vn -0.8396 -0.5370 -0.0815
vn 0.1488 -0.7676 -0.6234
vn 0.1199 -0.9814 -0.1499
vn 0.0902 -0.8919 -0.4432
vn -0.6468 0.7496 0.1403
vn 0.9768 -0.1541 -0.1488
vn 0.9439 0.3167 0.0937
vn -0.8134 0.4627 0.3524
vn -0.7070 0.6829 0.1840
vn -0.2731 0.9609 -0.0447
vn 0.6574 -0.7535 0.0100
vn 0.6518 -0.7584 0.0089
vn 0.6555 -0.7552 0.0032
vn -0.7087 -0.4366 0.5541
vn 0.6554 0.4958 -0.5698
vn 0.6507 0.4988 -0.5725
vn 0.6520 0.4991 -0.5707
vn 0.4014 -0.9147 -0.0462
vn 0.0978 0.9726 -0.2107
vn -0.3566 0.9305 0.0833
vn -0.8234 -0.2888 0.4885
vn -0.7742 -0.3131 0.5500
vn 0.7213 0.4919 -0.4876
vn 0.7349 -0.6707 -0.1007
vn 0.7176 0.4159 -0.5586
vn 0.7160 0.4148 -0.5615
vn 0.7149 0.4186 -0.5600
vn -0.1100 -0.9760 0.1877
vn -0.7861 -0.0728 -0.6138
vn 0.4529 0.8629 0.2241
vn -0.5442 -0.8024 0.2449
vn -0.5413 -0.8048 0.2434
vn -0.5397 -0.8049 0.2468
vn -0.9816 -0.1142 0.1529
vn 0.6444 0.7405 0.1910
vn 0.6812 0.7318 0.0226
vn 0.6821 0.7310 0.0188
vn 0.6782 0.7345 0.0228
vn -0.3360 0.5946 -0.7304
vn 0.5343 -0.2048 0.8201
vn -0.6431 -0.7584 -0.1059
vn 0.1579 0.8987 -0.4092
vn 0.4439 -0.4738 0.7606
vn 0.0933 0.9854 0.1427
vn 0.3870 -0.4208 0.8205
vn 0.2434 0.9399 0.2395
vn -0.4950 -0.8262 0.2690
vn -0.4967 -0.8248 0.2702
vn -0.4989 -0.8238 0.2692
vn 0.7060 0.6318 0.3201
vn 0.7061 0.6337 0.3160
vn 0.7033 0.6369 0.3159
vn 0.2472 0.9584 -0.1429
vn -0.8561 -0.3607 -0.3701
vn -0.8101 -0.0527 -0.5839
vn -0.8110 -0.0528 -0.5827
vn -0.5812 -0.8110 -0.0670
vn -0.5616 0.4685 -0.6820
vn -0.4656 0.5370 -0.7034
vn 0.8565 0.5087 0.0877
vn -0.7543 -0.6340 0.1705
vn 0.8442 0.4088 0.3467
vn 0.1561 -0.9519 0.2637
vn -0.0376 -0.0462 0.9982
vn -0.0382 -0.0290 -0.9988
vn 0.8749 0.4191 0.2425
vn -0.1709 -0.8840 0.4351
vt 0.683431 0.843511
vt 0.682725 0.788836
vt 0.733626 0.821701
vt 0.677014 0.731692
vt 0.625210 0.762352
vt 0.745896 0.147885
vt 0.748239 0.203652
vt 0.688629 0.147976
vt 0.731142 0.093315
vt 0.641036 0.877483
vt 0.633732 0.826854
vt 0.630168 0.705587
vt 0.471337 0.830636
vt 0.392398 0.784441
vt 0.486585 0.780995
vt 0.636182 0.141953
vt 0.650707 0.187498
vt 0.599881 0.160159
vt 0.693067 0.049444
vt 0.660130 0.095819
vt 0.635167 0.053825
vt 0.231401 0.875347
vt 0.200850 0.818077
vt 0.270599 0.823950
vt 0.684608 0.689845
vt 0.522975 0.827309
vt 0.605705 0.103499
vt 0.686901 -0.000000
vt 0.289842 0.875347
vt 0.147806 0.803819
vt 0.110117 0.832578
vt 0.106463 0.769521
vt 0.793085 0.130078
vt 0.748239 0.118816
vt 0.785057 0.072770
vt 0.879034 0.086176
vt 0.839679 0.106745
vt 0.839057 0.052101
vt 0.309321 0.777820
vt 0.295533 0.729793
vt 0.358377 0.760376
vt 0.050131 0.858725
vt 0.000111 0.838153
vt 0.046942 0.791420
vt 0.000000 0.762892
vt 0.050543 0.736067
vt 0.339131 0.831738
vt 0.831571 -0.000000
vt 0.781355 0.011776
vt 0.881651 0.048548
vt 0.100795 0.723009
vt 0.151749 0.758971
vt 0.345847 0.872722
vt 0.250520 0.762155
vt 0.237918 0.719811
vt 0.279156 0.703802
vt 0.881651 0.138220
vt 0.831132 0.164025
vt 0.774618 0.171485
vt 0.540715 0.775063
vt 0.501141 0.731735
vt 0.438518 0.731686
vt 0.479508 0.691718
vt 0.151749 0.865867
vt 0.097354 0.887681
vt 0.198282 0.758935
vt 0.593713 0.070508
vt 0.545065 0.869225
vt 0.490935 0.875157
vt 0.728874 0.736337
vt 0.576111 0.740763
vt 0.582071 0.689845
vt 0.575185 0.793801
vt 0.577975 0.850093
vt 0.748239 0.045379
vt 0.392398 0.868778
vt 0.810226 0.831020
vt 0.825499 0.752265
vt 0.878216 0.812859
vt 0.311388 0.436831
vt 0.354118 0.490879
vt 0.263696 0.460306
vt 0.831116 0.878752
vt 0.768836 0.878752
vt 0.748013 0.803144
vt 0.259051 0.403315
vt 0.314079 0.625551
vt 0.306409 0.703802
vt 0.236933 0.636702
vt 0.382718 0.511039
vt 0.362807 0.564232
vt 0.313630 0.490879
vt 0.544254 0.051609
vt 0.516231 0.119230
vt 0.467356 0.047953
vt 0.317047 0.175794
vt 0.253066 0.186408
vt 0.282885 0.123079
vt 0.332669 0.375508
vt 0.269315 0.554992
vt 0.480114 0.166311
vt 0.411200 0.174146
vt 0.433669 0.109687
vt 0.520689 -0.000000
vt 0.353173 0.121841
vt 0.329322 0.303460
vt 0.260924 0.327163
vt 0.280087 0.252116
vt 0.458723 0.656791
vt 0.392398 0.628677
vt 0.454094 0.579405
vt 0.574347 0.584326
vt 0.524441 0.620923
vt 0.525893 0.542203
vt 0.249173 0.070531
vt 0.199606 0.061375
vt 0.262210 0.017475
vt 0.368712 0.066376
vt 0.313351 0.059842
vt 0.345614 0.000000
vt 0.418104 0.475672
vt 0.505402 0.486298
vt 0.457900 0.513200
vt 0.209818 0.009339
vt 0.569367 0.527073
vt 0.392398 0.541399
vt 0.362545 0.251076
vt 0.204580 0.280176
vt 0.209037 0.354934
vt 0.213172 0.124531
vt 0.446188 0.000000
vt 0.410984 0.049509
vt 0.575185 0.652549
vt 0.510525 0.691718
vt 0.198282 0.560344
vt 0.237800 0.494958
vt 0.392398 0.329480
vt 0.198282 0.179309
vt 0.392398 0.427720
vt 0.198282 0.409997
vt 0.410983 0.119064
vt 0.375462 0.190821
vt 0.308515 0.251076
vt 0.231146 0.251076
vt 0.593713 0.122306
vt 0.548405 0.171558
vt 0.486384 0.223011
vt 0.559723 0.224896
vt 0.382718 0.643519
vt 0.749354 0.720457
vt 0.884203 0.716231
vt 0.625381 0.392744
vt 0.705846 0.387797
vt 0.664234 0.448817
vt 0.763931 0.379323
vt 0.735565 0.317466
vt 0.591337 0.438495
vt 0.163056 0.274703
vt 0.098808 0.280588
vt 0.169823 0.221573
vt 0.591337 0.346499
vt 0.652413 0.321504
vt 0.070668 0.692603
vt 0.017807 0.671730
vt 0.055262 0.630819
vt 0.054423 0.383399
vt 0.014014 0.357704
vt 0.079755 0.329508
vt 0.110105 0.506223
vt 0.078074 0.443493
vt 0.162450 0.456402
vt 0.154933 0.145027
vt 0.089217 0.195432
vt 0.079892 0.103242
vt 0.679499 0.686889
vt 0.619593 0.689845
vt 0.647792 0.619786
vt 0.118342 0.664096
vt 0.119229 0.382483
vt 0.188207 0.512197
vt 0.152121 0.082035
vt 0.725079 0.609442
vt 0.175768 0.612459
vt 0.115420 0.571333
vt 0.185741 0.550086
vt 0.407822 0.373752
vt 0.392398 0.313885
vt 0.460347 0.325266
vt 0.522193 0.426731
vt 0.475084 0.410236
vt 0.534266 0.361507
vt 0.139893 0.026335
vt 0.076402 0.052135
vt 0.067435 -0.000000
vt 0.748013 0.532820
vt 0.680127 0.541426
vt 0.712815 0.491014
vt 0.525918 0.251076
vt 0.591337 0.302292
vt 0.515869 0.292639
vt 0.626210 0.475672
vt 0.605768 0.553539
vt 0.575123 0.397383
vt 0.020089 0.094005
vt -0.000000 0.051836
vt 0.454408 0.257930
vt 0.397347 0.251076
vt 0.114350 0.512196
vt 0.052256 0.538218
vt 0.473175 0.475672
vt 0.401959 0.442848
vt 0.152366 0.334151
vt 0.188207 0.392531
vt 0.120652 0.280588
vt 0.575185 0.621711
vt 0.198282 0.147144
vt -0.000000 0.152640
vt 0.022102 0.243442
vt 0.185741 0.682465
vt 0.127507 0.723009
vt 0.000000 0.579457
vt 0.748013 0.678814
vt 0.616561 0.274729
vt 0.677935 0.251076
vt 0.026070 0.504895
vt -0.000000 0.434990
vt 0.740960 0.439428
vt 0.459924 0.929933
vt 0.441144 0.907345
vt 0.498666 0.904815
vt 0.417203 0.881741
vt 0.401481 0.909514
vt 0.498511 0.944959
vt 0.449952 0.958095
vt 0.423588 0.940682
vt 0.392398 0.885062
vt 0.979328 0.436046
vt 0.950295 0.453044
vt 0.953924 0.418108
vt 0.848142 0.386436
vt 0.836970 0.417498
vt 0.807724 0.374811
vt 0.976300 0.513692
vt 0.963576 0.546414
vt 0.943241 0.510596
vt 0.852175 0.283809
vt 0.860206 0.312517
vt 0.831164 0.312609
vt 0.919732 0.463258
vt 0.892340 0.448409
vt 0.925028 0.436521
vt 0.801034 0.450307
vt 0.764944 0.450869
vt 0.782072 0.412150
vt 0.942179 0.590402
vt 0.905758 0.592253
vt 0.920128 0.551475
vt 0.967155 0.479226
vt 0.811698 0.275245
vt 0.927367 0.404689
vt 0.896832 0.413987
vt 0.908303 0.381647
vt 0.966806 0.350541
vt 0.944111 0.383577
vt 0.922946 0.350541
vt 0.902479 0.511812
vt 0.871755 0.541354
vt 0.878505 0.492595
vt 0.803190 0.336472
vt 0.800749 0.370155
vt 0.774317 0.333514
vt 0.782402 0.273949
vt 0.788646 0.303061
vt 0.763931 0.296038
vt 0.632205 0.203652
vt 0.632205 0.241062
vt 0.618494 0.213767
vt 0.511220 0.922770
vt 0.511220 0.875157
vt 0.527418 0.901447
vt 0.763931 0.370325
vt 0.920155 0.475672
vt 0.952059 0.842343
vt 0.913881 0.870306
vt 0.911753 0.842421
vt 0.952059 0.892645
vt 0.919100 0.915002
vt 0.884203 0.856733
vt 0.875616 0.393535
vt 0.891130 0.369321
vt 0.871755 0.424913
vt 0.838417 0.347960
vt 0.946565 0.946708
vt 0.989325 0.392499
vt 1.000000 0.500473
vt 0.801160 0.251076
vt 0.837454 0.256589
vt 0.412357 0.968791
vt 0.392398 0.947249
vt 0.442178 0.982437
vt 0.993706 0.538555
vt 0.986577 0.587727
vt 0.951952 0.619074
vt 1.000000 0.612107
vt 0.848142 0.466209
vt 0.990826 0.475672
vt 0.448826 0.875157
vt 0.777402 0.171485
vt 0.807325 0.229001
vt 0.785972 0.218132
vt 0.389017 0.490879
vt 0.392398 0.504997
vt 0.389017 0.534169
vt 0.908717 0.232783
vt 0.925535 0.250776
vt 0.907820 0.333888
vt 0.951583 0.716231
vt 0.941049 0.800726
vt 0.911126 0.793162
vt 0.926294 0.176085
vt 0.941172 0.238010
vt 0.840097 0.549250
vt 0.844657 0.575917
vt 0.829430 0.595925
vt 0.593713 0.233588
vt 0.596663 0.203652
vt 0.616905 0.213384
vt 0.808750 0.171485
vt 0.382718 0.551416
vt 0.388745 0.527479
vt 0.388745 0.561294
vt 0.948878 0.097342
vt 0.967636 0.102104
vt 0.945222 0.112965
vt 0.846024 0.238261
vt 0.846024 0.171485
vt 0.859489 0.229432
vt 0.944145 0.250021
vt 0.918362 0.329205
vt 0.922415 0.132682
vt 0.816833 0.500646
vt 0.154791 0.811545
vt 0.175672 0.753792
vt 0.167509 0.871477
vt 0.938942 0.174729
vt 0.945222 0.153320
vt 0.825569 0.171485
vt 0.846024 0.195053
vt 0.833295 0.191531
vt 0.985249 0.093081
vt 0.983439 0.183807
vt 0.962616 0.184893
vt 0.945222 0.336666
vt 0.869138 0.712052
vt 0.808496 0.612334
vt 0.830047 0.716231
vt 0.809024 0.529139
vt 0.802518 0.505701
vt 0.945222 0.279597
vt 0.969658 0.289184
vt 0.981941 0.299052
vt 0.154659 0.745013
vt 0.838562 0.498968
vt 0.850865 0.549133
vt 0.182156 0.836519
vt 0.945222 0.022443
vt 0.970565 0.045566
vt 0.825569 0.219295
vt 0.927455 0.667926
vt 0.941623 0.700097
vt 0.918376 0.703357
vt 0.386210 0.846272
vt 0.386210 0.935290
vt 0.358377 0.915333
vt 0.154079 0.918176
vt 0.881651 0.336926
vt 0.185741 0.512197
vt 0.197305 0.518601
vt 0.185741 0.651161
vt 0.941623 0.626776
vt 0.358377 0.784417
vt 0.369910 0.788657
vt 0.384028 0.846272
vt 0.957405 -0.000000
vt 0.967786 0.842343
vt 0.977902 0.891282
vt 0.967786 0.955812
vt 0.151749 0.786578
vt 0.382718 0.518356
vt 0.388308 0.490879
vt 0.388308 0.527479
vt 0.918912 0.108974
vt 0.923833 0.043777
vt 0.959180 0.792024
vt 0.959220 0.723892
vt 0.970290 0.827977
vt 0.742829 0.760806
vt 0.733626 0.698738
vt 0.744147 0.689845
vt 0.951583 0.830998
vt 0.981941 0.236431
vt 0.747300 0.801830
vt 0.733626 0.813935
vt 0.913300 0.044479
vt 0.924641 0.000000
vt 0.197163 0.483319
vt 0.188207 0.483319
vt 0.192472 0.453828
vt 0.968399 0.184893
vt 0.951583 0.716231
vt 0.188207 0.429430
vt 0.197318 0.373675
vt 0.197318 0.453828
vt 0.865728 0.521479
vt 0.967786 0.923697
vt 0.952059 0.878123
vt 0.964702 0.842343
vt 0.552868 0.881415
vt 0.561382 0.794387
vt 0.566730 0.880933
vt 0.881651 0.326727
vt 0.865497 0.262311
vt 0.881651 0.264633
vt 0.848471 0.462344
vt 0.848142 0.408541
vt 0.866427 0.370325
vt 0.744152 0.864791
vt 0.733626 0.953401
vt 0.871755 0.475672
vt 0.545065 0.803419
vt 0.566730 0.691718
vt 0.871831 0.171485
vt 0.952059 0.947329
vt 0.864690 0.324741
vt 0.866427 0.440617
vt 0.188207 0.316552
vt 0.194997 0.280588
vt 0.197857 0.317551
vt 0.895593 0.641798
vt 0.888572 0.661128
vt 0.887157 0.640528
vt 0.638376 0.221037
vt 0.644240 0.203652
vt 0.644240 0.234919
vt 0.419388 0.224896
vt 0.427916 0.232391
vt 0.419388 0.245556
vt 0.902034 0.666743
vt 0.907277 0.639064
vt 0.188207 0.373675
vt 0.197972 0.369409
vt 0.498666 0.936411
vt 0.511220 0.899706
vt 0.511220 0.940019
vt 0.757927 0.171485
vt 0.777402 0.183531
vt 0.777402 0.236463
vt 0.499329 0.901009
vt 0.504685 0.875157
vt 0.632205 0.226776
vt 0.871755 0.628260
vt 0.888811 0.619074
vt 0.410984 0.250419
vt 0.410984 0.224896
vt 0.419388 0.246750
vt 0.748239 0.208530
vt 0.384028 0.703802
vt 0.375087 0.741024
vt 0.773610 0.499741
vt 0.748013 0.475672
vt 0.808750 0.232560
vt 0.825569 0.171485
vt 0.825569 0.245269
vt 0.618494 0.233588
vt 0.164944 0.723009
vt 0.192188 0.734946
vt 0.151749 0.728358
vt 0.945437 0.826430
vt 0.951583 0.837484
vt 0.922928 0.842344
vt 0.901959 0.835499
vt 0.884203 0.808495
s 0
usemtl Material.001
f 1/1/1 14/2/1 13/3/1
f 2/4/2 14/2/2 16/5/2
f 1/6/3 13/7/3 18/8/3
f 1/6/4 18/8/4 20/9/4
f 1/1/5 20/10/5 17/11/5
f 2/4/6 16/5/6 23/12/6
f 3/13/7 15/14/7 25/15/7
f 4/16/8 19/17/8 27/18/8
f 5/19/9 21/20/9 29/21/9
f 6/22/10 22/23/10 31/24/10
f 2/4/11 23/12/12 26/25/13
f 3/13/14 25/15/14 28/26/14
f 4/16/15 27/18/15 30/27/15
f 5/19/16 29/21/16 32/28/16
f 6/22/17 31/24/17 24/29/17
f 7/30/18 33/31/18 38/32/18
f 8/33/19 34/34/19 40/35/19
f 9/36/20 35/37/20 41/38/20
f 10/39/21 36/40/22 42/41/23
f 11/42/24 37/43/24 39/44/24
f 39/44/25 42/45/25 12/46/25
f 39/44/26 37/43/26 42/45/26
f 37/47/27 10/39/27 42/41/27
f 42/48/28 41/38/28 12/49/28
f 42/48/29 36/50/29 41/38/29
f 36/50/30 9/36/30 41/38/30
f 41/38/31 40/35/31 12/49/31
f 41/38/32 35/37/32 40/35/32
f 35/37/33 8/33/33 40/35/33
f 40/51/34 38/32/34 12/46/34
f 40/51/35 34/52/35 38/32/35
f 34/52/36 7/30/36 38/32/36
f 38/32/37 39/44/37 12/46/37
f 38/32/38 33/31/38 39/44/38
f 33/31/39 11/42/39 39/44/39
f 24/29/40 37/47/40 11/53/40
f 24/29/41 31/24/41 37/47/41
f 31/24/42 10/39/42 37/47/42
f 32/54/43 36/40/44 10/39/45
f 32/54/46 29/55/46 36/40/46
f 29/55/47 9/56/47 36/40/47
f 30/57/48 35/37/48 9/36/48
f 30/57/49 27/58/49 35/37/49
f 27/58/50 8/33/50 35/37/50
f 28/59/51 34/34/51 8/33/51
f 28/26/52 25/15/52 34/60/52
f 25/15/53 7/61/53 34/60/53
f 26/62/54 33/63/54 7/61/54
f 26/64/55 23/65/55 33/31/55
f 23/65/56 11/42/56 33/31/56
f 31/24/57 32/54/57 10/39/57
f 31/24/58 22/23/58 32/54/58
f 22/23/59 5/66/59 32/54/59
f 29/21/60 30/27/60 9/67/60
f 29/21/61 21/20/61 30/27/61
f 21/20/62 4/16/62 30/27/62
f 27/58/63 28/59/63 8/33/63
f 27/68/64 19/69/64 28/26/64
f 19/69/65 3/13/65 28/26/65
f 25/15/66 26/62/66 7/61/66
f 25/15/67 15/14/67 26/62/67
f 15/70/68 2/4/69 26/25/70
f 23/12/71 24/71/71 11/72/71
f 23/12/72 16/5/72 24/71/73
f 16/5/74 6/73/74 24/71/75
f 17/11/76 22/74/76 6/73/76
f 17/11/77 20/10/77 22/74/77
f 20/9/78 5/19/78 22/75/78
f 20/9/79 21/20/79 5/19/79
f 20/9/80 18/8/80 21/20/80
f 18/8/81 4/16/81 21/20/81
f 18/8/82 19/17/83 4/16/83
f 18/8/84 13/7/85 19/17/85
f 13/76/86 3/13/86 19/69/86
f 16/5/87 17/11/87 6/73/87
f 16/5/88 14/2/88 17/11/88
f 14/2/89 1/1/89 17/11/89
f 13/76/90 15/14/90 3/13/90
f 13/3/91 14/2/91 15/70/91
f 14/2/92 2/4/92 15/70/92
f 43/77/93 56/78/93 55/79/93
f 44/80/94 56/81/94 58/82/94
f 43/77/95 55/79/95 60/83/95
f 43/77/96 60/83/96 62/84/96
f 43/77/97 62/84/97 59/85/97
f 44/80/98 58/82/98 65/86/98
f 45/87/99 57/88/99 67/89/99
f 46/90/100 61/91/100 69/92/100
f 47/93/101 63/94/101 71/95/101
f 48/96/102 64/97/102 73/98/102
f 44/80/103 65/86/103 68/99/103
f 45/87/104 67/89/104 70/100/104
f 46/101/105 69/102/105 72/103/105
f 47/93/106 71/95/106 74/104/106
f 48/96/107 73/98/107 66/105/107
f 49/106/108 75/107/108 80/108/108
f 50/109/109 76/110/109 82/111/109
f 51/112/110 77/113/110 83/114/110
f 52/115/111 78/116/111 84/117/111
f 53/118/112 79/119/112 81/120/112
f 81/121/113 84/122/113 54/123/113
f 81/120/114 79/119/114 84/117/114
f 79/119/115 52/115/115 84/117/115
f 84/122/116 83/114/116 54/123/116
f 84/117/117 78/116/117 83/124/117
f 78/125/118 51/112/118 83/114/118
f 83/114/119 82/111/119 54/123/119
f 83/114/120 77/113/120 82/111/120
f 77/113/121 50/109/121 82/111/121
f 82/111/122 80/126/122 54/123/122
f 82/111/123 76/110/123 80/126/123
f 76/127/124 49/106/124 80/108/124
f 80/126/125 81/121/125 54/123/125
f 80/108/126 75/107/126 81/128/126
f 75/107/127 53/129/127 81/128/127
f 66/105/128 79/119/128 53/118/128
f 66/105/129 73/98/129 79/119/129
f 73/98/130 52/115/130 79/119/130
f 74/130/131 78/116/131 52/115/131
f 74/104/132 71/95/132 78/131/132
f 71/95/133 51/132/133 78/131/133
f 72/133/134 77/113/134 51/112/134
f 72/133/135 69/134/135 77/113/135
f 69/134/136 50/109/136 77/113/136
f 70/100/137 76/135/137 50/136/137
f 70/100/138 67/89/138 76/135/138
f 67/137/139 49/106/139 76/127/139
f 68/99/140 75/107/140 49/106/140
f 68/99/141 65/86/141 75/107/141
f 65/86/142 53/129/142 75/107/142
f 73/98/143 74/130/143 52/115/143
f 73/98/144 64/97/144 74/130/144
f 64/97/145 47/138/145 74/130/145
f 71/95/146 72/103/146 51/132/146
f 71/95/147 63/94/147 72/103/147
f 63/94/148 46/101/148 72/103/148
f 69/92/149 70/100/149 50/136/149
f 69/92/150 61/91/150 70/100/150
f 61/91/151 45/87/151 70/100/151
f 67/137/152 68/99/152 49/106/152
f 67/137/153 57/139/153 68/99/153
f 57/139/154 44/80/154 68/99/154
f 65/86/155 66/140/155 53/129/155
f 65/141/156 58/142/156 66/105/156
f 58/142/157 48/96/157 66/105/157
f 59/143/158 64/97/158 48/96/158
f 59/143/159 62/144/159 64/97/159
f 62/144/160 47/138/160 64/97/160
f 62/145/161 63/94/161 47/93/161
f 62/145/162 60/146/162 63/94/162
f 60/146/163 46/101/163 63/94/163
f 60/146/164 61/147/164 46/101/164
f 60/146/165 55/148/165 61/147/165
f 55/149/166 45/87/166 61/91/166
f 58/142/167 59/143/167 48/96/167
f 58/150/168 56/78/168 59/85/168
f 56/78/169 43/77/169 59/85/169
f 55/149/170 57/88/170 45/87/170
f 55/79/171 56/78/171 57/151/171
f 56/81/172 44/80/172 57/139/172
f 85/152/173 98/153/173 97/154/173
f 86/155/174 98/153/174 100/156/174
f 85/152/175 97/154/175 102/157/175
f 85/158/176 102/159/176 104/160/176
f 85/152/177 104/161/177 101/162/177
f 86/163/178 100/164/178 107/165/178
f 87/166/179 99/167/179 109/168/179
f 88/169/180 103/170/180 111/171/180
f 89/172/181 105/173/181 113/174/181
f 90/175/182 106/176/182 115/177/182
f 86/163/183 107/165/183 110/178/183
f 87/166/184 109/168/184 112/179/184
f 88/169/185 111/171/185 114/180/185
f 89/172/186 113/174/186 116/181/186
f 90/175/187 115/177/187 108/182/187
f 91/183/188 117/184/188 122/185/188
f 92/186/189 118/187/189 124/188/189
f 93/189/190 119/190/190 125/191/190
f 94/192/191 120/193/191 126/194/191
f 95/195/192 121/196/192 123/197/192
f 123/198/193 126/199/193 96/200/193
f 123/197/194 121/196/194 126/201/194
f 121/196/195 94/202/195 126/201/195
f 126/199/196 125/191/196 96/200/196
f 126/199/197 120/203/197 125/191/197
f 120/193/198 93/204/198 125/205/198
f 125/191/199 124/188/199 96/200/199
f 125/191/200 119/190/200 124/188/200
f 119/190/201 92/186/201 124/188/201
f 124/188/202 122/206/202 96/200/202
f 124/188/203 118/187/203 122/206/203
f 118/187/204 91/207/204 122/206/204
f 122/206/205 123/198/205 96/200/205
f 122/185/206 117/184/206 123/208/206
f 117/184/207 95/209/207 123/208/207
f 108/182/208 121/196/208 95/195/208
f 108/182/209 115/177/209 121/196/209
f 115/177/210 94/202/210 121/196/210
f 116/181/211 120/193/212 94/192/212
f 116/181/213 113/174/214 120/193/214
f 113/174/215 93/204/215 120/193/215
f 114/210/216 119/190/216 93/189/216
f 114/210/217 111/211/217 119/190/217
f 111/211/218 92/186/218 119/190/218
f 112/179/219 118/212/219 92/213/219
f 112/179/220 109/168/220 118/212/220
f 109/168/221 91/214/221 118/212/221
f 110/178/222 117/184/222 91/183/222
f 110/178/223 107/165/223 117/184/223
f 107/165/224 95/209/224 117/184/224
f 115/177/225 116/215/225 94/202/225
f 115/177/226 106/176/226 116/215/226
f 106/216/227 89/172/227 116/181/227
f 113/174/228 114/217/228 93/204/228
f 113/174/229 105/173/229 114/217/229
f 105/173/230 88/218/230 114/217/230
f 111/171/231 112/179/231 92/213/231
f 111/171/232 103/170/232 112/179/232
f 103/170/233 87/166/233 112/179/233
f 109/219/234 110/178/234 91/183/234
f 109/219/235 99/220/235 110/178/235
f 99/220/236 86/163/236 110/178/236
f 107/165/237 108/221/237 95/209/237
f 107/165/238 100/164/238 108/221/238
f 100/222/239 90/175/239 108/182/239
f 101/162/240 106/223/241 90/224/242
f 101/162/243 104/161/244 106/223/245
f 104/160/246 89/172/246 106/216/246
f 104/160/247 105/173/247 89/172/247
f 104/160/248 102/159/248 105/173/248
f 102/159/249 88/218/249 105/173/249
f 102/225/250 103/170/250 88/169/250
f 102/225/251 97/226/251 103/170/251
f 97/226/252 87/166/252 103/170/252
f 100/156/253 101/162/253 90/224/253
f 100/156/254 98/153/254 101/162/254
f 98/153/255 85/152/255 101/162/255
f 97/226/256 99/167/256 87/166/256
f 97/154/257 98/153/257 99/227/257
f 98/153/258 86/155/258 99/227/258
f 127/228/259 140/229/259 139/230/259
f 128/231/260 140/229/260 142/232/260
f 127/228/261 139/230/261 144/233/261
f 127/228/262 144/233/262 146/234/262
f 127/228/263 146/234/263 143/235/263
f 128/231/264 142/232/264 149/236/264
f 129/237/265 141/238/265 151/239/265
f 130/240/266 145/241/266 153/242/266
f 131/243/267 147/244/267 155/245/267
f 132/246/268 148/247/268 157/248/268
f 128/249/269 149/250/269 152/251/269
f 129/252/270 151/253/270 154/254/270
f 130/255/271 153/256/271 156/257/271
f 131/243/272 155/245/272 158/258/272
f 132/246/273 157/248/273 150/259/273
f 133/260/274 159/261/274 164/262/274
f 134/263/275 160/264/275 166/265/275
f 135/266/276 161/267/276 167/268/276
f 136/269/277 162/270/277 168/271/277
f 137/272/278 163/273/278 165/274/278
f 165/275/279 168/276/279 138/277/279
f 165/274/280 163/273/280 168/271/280
f 163/273/281 136/269/281 168/271/281
f 168/278/282 167/279/282 138/280/282
f 168/271/283 162/270/283 167/281/283
f 162/282/284 135/266/284 167/268/284
f 167/283/285 166/284/285 138/285/285
f 167/283/286 161/286/286 166/284/286
f 161/286/287 134/287/287 166/284/287
f 166/284/288 164/288/288 138/285/288
f 166/265/289 160/264/289 164/262/289
f 160/264/290 133/260/290 164/262/290
f 164/262/291 165/289/291 138/290/291
f 164/262/292 159/261/292 165/289/292
f 159/261/293 137/291/293 165/289/293
f 150/259/294 163/273/295 137/272/296
f 150/259/297 157/248/298 163/273/299
f 157/248/300 136/269/300 163/273/300
f 158/292/301 162/270/302 136/269/303
f 158/258/304 155/245/304 162/282/304
f 155/245/305 135/266/305 162/282/305
f 156/257/306 161/267/306 135/266/306
f 156/257/307 153/256/307 161/267/307
f 153/293/308 134/287/308 161/286/308
f 154/294/309 160/264/309 134/263/309
f 154/294/310 151/239/310 160/264/310
f 151/239/311 133/260/311 160/264/311
f 152/251/312 159/261/312 133/260/312
f 152/251/313 149/250/313 159/261/313
f 149/250/314 137/291/314 159/261/314
f 157/248/315 158/292/316 136/269/317
f 157/248/318 148/247/318 158/292/318
f 148/295/319 131/243/319 158/258/319
f 155/245/320 156/257/320 135/266/320
f 155/245/321 147/244/322 156/257/323
f 147/244/324 130/255/325 156/257/326
f 153/242/327 154/254/327 134/281/327
f 153/242/328 145/241/328 154/254/328
f 145/241/329 129/252/329 154/254/329
f 151/239/330 152/251/330 133/260/330
f 151/239/331 141/238/331 152/251/331
f 141/238/332 128/249/332 152/251/332
f 149/296/333 150/259/333 137/272/333
f 149/296/334 142/297/334 150/259/334
f 142/297/335 132/246/335 150/259/335
f 143/235/336 148/298/336 132/299/336
f 143/235/337 146/234/337 148/298/337
f 146/234/338 131/300/338 148/298/338
f 146/301/339 147/244/339 131/243/339
f 146/301/340 144/302/340 147/244/340
f 144/302/341 130/255/341 147/244/341
f 144/302/342 145/303/342 130/255/342
f 144/302/343 139/304/343 145/303/343
f 139/305/344 129/252/344 145/241/344
f 142/232/345 143/235/345 132/299/345
f 142/232/346 140/229/346 143/235/346
f 140/229/347 127/228/347 143/235/347
f 139/306/348 141/238/348 129/237/348
f 139/230/349 140/229/350 141/307/351
f 140/229/352 128/231/353 141/307/354
usemtl Material.002
f 176/308/355 196/309/355 195/310/355
f 178/311/356 223/312/356 196/313/356
f 181/314/357 187/315/357 173/316/357
f 185/317/358 172/318/359 170/319/360
f 193/320/361 182/321/361 181/314/361
f 190/322/362 185/323/362 179/324/362
f 192/325/363 176/326/363 200/327/363
f 176/308/364 178/328/364 196/309/364
f 198/329/365 179/330/365 184/331/365
f 182/332/366 183/333/366 188/334/366
f 181/314/367 182/321/367 187/315/367
f 173/335/368 187/336/368 174/337/368
f 187/315/369 188/338/369 174/339/369
f 192/340/370 193/320/370 181/314/370
f 169/341/371 190/322/371 179/324/371
f 180/342/372 192/343/372 186/344/372
f 182/321/373 193/320/373 194/345/373
f 182/321/374 194/345/374 200/346/374
f 195/347/375 196/348/375 197/349/375
f 183/333/376 184/350/376 177/351/376
f 175/352/377 188/334/377 183/333/377
f 174/339/378 188/338/378 175/353/378
f 179/324/379 185/323/380 170/354/381
f 184/355/382 179/324/383 189/356/384
f 201/357/385 178/358/385 169/341/385
f 192/359/386 199/360/386 193/361/386
f 171/362/387 192/343/387 180/342/387
f 169/341/388 171/363/388 191/364/388
f 192/343/389 181/365/389 186/344/389
f 200/366/390 183/333/390 182/332/390
f 195/367/391 184/350/391 183/333/391
f 195/347/392 197/349/392 184/368/392
f 196/369/393 179/370/393 198/371/393
f 184/372/394 189/373/394 177/374/394
f 183/333/395 177/351/395 175/352/395
f 186/344/396 181/365/396 172/375/396
f 181/314/397 173/316/397 172/376/397
f 189/356/398 179/324/398 170/354/398
f 185/377/399 180/378/399 172/379/399
f 180/342/400 186/344/400 172/375/400
f 223/380/401 179/370/401 196/369/401
f 223/381/402 201/382/402 179/383/402
f 201/357/403 169/341/404 179/324/405
f 200/366/406 176/384/406 183/333/406
f 176/385/407 195/386/407 183/387/407
f 171/362/408 180/342/408 191/388/408
f 204/389/409 206/390/409 207/391/409
f 194/345/410 203/392/410 205/393/410
f 202/394/411 207/395/412 199/396/413
f 202/397/414 205/398/414 204/399/414
f 200/400/415 202/394/415 199/396/415
f 199/360/416 203/401/416 193/361/416
f 200/402/417 194/403/417 202/397/417
f 194/345/418 193/320/418 203/392/418
f 205/393/419 207/404/419 206/405/419
f 205/393/420 203/392/420 207/404/420
f 204/406/421 205/407/421 206/408/421
f 199/360/422 207/409/422 203/401/422
f 202/394/423 204/410/423 207/395/423
f 202/397/424 194/403/424 205/398/424
f 208/411/425 212/412/425 211/413/425
f 190/322/426 211/414/426 185/323/426
f 210/415/427 213/416/428 212/417/429
f 191/418/430 208/419/430 190/420/430
f 180/421/431 211/422/432 209/423/433
f 180/424/434 209/425/434 210/426/434
f 213/427/435 211/428/435 212/403/435
f 190/322/436 208/429/436 211/414/436
f 208/419/437 210/430/437 212/431/437
f 191/418/438 210/430/438 208/419/438
f 209/423/439 211/422/439 213/432/439
f 210/415/440 209/433/440 213/416/440
f 180/421/441 185/434/442 211/422/443
f 191/435/444 180/424/444 210/426/444
f 220/436/445 222/437/445 219/438/445
f 217/439/446 219/440/446 221/441/446
f 221/442/447 222/443/448 220/444/449
f 214/445/450 217/446/450 220/447/450
f 196/369/451 215/448/451 216/449/451
f 198/371/452 215/448/453 196/369/454
f 184/450/455 219/438/455 198/451/455
f 196/452/456 214/453/456 197/454/456
f 214/455/457 220/456/457 184/457/457
f 198/371/458 219/440/458 215/448/458
f 196/452/459 216/458/459 214/453/459
f 216/449/460 215/448/460 217/439/460
f 216/458/461 218/459/461 214/453/461
f 217/439/462 215/448/462 219/440/462
f 217/460/463 221/442/464 220/444/465
f 221/441/466 219/440/467 222/461/468
f 216/449/469 217/439/469 218/462/469
f 214/463/470 218/464/470 217/465/470
f 184/450/471 220/436/471 219/438/472
f 197/466/473 214/455/473 184/457/473
f 223/381/474 225/467/474 224/468/474
f 223/381/475 224/468/475 201/382/475
f 178/358/476 224/469/476 225/470/476
f 178/471/477 225/472/477 223/473/477
f 178/358/478 201/357/478 224/469/478
f 192/325/479 200/327/479 199/474/479
f 178/475/480 176/476/480 192/343/480 171/362/480 169/477/480
f 170/319/481 172/318/481 173/478/481 174/479/481 175/480/481 177/481/481 189/482/481
f 169/341/482 191/364/482 190/322/482
f 182/321/483 188/338/483 187/315/483
